<svg id="icons" enable-background="new 0 0 64 64" height="512" viewBox="0 0 64 64" width="512" xmlns="http://www.w3.org/2000/svg"><path d="m61 9h-58c-1.101 0-2 .899-2 2v44c0 1.1.899 2 2 2h58c1.1 0 2-.9 2-2v-44c0-1.101-.9-2-2-2zm-56.97 46.003c-.553 0-1.005-.447-1.005-1s.442-1 .994-1h.011c.552 0 1 .447 1 1s-.448 1-1 1zm0-42.002c-.553 0-1.005-.448-1.005-1 0-.553.442-1 .994-1h.011c.552 0 1 .447 1 1 0 .552-.448 1-1 1zm56 42.002c-.553 0-1.005-.447-1.005-1s.442-1 .994-1h.011c.552 0 1 .447 1 1s-.448 1-1 1zm0-42.002c-.553 0-1.005-.448-1.005-1 0-.553.442-1 .994-1h.011c.552 0 1 .447 1 1 0 .552-.448 1-1 1z" fill="#656d78"/><path d="m56.005 17c.55 0 1 .45 1 1v3c0 .55-.45 1-1 1h-25.005c-.55 0-1-.45-1-1v-3c0-.55.45-1 1-1z" fill="#e6e9ed"/><path d="m39.011 9c0 .55-.45 1-1 1h-6.011c-.55 0-1-.45-1-1v-1c0-.55.45-1 1-1h6.011c.55 0 1 .45 1 1z" fill="#aab2bd"/><path d="m56.01 9c0 .55-.45 1-1 1h-6.002c-.55 0-1-.45-1-1v-1c0-.55.45-1 1-1h6.002c.55 0 1 .45 1 1z" fill="#aab2bd"/><path d="m47.01 9c0 .55-.45 1-1 1h-5.001c-.55 0-1-.45-1-1v-1c0-.55.45-1 1-1h5.001c.55 0 1 .45 1 1z" fill="#aab2bd"/><path d="m56.505 9c.272 0 .495.45.495 1v2c0 .55-.45 1-1 1h-25c-.55 0-1-.45-1-1v-2c0-.55.225-1 .5-1s.95 0 1.5 0h5.01 2 1 2 4 2 1 2 4z" fill="#ccd1d9"/><path d="m57 48c.55 0 1 .45 1 1v1c0 .55-.45 1-1 1h-25.99c-.55 0-1-.45-1-1v-1c0-.55.45-1 1-1z" fill="#5d9cec"/><path d="m57 42c.55 0 1 .45 1 1v1c0 .55-.45 1-1 1h-25.99c-.55 0-1-.45-1-1v-1c0-.55.45-1 1-1z" fill="#5d9cec"/><circle cx="39.5" cy="29.5" fill="#545c66" r="2.5"/><path d="m49.5 17h3.99v5h-3.99z" fill="#ccd1d9"/><path d="m45.5 17h4v5h-4z" fill="#e6e9ed"/><path d="m33.51 17h4v5h-4z" fill="#ccd1d9"/><path d="m37.51 17h3.99v5h-3.99z" fill="#e6e9ed"/><path d="m41.5 17h4v5h-4z" fill="#ccd1d9"/><path d="m9 15c.55 0 1 .45 1 1v22c0 .55-.45 1-1 1h-1c-.55 0-1-.45-1-1v-22c0-.55.45-1 1-1z" fill="#5d9cec"/><path d="m15 15c.55 0 1 .45 1 1v22c0 .55-.45 1-1 1h-1c-.55 0-1-.45-1-1v-22c0-.55.45-1 1-1z" fill="#5d9cec"/><path d="m21 15c.55 0 1 .45 1 1v22c0 .55-.45 1-1 1h-1c-.55 0-1-.45-1-1v-22c0-.55.45-1 1-1z" fill="#5d9cec"/><circle cx="8.5" cy="49.5" fill="#5d9cec" r="1.5"/><path d="m21 43.001c.55 0 1 .45 1 1v7c0 .55-.45 1-1 1h-7c-.55 0-1-.45-1-1v-7c0-.55.45-1 1-1z" fill="#545c66"/><g fill="#8cc152"><path d="m48.005 29.002c-.553 0-1-.447-1-1v-1c0-.553.447-1 1-1s1 .447 1 1v1c0 .553-.447 1-1 1z"/><path d="m51.005 29.002c-.553 0-1-.447-1-1v-1c0-.553.447-1 1-1s1 .447 1 1v1c0 .553-.447 1-1 1z"/><path d="m54.005 29.002c-.553 0-1-.447-1-1v-1c0-.553.447-1 1-1s1 .447 1 1v1c0 .553-.447 1-1 1z"/><path d="m48.005 38c-.553 0-1-.447-1-1v-1c0-.553.447-1 1-1s1 .447 1 1v1c0 .553-.447 1-1 1z"/><path d="m51.005 38c-.553 0-1-.447-1-1v-1c0-.553.447-1 1-1s1 .447 1 1v1c0 .553-.447 1-1 1z"/><path d="m54.005 38c-.553 0-1-.447-1-1v-1c0-.553.447-1 1-1s1 .447 1 1v1c0 .553-.447 1-1 1z"/><path d="m56.005 30.001h-1c-.553 0-1-.448-1-1s.447-1 1-1h1c.553 0 1 .448 1 1s-.447 1-1 1z"/><path d="m56.005 33.001h-1c-.553 0-1-.447-1-1 0-.552.447-1 1-1h1c.553 0 1 .448 1 1 0 .553-.447 1-1 1z"/><path d="m56.005 36.001h-1c-.553 0-1-.447-1-1s.447-1 1-1h1c.553 0 1 .447 1 1s-.447 1-1 1z"/><path d="m47.008 30.001h-1c-.553 0-1-.448-1-1s.447-1 1-1h1c.553 0 1 .448 1 1s-.447 1-1 1z"/><path d="m47.008 33.001h-1c-.553 0-1-.447-1-1 0-.552.447-1 1-1h1c.553 0 1 .448 1 1 0 .553-.447 1-1 1z"/><path d="m47.008 36.001h-1c-.553 0-1-.447-1-1s.447-1 1-1h1c.553 0 1 .447 1 1s-.447 1-1 1z"/></g><path d="m36.001 38.003c-.553 0-1-.447-1-1v-.999c0-.553.447-1 1-1s1 .447 1 1v.999c0 .553-.447 1-1 1z" fill="#545c66"/><path d="m32 33.002h-.998c-.553 0-1-.447-1-1s.447-1 1-1h.998c.553 0 1 .447 1 1s-.447 1-1 1z" fill="#545c66"/><path d="m26.002 51.012c-.553 0-1-.447-1-1v-34.01c0-.552.447-1 1-1s1 .448 1 1v34.01c0 .552-.447 1-1 1z" fill="#545c66"/><path d="m30 9h27v1h-27z" fill="#ccd1d9"/><circle cx="8.5" cy="43.5" fill="#5d9cec" r="1.5"/><path d="m7 42.499h3v1.001h-3z" fill="#5d9cec"/><circle cx="8.5" cy="42.499" fill="#e6e9ed" r="1.5"/><path d="m7 48.499h3v1.001h-3z" fill="#5d9cec"/><circle cx="8.5" cy="48.499" fill="#e6e9ed" r="1.5"/><path d="m55.01 37c-.55 0-1.45 0-2 0h-1c-.55 0-1.45 0-2 0h-1c-.55 0-1.45 0-2 0-.55 0-1-.45-1-1 0-.55 0-1.45 0-2v-1c0-.55 0-1.45 0-2v-1c0-.55 0-1.45 0-2 0-.55.45-1 1-1h2 1 2 1 2c.55 0 1 .45 1 1v2 1 2 1 2c0 .55-.45 1-1 1z" fill="#a0d468"/><path d="m48.01 29h6v6h-6z" fill="#e6e9ed"/><circle cx="31.505" cy="27.5" fill="#5d9cec" r="1.5"/><path d="m30.005 26.5h3v1h-3z" fill="#5d9cec"/><circle cx="31.505" cy="26.5" fill="#e6e9ed" r="1.5"/><circle cx="31.505" cy="36.502" fill="#5d9cec" r="1.5"/><path d="m30.005 35.5h3v1.002h-3z" fill="#5d9cec"/><circle cx="31.505" cy="35.5" fill="#e6e9ed" r="1.5"/><circle cx="40.5" cy="36.502" fill="#5d9cec" r="1.5"/><path d="m39 35.5h3v1.002h-3z" fill="#5d9cec"/><circle cx="40.5" cy="35.5" fill="#e6e9ed" r="1.5"/><circle cx="39.5" cy="28.5" fill="#e6e9ed" r="2.5"/><path d="m21 42c.55 0 1 .45 1 1v7c0 .55-.45 1-1 1h-7c-.55 0-1-.45-1-1v-7c0-.55.45-1 1-1z" fill="#e6e9ed"/></svg>