<svg id="icons" enable-background="new 0 0 64 64" height="512" viewBox="0 0 64 64" width="512" xmlns="http://www.w3.org/2000/svg"><path d="m23 24.002c0-.55.45-1 1-1h16c.55 0 1 .45 1 1v15.999c0 .55-.45 1-1 1h-16c-.55 0-1-.45-1-1z" fill="#656d78"/><path d="m13 59 1 4h-6l1-4z" fill="#ccd1d9"/><path d="m55 59 1 4h-6l1-4z" fill="#ccd1d9"/><path d="m55 15 1 4h-6l1-4z" fill="#ccd1d9"/><path d="m13 15 1 4h-6l1-4z" fill="#ccd1d9"/><path d="m50.001 19.998c-.08 0-.162-.01-.243-.03-.536-.134-.862-.677-.728-1.212l1-4c.133-.537.674-.865 1.212-.728.536.134.862.677.728 1.212l-1 4c-.114.455-.521.758-.969.758z" fill="#ccd1d9"/><path d="m55.999 19.998c-.448 0-.855-.303-.969-.758l-1-4c-.135-.535.191-1.078.728-1.212.535-.137 1.078.191 1.212.728l1 4c.135.535-.191 1.078-.728 1.212-.081.02-.163.03-.243.03z" fill="#ccd1d9"/><path d="m50.001 63.996c-.08 0-.162-.01-.243-.03-.536-.134-.862-.677-.728-1.212l1-4c.133-.536.674-.865 1.212-.728.536.134.862.677.728 1.212l-1 4c-.114.455-.521.758-.969.758z" fill="#ccd1d9"/><path d="m55.999 63.996c-.448 0-.855-.303-.969-.758l-1-4c-.135-.535.191-1.078.728-1.212.535-.137 1.078.191 1.212.728l1 4c.135.535-.191 1.078-.728 1.212-.081.02-.163.03-.243.03z" fill="#ccd1d9"/><path d="m8.001 19.998c-.08 0-.162-.01-.243-.03-.536-.134-.862-.677-.728-1.212l1-4c.134-.537.676-.865 1.212-.728.536.134.862.677.728 1.212l-1 4c-.114.455-.521.758-.969.758z" fill="#ccd1d9"/><path d="m13.999 19.998c-.448 0-.855-.303-.969-.758l-1-4c-.135-.535.191-1.078.728-1.212.533-.137 1.078.191 1.212.728l1 4c.135.535-.191 1.078-.728 1.212-.081.02-.163.03-.243.03z" fill="#ccd1d9"/><path d="m8.001 63.996c-.08 0-.162-.01-.243-.03-.536-.134-.862-.677-.728-1.212l1-4c.134-.536.676-.865 1.212-.728.536.134.862.677.728 1.212l-1 4c-.114.455-.521.758-.969.758z" fill="#ccd1d9"/><path d="m13.999 63.996c-.448 0-.855-.303-.969-.758l-1-4c-.135-.535.191-1.078.728-1.212.533-.137 1.078.191 1.212.728l1 4c.135.535-.191 1.078-.728 1.212-.081.02-.163.03-.243.03z" fill="#ccd1d9"/><path d="m21 46v12c0 .55-.45 1-1 1h-7-4-7c-.55 0-1-.45-1-1v-12c0-.55.45-1 1-1h18c.55 0 1 .45 1 1z" fill="#5d9cec"/><path d="m63 46v12c0 .55-.45 1-1 1h-7-4-7c-.55 0-1-.45-1-1v-12c0-.55.45-1 1-1h18c.55 0 1 .45 1 1z" fill="#5d9cec"/><path d="m63 2v12c0 .56-.45 1-1 1h-7-4-7c-.55 0-1-.44-1-1v-12c0-.54.45-1 1-1h18c.55 0 1 .46 1 1z" fill="#5d9cec"/><path d="m21 2v12c0 .56-.45 1-1 1h-7-4-7c-.55 0-1-.44-1-1v-12c0-.54.45-1 1-1h18c.55 0 1 .46 1 1z" fill="#5d9cec"/><path d="m57 19.998h-8c-.553 0-1-.447-1-1s.447-1 1-1h8c.553 0 1 .447 1 1s-.447 1-1 1z" fill="#e6e9ed"/><path d="m54 7.004h-6c-.553 0-1-.447-1-1s.447-1 1-1h6c.553 0 1 .447 1 1s-.447 1-1 1z" fill="#4a89dc"/><path d="m58 7.004h-1c-.553 0-1-.447-1-1s.447-1 1-1h1c.553 0 1 .447 1 1s-.447 1-1 1z" fill="#4a89dc"/><path d="m52 11.004h-4c-.553 0-1-.447-1-1s.447-1 1-1h4c.553 0 1 .447 1 1s-.447 1-1 1z" fill="#4a89dc"/><path d="m58 11.004h-3c-.553 0-1-.447-1-1s.447-1 1-1h3c.553 0 1 .447 1 1s-.447 1-1 1z" fill="#4a89dc"/><path d="m57 63.996h-8c-.553 0-1-.447-1-1s.447-1 1-1h8c.553 0 1 .447 1 1s-.447 1-1 1z" fill="#e6e9ed"/><path d="m49 51.002h-1c-.553 0-1-.447-1-1s.447-1 1-1h1c.553 0 1 .447 1 1s-.447 1-1 1z" fill="#4a89dc"/><path d="m58 51.002h-6c-.553 0-1-.447-1-1s.447-1 1-1h6c.553 0 1 .447 1 1s-.447 1-1 1z" fill="#4a89dc"/><path d="m51 55.002h-3c-.553 0-1-.447-1-1s.447-1 1-1h3c.553 0 1 .447 1 1s-.447 1-1 1z" fill="#4a89dc"/><path d="m58 55.002h-4c-.553 0-1-.447-1-1s.447-1 1-1h4c.553 0 1 .447 1 1s-.447 1-1 1z" fill="#4a89dc"/><path d="m15 19.998h-8c-.553 0-1-.447-1-1s.447-1 1-1h8c.553 0 1 .447 1 1s-.447 1-1 1z" fill="#e6e9ed"/><path d="m10 7.004h-4c-.553 0-1-.447-1-1s.447-1 1-1h4c.553 0 1 .447 1 1s-.447 1-1 1z" fill="#4a89dc"/><path d="m16 7.004h-3c-.553 0-1-.447-1-1s.447-1 1-1h3c.553 0 1 .447 1 1s-.447 1-1 1z" fill="#4a89dc"/><path d="m12 11.004h-6c-.553 0-1-.447-1-1s.447-1 1-1h6c.553 0 1 .447 1 1s-.447 1-1 1z" fill="#4a89dc"/><path d="m16 11.004h-1c-.553 0-1-.447-1-1s.447-1 1-1h1c.553 0 1 .447 1 1s-.447 1-1 1z" fill="#4a89dc"/><path d="m62 .004h-18c-1.103 0-2 .897-2 2v12c0 1.103.897 2 2 2h18c1.103 0 2-.897 2-2v-12c0-1.103-.897-2-2-2zm-.003 14h-17.997v-12h18z" fill="#e6e9ed"/><path d="m62 44.002h-18c-1.103 0-2 .897-2 2v12c0 1.103.897 2 2 2h18c1.103 0 2-.897 2-2v-12c0-1.103-.897-2-2-2zm-.004 14h-17.996v-12h18z" fill="#e6e9ed"/><path d="m20 .004h-18c-1.103 0-2 .897-2 2v12c0 1.103.897 2 2 2h18c1.103 0 2-.897 2-2v-12c0-1.103-.897-2-2-2zm-.003 14h-17.997v-12h18z" fill="#e6e9ed"/><path d="m20 44.002h-18c-1.103 0-2 .897-2 2v12c0 1.103.897 2 2 2h18c1.103 0 2-.897 2-2v-12c0-1.103-.897-2-2-2zm-.004 14h-17.996v-12h18z" fill="#e6e9ed"/><path d="m15 63.996h-8c-.553 0-1-.447-1-1s.447-1 1-1h8c.553 0 1 .447 1 1s-.447 1-1 1z" fill="#e6e9ed"/><path d="m8 51.002h-2c-.553 0-1-.447-1-1s.447-1 1-1h2c.553 0 1 .447 1 1s-.447 1-1 1z" fill="#4a89dc"/><path d="m16 51.002h-5c-.553 0-1-.447-1-1s.447-1 1-1h5c.553 0 1 .447 1 1s-.447 1-1 1z" fill="#4a89dc"/><path d="m11 55.002h-5c-.553 0-1-.447-1-1s.447-1 1-1h5c.553 0 1 .447 1 1s-.447 1-1 1z" fill="#4a89dc"/><path d="m16 55.002h-2c-.553 0-1-.447-1-1s.447-1 1-1h2c.553 0 1 .447 1 1s-.447 1-1 1z" fill="#4a89dc"/><path d="m27.031 28c-.553 0-1.005-.447-1.005-1s.442-1 .994-1h.011c.552 0 1 .447 1 1s-.448 1-1 1z" fill="#5d9cec"/><path d="m27.031 38.002c-.553 0-1.005-.447-1.005-1s.442-1 .994-1h.011c.552 0 1 .447 1 1s-.448 1-1 1z" fill="#5d9cec"/><path d="m23 31.002v2h.002 17.996.002v-2h-.002-17.996z" fill="#545c66"/><path d="m33 28.999c-.15 0-.303-.034-.446-.105-.494-.247-.694-.848-.447-1.342l1-2c.247-.494.848-.693 1.342-.447.494.247.694.848.447 1.342l-1 2c-.176.35-.529.552-.896.552z" fill="#545c66"/><path d="m36 28.999c-.15 0-.303-.034-.446-.105-.494-.247-.694-.848-.447-1.342l1-2c.248-.494.848-.693 1.342-.447.494.247.694.848.447 1.342l-1 2c-.176.35-.529.552-.896.552z" fill="#545c66"/><path d="m33 39.001c-.15 0-.303-.034-.446-.105-.494-.247-.694-.848-.447-1.342l1-2c.247-.494.848-.692 1.342-.447.494.247.694.848.447 1.342l-1 2c-.176.35-.529.552-.896.552z" fill="#545c66"/><path d="m36 39.001c-.15 0-.303-.034-.446-.105-.494-.247-.694-.848-.447-1.342l1-2c.248-.494.848-.692 1.342-.447.494.247.694.848.447 1.342l-1 2c-.176.35-.529.552-.896.552z" fill="#545c66"/><g fill="#656d78"><path d="m17.999 35.003h-6.998c-.553 0-1-.447-1-1s.447-1 1-1h6.998c.553 0 1 .447 1 1s-.447 1-1 1z"/><path d="m17.999 31.001h-6.998c-.553 0-1-.447-1-1s.447-1 1-1h6.998c.553 0 1 .447 1 1s-.447 1-1 1z"/><path d="m11.001 41.001c-.553 0-1-.447-1-1v-5.989c0-.553.447-1 1-1s1 .447 1 1v5.989c0 .553-.447 1-1 1z"/><path d="m11.001 41.001c-.256 0-.512-.098-.707-.293l-2-2c-.391-.391-.391-1.023 0-1.414s1.023-.391 1.414 0l2 2c.391.391.391 1.023 0 1.414-.195.195-.451.293-.707.293z"/><path d="m11.001 41.001c-.256 0-.512-.098-.707-.293-.391-.391-.391-1.023 0-1.414l2-2c.391-.391 1.023-.391 1.414 0s.391 1.023 0 1.414l-2 2c-.195.195-.451.293-.707.293z"/><path d="m9.001 27.001c-.256 0-.512-.098-.707-.293-.391-.391-.391-1.023 0-1.414l2-1.999c.391-.391 1.023-.391 1.414 0s.391 1.023 0 1.414l-2 1.999c-.195.195-.451.293-.707.293z"/><path d="m13.001 27.001c-.256 0-.512-.098-.707-.293l-2-1.999c-.391-.391-.391-1.023 0-1.414s1.023-.391 1.414 0l2 1.999c.391.391.391 1.023 0 1.414-.195.195-.451.293-.707.293z"/><path d="m11.001 30.989c-.553 0-1-.447-1-1v-5.989c0-.553.447-1 1-1s1 .447 1 1v5.989c0 .553-.447 1-1 1z"/><path d="m52.999 35h-6.998c-.553 0-1-.447-1-1s.447-1 1-1h6.998c.553 0 1 .447 1 1s-.447 1-1 1z"/><path d="m52.999 30.998h-6.998c-.553 0-1-.447-1-1s.447-1 1-1h6.998c.553 0 1 .447 1 1s-.447 1-1 1z"/><path d="m52.999 40.998c-.553 0-1-.447-1-1v-5.989c0-.553.447-1 1-1s1 .447 1 1v5.989c0 .553-.447 1-1 1z"/><path d="m52.999 40.998c-.256 0-.512-.098-.707-.293-.391-.391-.391-1.023 0-1.414l2-2c.391-.391 1.023-.391 1.414 0s.391 1.023 0 1.414l-2 2c-.195.195-.451.293-.707.293z"/><path d="m52.999 40.998c-.256 0-.512-.098-.707-.293l-2-2c-.391-.391-.391-1.023 0-1.414s1.023-.391 1.414 0l2 2c.391.391.391 1.023 0 1.414-.195.195-.451.293-.707.293z"/><path d="m54.999 26.998c-.256 0-.512-.098-.707-.293l-2-1.999c-.391-.391-.391-1.023 0-1.414s1.023-.391 1.414 0l2 1.999c.391.391.391 1.023 0 1.414-.195.195-.451.293-.707.293z"/><path d="m50.999 26.998c-.256 0-.512-.098-.707-.293-.391-.391-.391-1.023 0-1.414l2-1.999c.391-.391 1.023-.391 1.414 0s.391 1.023 0 1.414l-2 1.999c-.195.195-.451.293-.707.293z"/><path d="m52.999 30.986c-.553 0-1-.447-1-1v-5.989c0-.553.447-1 1-1s1 .447 1 1v5.989c0 .553-.447 1-1 1z"/></g></svg>