<svg id="icons" enable-background="new 0 0 64 64" height="512" viewBox="0 0 64 64" width="512" xmlns="http://www.w3.org/2000/svg"><path d="m30 46.995h4v7h-4z" fill="#545c66"/><path d="m4 10.005v32.99h56v-32.99zm59-1v35.99c0 1.1-.9 2-2 2h-27-4-27c-1.1 0-2-.9-2-2v-35.99c0-1.1.9-2 2-2h58c1.1 0 2 .9 2 2z" fill="#656d78"/><path d="m48 55.995v1h-32.01v-1c0-1.11.899-2 2-2h12.01 4 12c1.11 0 2 .89 2 2z" fill="#656d78"/><path d="m4 10.005h56v32.99h-56z" fill="#5d9cec"/><path d="m36.002 43h-6.002l-4.004-33h6.002z" fill="#87bcf4"/><path d="m38.004 43h-.996l-4.004-33h.996z" fill="#87bcf4"/><path d="m32.055 45.998c-.553 0-1.005-.447-1.005-1s.442-1 .994-1h.011c.552 0 1 .447 1 1s-.449 1-1 1z" fill="#545c66"/></svg>