<svg id="icons" enable-background="new 0 0 64 64" height="512" viewBox="0 0 64 64" width="512" xmlns="http://www.w3.org/2000/svg"><path d="m45 59v1h-26v-1c0-1.109.89-2 2-2h2 18 2c1.11 0 2 .891 2 2z" fill="#e6e9ed"/><path d="m39 50.002 2 6.998h-18l2-6.998z" fill="#ccd1d9"/><path d="m60 7v37h-56v-37h28z" fill="#5d9cec"/><path d="m63 48.002c0 1.1-.9 2-2 2h-22-14-22c-1.1 0-2-.9-2-2v-4.002h.05 2.95 56 3z" fill="#e6e9ed"/><path d="m61 4h-29-29c-1.1 0-2 .9-2 2v38h.05 2.95v-37h28 28v37h3v-38c0-1.1-.9-2-2-2z" fill="#656d78"/><path d="m36.002 44h-6.002l-4.004-37h6.002z" fill="#87bcf4"/><path d="m38.004 44h-.996l-4.004-37h.996z" fill="#87bcf4"/><path d="m32.03 48c-.553 0-1.005-.447-1.005-1s.442-1 .994-1h.011c.552 0 1 .447 1 1s-.448 1-1 1z" fill="#ccd1d9"/><path d="m32.029 6c-.276 0-.502-.223-.502-.5 0-.275.221-.498.496-.498h.006c.275 0 .498.223.498.498 0 .277-.222.5-.498.5z" fill="#5d9cec"/></svg>