<svg id="icons" enable-background="new 0 0 64 64" height="512" viewBox="0 0 64 64" width="512" xmlns="http://www.w3.org/2000/svg"><g fill="#656d78"><path d="m32.031 20.508c-.553 0-1-.447-1-1v-18.008c0-.553.447-1 1-1s1 .447 1 1v18.008c0 .553-.447 1-1 1z"/><path d="m43.99 25.5c0-2.21 1.79-4 4-4h.01v21.99.01h-.01c-2.21 0-4-1.79-4-4z"/><path d="m16 21.5c2.21 0 4 1.79 4 4v14c0 2.21-1.79 4-4 4v-.01z"/></g><path d="m48 47.5c0 8.83-7.17 16-16 16-8.84 0-16-7.17-16-16v-.01-3.99c.01 8.84 7.16 15.99 16 15.99 8.83 0 15.99-7.15 16-15.99v3.99z" fill="#da4453"/><path d="m32.03 19.5c-.01 0-.021 0-.03 0-1.109 0-2 .9-2 2v9c0 1.11.891 2 2 2 1.101 0 2-.89 2-2v-9c0-1.09-.88-1.979-1.97-2zm0-6h7.97c4.42 0 8 3.58 8 8h-.01c-2.21 0-4 1.79-4 4v14c0 2.21 1.79 4 4 4h.01c-.01 8.84-7.17 15.99-16 15.99-8.84 0-15.99-7.15-16-15.99 2.21 0 4-1.79 4-4v-14c0-2.21-1.79-4-4-4 0-4.42 3.58-8 8-8z" fill="#ed5565"/><path d="" style="fill:none;stroke:#000;stroke-width:2;stroke-linecap:round;stroke-linejoin:round;stroke-miterlimit:10"/><path d="m32.031 19.508v-.002" fill="none"/><path d="m30.999 13.5v6.278c.295-.173.634-.278 1.001-.278h.03c.354.007.682.112.969.28v-6.28h-.969z" fill="#da4453"/><path d="m32.999 44.508v-12.284c-.295.171-.634.276-.999.276-.367 0-.706-.104-1.001-.275v12.283c0 .553.447 1 1 1s1-.447 1-1z" fill="#da4453"/><path d="m32 19c-1.379 0-2.5 1.121-2.5 2.5v9c0 1.379 1.121 2.5 2.5 2.5s2.5-1.121 2.5-2.5v-9c0-1.353-1.104-2.475-2.5-2.5z" fill="#e6e9ed"/></svg>