<svg id="icons" enable-background="new 0 0 64 64" height="512" viewBox="0 0 64 64" width="512" xmlns="http://www.w3.org/2000/svg"><path d="m31.469 21c-.553 0-1-.447-1-1 0-1.654 1.346-3 3-3 .553 0 1 .447 1 1s-.447 1-1 1c-.552 0-1 .448-1 1 0 .553-.448 1-1 1z" fill="#656d78"/><path d="m61.002 18.999c-.553 0-1-.447-1-1s.447-1 1-1c.551 0 .998-.447.998-.998s-.447-.998-.998-.998c-.553 0-1-.447-1-1s.447-1 1-1c1.653 0 2.998 1.345 2.998 2.998s-1.345 2.998-2.998 2.998z" fill="#656d78"/><path d="m61.002 15.001h-60.002c-.553 0-1-.447-1-1s.447-1 1-1h60.002c.553 0 1 .447 1 1s-.447 1-1 1z" fill="#656d78"/><path d="m61.002 19h-27.533c-.553 0-1-.447-1-1s.447-1 1-1h27.533c.553 0 1 .447 1 1s-.447 1-1 1z" fill="#656d78"/><path d="m31.469 22.995c-.553 0-1-.447-1-1v-1.995c0-.553.447-1 1-1s1 .447 1 1v1.995c0 .553-.448 1-1 1z" fill="#656d78"/><path d="m57.996 23.999v.01h-53c-1.66 0-3 1.34-3 2.99v21c0 1.66 1.34 3 3 3h53 .04c1.64-.02 2.96-1.35 2.96-3v-21c0-1.66-1.34-3-3-3z" fill="#ccd1d9"/><path d="m57.996 21.997v.01h-53c-1.66 0-3 1.34-3 2.99v21c0 1.66 1.34 3 3 3h53 .04c1.64-.02 2.96-1.35 2.96-3v-21c0-1.66-1.34-3-3-3z" fill="#e6e9ed"/><g fill="#ccd1d9"><path d="m7.53 26.998c-.553 0-1.005-.447-1.005-1s.442-1 .994-1h.011c.552 0 1 .447 1 1s-.448 1-1 1z"/><path d="m13.53 26.998c-.553 0-1.005-.447-1.005-1s.442-1 .994-1h.011c.552 0 1 .447 1 1s-.448 1-1 1z"/><path d="m19.528 26.998c-.553 0-1.005-.447-1.005-1s.442-1 .994-1h.011c.552 0 1 .447 1 1s-.448 1-1 1z"/><path d="m25.528 26.998c-.553 0-1.005-.447-1.005-1s.442-1 .994-1h.011c.552 0 1 .447 1 1s-.448 1-1 1z"/><path d="m31.526 26.998c-.553 0-1.005-.447-1.005-1s.442-1 .994-1h.011c.552 0 1 .447 1 1s-.448 1-1 1z"/><path d="m37.526 26.998c-.553 0-1.005-.447-1.005-1s.442-1 .994-1h.011c.552 0 1 .447 1 1s-.448 1-1 1z"/><path d="m43.524 26.998c-.553 0-1.005-.447-1.005-1s.442-1 .994-1h.011c.552 0 1 .447 1 1s-.448 1-1 1z"/><path d="m49.524 26.998c-.553 0-1.005-.447-1.005-1s.442-1 .994-1h.011c.552 0 1 .447 1 1s-.448 1-1 1z"/><path d="m55.522 26.998c-.553 0-1.005-.447-1.005-1s.442-1 .994-1h.011c.552 0 1 .447 1 1s-.448 1-1 1z"/><path d="m50.996 36.498h-3c-.276 0-.5.224-.5.5v3c0 .276.224.5.5.5h3c.276 0 .5-.224.5-.5v-3c0-.276-.224-.5-.5-.5z"/><path d="m29.996 34.508h3c.276 0 .5-.224.5-.5v-3c0-.276-.224-.5-.5-.5h-3c-.276 0-.5.224-.5.5v3c0 .276.224.5.5.5z"/><path d="m17.996 34.508h3c.276 0 .5-.224.5-.5v-3c0-.276-.224-.5-.5-.5h-3c-.276 0-.5.224-.5.5v3c0 .276.224.5.5.5z"/><path d="m44.996 42.498h-27c-.276 0-.5.224-.5.5v3c0 .276.224.5.5.5h27c.276 0 .5-.224.5-.5v-3c0-.276-.224-.5-.5-.5z"/><path d="m50.986 42.498h-3c-.276 0-.5.224-.5.5v3c0 .276.224.5.5.5h3c.276 0 .5-.224.5-.5v-3c0-.276-.223-.5-.5-.5z"/><path d="m8.996 42.498h-3c-.276 0-.5.224-.5.5v3c0 .276.224.5.5.5h3c.276 0 .5-.224.5-.5v-3c0-.276-.224-.5-.5-.5z"/><path d="m14.996 36.498h-9c-.276 0-.5.224-.5.5v3c0 .276.224.5.5.5h9c.276 0 .5-.224.5-.5v-3c0-.276-.224-.5-.5-.5z"/><path d="m41.986 34.508h3c.276 0 .5-.224.5-.5v-3c0-.276-.224-.5-.5-.5h-3c-.276 0-.5.224-.5.5v3c0 .276.224.5.5.5z"/><path d="m56.996 42.498h-3c-.276 0-.5.224-.5.5v3c0 .276.224.5.5.5h3c.276 0 .5-.224.5-.5v-3c0-.276-.224-.5-.5-.5z"/><path d="m50.996 30.508h-3c-.276 0-.5.224-.5.5v3c0 .276.224.5.5.5h3c.276 0 .5-.224.5-.5v-3c0-.277-.224-.5-.5-.5z"/><path d="m17.996 40.498h3c.276 0 .5-.224.5-.5v-3c0-.276-.224-.5-.5-.5h-3c-.276 0-.5.224-.5.5v3c0 .276.224.5.5.5z"/><path d="m29.996 40.498h3c.276 0 .5-.224.5-.5v-3c0-.276-.224-.5-.5-.5h-3c-.276 0-.5.224-.5.5v3c0 .276.224.5.5.5z"/><path d="m35.996 40.498h3c.276 0 .5-.224.5-.5v-3c0-.276-.224-.5-.5-.5h-3c-.276 0-.5.224-.5.5v3c0 .276.224.5.5.5z"/><path d="m35.996 34.508h3c.276 0 .5-.224.5-.5v-3c0-.276-.224-.5-.5-.5h-3c-.276 0-.5.224-.5.5v3c0 .276.224.5.5.5z"/><path d="m56.996 30.508h-3c-.276 0-.5.224-.5.5v8.99c0 .276.224.5.5.5h3c.276 0 .5-.224.5-.5v-8.99c0-.277-.224-.5-.5-.5z"/><path d="m41.986 40.498h3c.276 0 .5-.224.5-.5v-3c0-.276-.224-.5-.5-.5h-3c-.276 0-.5.224-.5.5v3c0 .276.224.5.5.5z"/><path d="m23.996 40.498h3c.276 0 .5-.224.5-.5v-3c0-.276-.224-.5-.5-.5h-3c-.276 0-.5.224-.5.5v3c0 .276.224.5.5.5z"/><path d="m14.996 30.508h-3c-.276 0-.5.224-.5.5v3c0 .276.224.5.5.5h3c.276 0 .5-.224.5-.5v-3c0-.277-.224-.5-.5-.5z"/><path d="m14.996 42.498h-3c-.276 0-.5.224-.5.5v3c0 .276.224.5.5.5h3c.276 0 .5-.224.5-.5v-3c0-.276-.224-.5-.5-.5z"/><path d="m23.996 34.508h3c.276 0 .5-.224.5-.5v-3c0-.276-.224-.5-.5-.5h-3c-.276 0-.5.224-.5.5v3c0 .276.224.5.5.5z"/><path d="m5.996 34.508h3c.276 0 .5-.224.5-.5v-3c0-.276-.224-.5-.5-.5h-3c-.276 0-.5.224-.5.5v3c0 .276.224.5.5.5z"/></g><path d="m50.996 35.497h-3c-.276 0-.5.224-.5.5v3c0 .276.224.5.5.5h3c.276 0 .5-.224.5-.5v-3c0-.276-.224-.5-.5-.5z" fill="#fff"/><path d="m29.996 33.507h3c.276 0 .5-.224.5-.5v-3c0-.276-.224-.5-.5-.5h-3c-.276 0-.5.224-.5.5v3c0 .276.224.5.5.5z" fill="#fff"/><path d="m17.996 33.507h3c.276 0 .5-.224.5-.5v-3c0-.276-.224-.5-.5-.5h-3c-.276 0-.5.224-.5.5v3c0 .276.224.5.5.5z" fill="#fff"/><path d="m44.996 41.497h-27c-.276 0-.5.224-.5.5v3c0 .276.224.5.5.5h27c.276 0 .5-.224.5-.5v-3c0-.276-.224-.5-.5-.5z" fill="#fff"/><path d="m50.986 41.497h-3c-.276 0-.5.224-.5.5v3c0 .276.224.5.5.5h3c.276 0 .5-.224.5-.5v-3c0-.276-.223-.5-.5-.5z" fill="#fff"/><path d="m8.996 41.497h-3c-.276 0-.5.224-.5.5v3c0 .276.224.5.5.5h3c.276 0 .5-.224.5-.5v-3c0-.276-.224-.5-.5-.5z" fill="#fff"/><path d="m14.996 35.497h-9c-.276 0-.5.224-.5.5v3c0 .276.224.5.5.5h9c.276 0 .5-.224.5-.5v-3c0-.276-.224-.5-.5-.5z" fill="#fff"/><path d="m41.986 33.507h3c.276 0 .5-.224.5-.5v-3c0-.276-.224-.5-.5-.5h-3c-.276 0-.5.224-.5.5v3c0 .276.224.5.5.5z" fill="#fff"/><path d="m56.996 41.497h-3c-.276 0-.5.224-.5.5v3c0 .276.224.5.5.5h3c.276 0 .5-.224.5-.5v-3c0-.276-.224-.5-.5-.5z" fill="#fff"/><path d="m50.996 29.507h-3c-.276 0-.5.224-.5.5v3c0 .276.224.5.5.5h3c.276 0 .5-.224.5-.5v-3c0-.277-.224-.5-.5-.5z" fill="#fff"/><path d="m17.996 39.497h3c.276 0 .5-.224.5-.5v-3c0-.276-.224-.5-.5-.5h-3c-.276 0-.5.224-.5.5v3c0 .276.224.5.5.5z" fill="#fff"/><path d="m29.996 39.497h3c.276 0 .5-.224.5-.5v-3c0-.276-.224-.5-.5-.5h-3c-.276 0-.5.224-.5.5v3c0 .276.224.5.5.5z" fill="#fff"/><path d="m35.996 39.497h3c.276 0 .5-.224.5-.5v-3c0-.276-.224-.5-.5-.5h-3c-.276 0-.5.224-.5.5v3c0 .276.224.5.5.5z" fill="#fff"/><path d="m35.996 33.507h3c.276 0 .5-.224.5-.5v-3c0-.276-.224-.5-.5-.5h-3c-.276 0-.5.224-.5.5v3c0 .276.224.5.5.5z" fill="#fff"/><path d="m56.996 29.507h-3c-.276 0-.5.224-.5.5v8.99c0 .276.224.5.5.5h3c.276 0 .5-.224.5-.5v-8.99c0-.277-.224-.5-.5-.5z" fill="#fff"/><path d="m41.986 39.497h3c.276 0 .5-.224.5-.5v-3c0-.276-.224-.5-.5-.5h-3c-.276 0-.5.224-.5.5v3c0 .276.224.5.5.5z" fill="#fff"/><path d="m23.996 39.497h3c.276 0 .5-.224.5-.5v-3c0-.276-.224-.5-.5-.5h-3c-.276 0-.5.224-.5.5v3c0 .276.224.5.5.5z" fill="#fff"/><path d="m14.996 29.507h-3c-.276 0-.5.224-.5.5v3c0 .276.224.5.5.5h3c.276 0 .5-.224.5-.5v-3c0-.277-.224-.5-.5-.5z" fill="#fff"/><path d="m14.996 41.497h-3c-.276 0-.5.224-.5.5v3c0 .276.224.5.5.5h3c.276 0 .5-.224.5-.5v-3c0-.276-.224-.5-.5-.5z" fill="#fff"/><path d="m23.996 33.507h3c.276 0 .5-.224.5-.5v-3c0-.276-.224-.5-.5-.5h-3c-.276 0-.5.224-.5.5v3c0 .276.224.5.5.5z" fill="#fff"/><path d="m5.996 33.507h3c.276 0 .5-.224.5-.5v-3c0-.276-.224-.5-.5-.5h-3c-.276 0-.5.224-.5.5v3c0 .276.224.5.5.5z" fill="#fff"/></svg>