<svg id="icons" enable-background="new 0 0 64 64" height="512" viewBox="0 0 64 64" width="512" xmlns="http://www.w3.org/2000/svg"><path d="m55.005 55h-46.01c-2.2 0-4-1.8-4-4v8c0 2.2 1.8 4 4 4h46.01c2.2 0 4-1.8 4-4v-8c0 2.2-1.8 4-4 4z" fill="#545c66"/><path d="m55.005 1h-46.01c-2.2 0-4 1.8-4 4v10 36c0 2.2 1.8 4 4 4h46.01c2.2 0 4-1.8 4-4v-36-10c0-2.2-1.8-4-4-4z" fill="#656d78"/><path d="m49.995 57c1.109 0 2 .89 2 2 0 1.1-.891 2-2 2-1.101 0-2-.9-2-2 0-1.11.9-2 2-2z" fill="#5d9cec"/><path d="m32.005 15c7.17 0 13 5.83 13 13 0 7.18-5.83 13-13 13-7.18 0-13-5.82-13-13 0-7.17 5.82-13 13-13zm7 13c0-3.86-3.14-7-7-7-3.87 0-7 3.14-7 7s3.13 7 7 7c3.86 0 7-3.14 7-7z" fill="#545c66"/><g fill="#434a54"><path d="m40.997 60h-4c-.553 0-1-.447-1-1s.447-1 1-1h4c.553 0 1 .447 1 1s-.447 1-1 1z"/><path d="m32.997 60h-4c-.553 0-1-.447-1-1s.447-1 1-1h4c.553 0 1 .447 1 1s-.447 1-1 1z"/><path d="m24.997 60h-4c-.553 0-1-.447-1-1s.447-1 1-1h4c.553 0 1 .447 1 1s-.447 1-1 1z"/><path d="m16.997 60h-4c-.553 0-1-.447-1-1s.447-1 1-1h4c.553 0 1 .447 1 1s-.447 1-1 1z"/></g></svg>