<svg id="icons" enable-background="new 0 0 64 64" height="512" viewBox="0 0 64 64" width="512" xmlns="http://www.w3.org/2000/svg"><path d="m42 17.999h-9.99-10.01c-3.311 0-6 2.68-6 6v23c0 8.84 7.17 16 16 16 8.84 0 16-7.16 16-16v-23c0-3.32-2.681-6-6-6z" fill="#656d78"/><g fill="#5d9cec"><path d="m34.12 15.883c-.256 0-.512-.098-.707-.293-.779-.779-2.049-.779-2.828 0-.391.391-1.023.391-1.414 0s-.391-1.023 0-1.414c1.559-1.561 4.098-1.561 5.656 0 .391.391.391 1.023 0 1.414-.195.195-.451.293-.707.293z"/><path d="m36.241 13.762c-.256 0-.512-.098-.707-.293-.945-.945-2.2-1.466-3.535-1.466s-2.59.521-3.535 1.466c-.391.391-1.023.391-1.414 0s-.391-1.023 0-1.414c1.322-1.323 3.08-2.052 4.949-2.052s3.627.729 4.949 2.052c.391.391.391 1.023 0 1.414-.195.195-.451.293-.707.293z"/><path d="m38.363 11.64c-.256 0-.512-.098-.707-.293-3.119-3.119-8.195-3.119-11.314 0-.391.391-1.023.391-1.414 0s-.391-1.023 0-1.414c3.898-3.898 10.244-3.898 14.143 0 .391.391.391 1.023 0 1.414-.196.195-.452.293-.708.293z"/><path d="m40.484 9.519c-.256 0-.512-.098-.707-.293-4.289-4.289-11.268-4.289-15.557 0-.391.391-1.023.391-1.414 0s-.391-1.023 0-1.414c5.068-5.068 13.316-5.068 18.385 0 .391.391.391 1.023 0 1.414-.195.195-.451.293-.707.293z"/><path d="m21.393 7.397c-.256 0-.512-.098-.707-.293-.391-.391-.391-1.023 0-1.414 3.024-3.024 7.042-4.689 11.313-4.689 4.272 0 8.29 1.665 11.313 4.689.391.391.391 1.023 0 1.414s-1.023.391-1.414 0c-2.646-2.646-6.161-4.104-9.899-4.104-3.737 0-7.253 1.457-9.899 4.104-.196.196-.452.293-.707.293z"/></g><path d="m33.001 42.999v-25h-.991-1.009v25c0 .553.447 1 1 1s1-.447 1-1z" fill="#545c66"/><path d="m32.01 21.499c-1.379 0-2.5 1.121-2.5 2.5v6c0 1.379 1.121 2.5 2.5 2.5s2.5-1.121 2.5-2.5v-6c0-1.379-1.121-2.5-2.5-2.5z" fill="#e6e9ed"/></svg>