<svg id="icons" enable-background="new 0 0 64 64" height="512" viewBox="0 0 64 64" width="512" xmlns="http://www.w3.org/2000/svg"><path d="m34.5 19.5 1 3.992h-7.001l1-3.992z" fill="#545c66"/><path d="m34 19.5h-4-6c-.54 0-1-.449-1-1v-10c0-.549.46-1 1-1h16c.55 0 1 .451 1 1v10c0 .551-.45 1-1 1z" fill="#5d9cec"/><path d="m32 28.502c-.553 0-1-.447-1-1v-4.004c0-.553.447-1 1-1s1 .447 1 1v4.004c0 .553-.447 1-1 1z" fill="#545c66"/><path d="m40.003 20.498h-15.998c-1.103 0-2-.896-2-2v-9.998c0-1.102.897-2 2-2h15.998c1.103 0 2 .898 2 2v9.998c0 1.104-.898 2-2 2zm0-2v1zm-15.998-9.998v9.998h15.994l.004-9.998z" fill="#656d78"/><path d="m36.004 24.492h-8c-.553 0-1-.447-1-1s.447-1 1-1h8c.553 0 1 .447 1 1s-.447 1-1 1z" fill="#656d78"/><path d="m51 55.498c0 .551-.45 1-1 1h-36c-.55 0-1-.449-1-1v-28.998c0-.551.45-1 1-1h36c.55 0 1 .449 1 1z" fill="#e6e9ed"/><g fill="#a0d468"><path d="m34 54.498c-.553 0-1-.447-1-1v-1c0-.553.447-1 1-1s1 .447 1 1v1c0 .553-.447 1-1 1z"/><path d="m30 54.498c-.553 0-1-.447-1-1v-1c0-.553.447-1 1-1s1 .447 1 1v1c0 .553-.447 1-1 1z"/><path d="m26 54.498c-.553 0-1-.447-1-1v-1c0-.553.447-1 1-1s1 .447 1 1v1c0 .553-.447 1-1 1z"/><path d="m22 54.498c-.553 0-1-.447-1-1v-1c0-.553.447-1 1-1s1 .447 1 1v1c0 .553-.447 1-1 1z"/><path d="m18 54.498c-.553 0-1-.447-1-1v-1c0-.553.447-1 1-1s1 .447 1 1v1c0 .553-.447 1-1 1z"/></g><path d="m53 30.498v2.5c0 .83-.67 1.5-1.5 1.5-.18 0-.34-.029-.5-.09-.58-.199-1-.76-1-1.41 0 .83-.67 1.5-1.5 1.5s-1.5-.67-1.5-1.5c0 .83-.67 1.5-1.5 1.5s-1.5-.67-1.5-1.5c0 .83-.67 1.5-1.5 1.5s-1.5-.67-1.5-1.5c0 .83-.67 1.5-1.5 1.5s-1.5-.67-1.5-1.5c0 .83-.67 1.5-1.5 1.5s-1.5-.67-1.5-1.5c0 .83-.67 1.5-1.5 1.5s-1.5-.67-1.5-1.5c0 .83-.67 1.5-1.5 1.5s-1.5-.67-1.5-1.5c0 .83-.67 1.5-1.5 1.5s-1.5-.67-1.5-1.5c0 .83-.67 1.5-1.5 1.5s-1.5-.67-1.5-1.5c0 .83-.67 1.5-1.5 1.5s-1.5-.67-1.5-1.5c0 .83-.67 1.5-1.5 1.5s-1.5-.67-1.5-1.5c0 .83-.67 1.5-1.5 1.5s-1.5-.67-1.5-1.5c0 .65-.42 1.211-1 1.41-.16.061-.32.09-.5.09-.83 0-1.5-.67-1.5-1.5v-2.5l2-2h38z" fill="#da4453"/><path d="m9 54.5c0-1.111.9-2 2-2s2 .561 2 2v3h-12v-3c0-1.111.9-2 2-2s2 .889 2 2v-1c0-1.111.89-2 2-2 1.1 0 2 .889 2 2z" fill="#a0d468"/><path d="m59 54.5c0-1.111.9-2 2-2s2 .561 2 2v3h-12v-3c0-1.111.9-2 2-2s2 .889 2 2v-1c0-1.111.89-2 2-2 1.1 0 2 .889 2 2z" fill="#a0d468"/><path d="m39 38.498v9 9h8v-9-9z" fill="#5d9cec"/><path d="m39 38.498v9 9h8v-9-9z" fill="#5d9cec"/><path d="m47 56.998h-8c-.276 0-.5-.223-.5-.5v-18c0-.275.224-.5.5-.5h8c.276 0 .5.225.5.5v18c0 .277-.224.5-.5.5zm-7.5-1h7v-17h-7z" fill="#f5f7fa"/><path d="m18 53.498h4 4 4 4 1v3h-18v-3z" fill="#545c66"/><path d="m17 38.498h18v10h-18z" fill="#5d9cec"/><path d="m35 48.998h-18c-.276 0-.5-.223-.5-.5v-10c0-.275.224-.5.5-.5h18c.276 0 .5.225.5.5v10c0 .277-.224.5-.5.5zm-17.5-1h17v-9h-17z" fill="#fff"/><path d="m12.5 34.498c.18 0 .34-.029.5-.09.58-.199 1-.76 1-1.41 0 .83.67 1.5 1.5 1.5s1.5-.67 1.5-1.5c0 .83.67 1.5 1.5 1.5s1.5-.67 1.5-1.5c0 .83.67 1.5 1.5 1.5s1.5-.67 1.5-1.5c0 .83.67 1.5 1.5 1.5s1.5-.67 1.5-1.5c0 .83.67 1.5 1.5 1.5s1.5-.67 1.5-1.5c0 .83.67 1.5 1.5 1.5s1.5-.67 1.5-1.5c0 .83.67 1.5 1.5 1.5s1.5-.67 1.5-1.5c0 .83.67 1.5 1.5 1.5s1.5-.67 1.5-1.5c0 .83.67 1.5 1.5 1.5s1.5-.67 1.5-1.5c0 .83.67 1.5 1.5 1.5s1.5-.67 1.5-1.5c0 .83.67 1.5 1.5 1.5s1.5-.67 1.5-1.5c0 .83.67 1.5 1.5 1.5s1.5-.67 1.5-1.5c0 .65.42 1.211 1 1.41.16.061.32.09.5.09.83 0 1.5-.67 1.5-1.5v-2.5h-42v2.5c0 .83.67 1.5 1.5 1.5z" fill="#ed5565"/><path d="m63 57.498h-62c-.553 0-1-.447-1-1s.447-1 1-1h62c.553 0 1 .447 1 1s-.447 1-1 1z" fill="#656d78"/><path d="m39 46.998h8.031v1h-8.031z" fill="#fff"/></svg>