<svg id="icons" enable-background="new 0 0 64 64" height="512" viewBox="0 0 64 64" width="512" xmlns="http://www.w3.org/2000/svg"><path d="m60.33 50.5-2.66-4-4.67-7h-42l-2.67 4-7.33 11h8.85 44.3 8.85z" fill="#a0d468"/><path d="m29.9 44.5c-1.2-1.221-2.801-2.939-4.471-5-4.029-4.99-8.429-12.04-8.429-19 0-8.28 6.71-15 15-15s15 6.72 15 15c0 6.96-4.4 14.01-8.43 19-1.67 2.061-3.271 3.779-4.471 5h-.01c-1.26 1.27-2.09 2-2.09 2s-.829-.73-2.099-2z" fill="#656d78"/><path d="m60.33 50.5h-5.99-.01l-4-4h7.34z" fill="#8cc152"/><path d="m38.1 48.5 4.33-4 5.44 9h-23.74l-4-4z" fill="#8cc152"/><g fill="#e6e9ed"><path d="m60.33 50.5 2.67 4h-8.85l-1.91-4z"/><path d="m32 46.5s.83-.73 2.09-2h.01 8.33l1.44 5h-23.74l1.44-5h8.33c1.27 1.27 2.1 2 2.1 2z"/><path d="m15.09 43.5-5.24 11h-8.85l7.33-11z"/></g><path d="m19.09 47.5-3.335 7h-5.905l5.24-11z" fill="#8cc152"/><path d="m63 54.5v4h-62v-4h8.85 44.3z" fill="#81b53e"/><path d="m57.67 46.5h-7.33-.01l-3.33-7h6z" fill="#e6e9ed"/><path d="m34.5 27.505 1 3.991h-7.001l1-3.991z" fill="#ccd1d9"/><path d="m34 27.505h-4-6c-.54 0-1-.45-1-1v-10c0-.55.46-1 1-1h16c.55 0 1 .45 1 1v10c0 .55-.45 1-1 1z" fill="#5d9cec"/><path d="m36 32.497h-8c-.553 0-1-.447-1-1s.447-1 1-1h8c.553 0 1 .447 1 1s-.447 1-1 1z" fill="#e6e9ed"/><path d="m39.999 14.505h-15.998c-1.103 0-2 .897-2 2v9.998c0 1.103.897 2 2 2h15.998c1.103 0 2-.897 2-2v-9.998c0-1.103-.897-2-2-2zm-.004 11.998h-15.994v-9.998h15.998z" fill="#e6e9ed"/></svg>