<svg id="icons" enable-background="new 0 0 64 64" height="512" viewBox="0 0 64 64" width="512" xmlns="http://www.w3.org/2000/svg"><path d="m62.995 7.506h-61.99v51.988h62v-51.988z" fill="#e6e9ed"/><path d="m5.015 11.525h54v25.98h-54z" fill="#656d78"/><path d="m62.995 7.506h-61.99-.01v-2c0-1.111.89-2 2-2h58c1.1 0 2 .889 2 2z" fill="#ccd1d9"/><path d="m52.995 40.996h-2c-1.379 0-2.5 1.121-2.5 2.5v3.99l.02.318.015.008c.16 1.775 1.657 3.174 3.476 3.174 1.925 0 3.49-1.566 3.49-3.5v-3.99c-.001-1.379-1.122-2.5-2.501-2.5z" fill="#ed5565"/><path d="m12.995 40.996h-2c-1.379 0-2.5 1.121-2.5 2.5v3.99l.02.318.015.008c.16 1.775 1.657 3.174 3.476 3.174 1.925 0 3.49-1.566 3.49-3.5v-3.99c-.001-1.379-1.122-2.5-2.501-2.5z" fill="#ed5565"/><path d="m21.506 30.506 1 2.99h-7.001l1-2.99z" fill="#ccd1d9"/><path d="m21.005 29.506h-4-6c-.55 0-1-.451-1-1v-10c0-.551.45-1 1-1h16c.55 0 1 .449 1 1v10c0 .549-.45 1-1 1z" fill="#5d9cec"/><path d="m4.026 6.504c-.553 0-1.005-.447-1.005-1s.442-1 .994-1h.011c.552 0 1 .447 1 1s-.448 1-1 1z" fill="#e6e9ed"/><path d="m7.026 6.504c-.553 0-1.005-.447-1.005-1s.442-1 .994-1h.011c.552 0 1 .447 1 1s-.448 1-1 1z" fill="#e6e9ed"/><path d="m10.026 6.504c-.553 0-1.005-.447-1.005-1s.442-1 .994-1h.011c.552 0 1 .447 1 1s-.448 1-1 1z" fill="#e6e9ed"/><path d="m19.016 54.516h-12.995c-.553 0-1-.447-1-1s.447-1 1-1h12.994c.553 0 1 .447 1 1s-.447 1-.999 1z" fill="#ccd1d9"/><path d="m58.014 54.516h-12.994c-.553 0-1-.447-1-1s.447-1 1-1h12.994c.553 0 1 .447 1 1s-.448 1-1 1z" fill="#ccd1d9"/><path d="m38.502 54.516h-12.994c-.553 0-1-.447-1-1s.447-1 1-1h12.994c.553 0 1 .447 1 1s-.447 1-1 1z" fill="#ccd1d9"/><path d="m35.52 57.516h-7.031c-.553 0-1-.447-1-1s.447-1 1-1h7.031c.553 0 1 .447 1 1s-.448 1-1 1z" fill="#ccd1d9"/><path d="m55.02 57.516h-7.006c-.553 0-1-.447-1-1s.447-1 1-1h7.006c.553 0 1 .447 1 1s-.448 1-1 1z" fill="#ccd1d9"/><path d="m16.02 57.516h-6.999c-.553 0-1-.447-1-1s.447-1 1-1h6.998c.553 0 1 .447 1 1s-.447 1-.999 1z" fill="#ccd1d9"/><path d="m61.999 60.494h-59.994c-.553 0-1-.447-1-1s.447-1 1-1h59.994c.553 0 1 .447 1 1s-.447 1-1 1z" fill="#e6e9ed"/><path d="m59.02 38.506h-54c-.553 0-1-.447-1-1v-25.986c0-.553.447-1 1-1h54c.553 0 1 .447 1 1v25.986c0 .553-.448 1-1 1zm-53-2h52v-23.986h-52z" fill="#656d78"/><g fill="#545c66"><path d="m54.008 19.506h-19.998c-.553 0-1-.447-1-1s.447-1 1-1h19.998c.553 0 1 .447 1 1s-.447 1-1 1z"/><path d="m54.008 22.514h-19.998c-.553 0-1-.447-1-1s.447-1 1-1h19.998c.553 0 1 .447 1 1s-.447 1-1 1z"/><path d="m44.008 25.521h-9.998c-.553 0-1-.447-1-1s.447-1 1-1h9.998c.553 0 1 .447 1 1s-.447 1-1 1z"/><path d="m40.004 30.514h-5.992c-.553 0-1-.447-1-1s.447-1 1-1h5.992c.553 0 1 .447 1 1s-.447 1-1 1z"/><path d="m43.998 29.514h-1.004c-.553 0-1-.447-1-1s.447-1 1-1h1.004c.553 0 1 .447 1 1s-.447 1-1 1z"/><path d="m43.999 31.514c-.366 0-.719-.201-.895-.551l-1.004-2c-.248-.494-.049-1.094.445-1.342.493-.248 1.094-.049 1.342.445l1.004 2c.248.492.049 1.094-.445 1.342-.143.072-.297.106-.447.106z"/><path d="m43.998 31.514h-1c-.553 0-1-.447-1-1s.447-1 1-1h1c.553 0 1 .447 1 1s-.447 1-1 1z"/></g><path d="m27.007 16.504h-15.998c-1.103 0-2 .896-2 2v9.998c0 1.102.897 2 2 2h15.998c1.103 0 2-.898 2-2v-9.998c0-1.104-.898-2-2-2zm-.004 11.998h-15.994v-9.998h15.998z" fill="#e6e9ed"/><path d="m23.008 34.496h-8c-.553 0-1-.447-1-1s.447-1 1-1h8c.553 0 1 .447 1 1s-.447 1-1 1z" fill="#e6e9ed"/><path d="m12.011 45.498c-.553 0-1-.447-1-1v-.998c0-.553.447-1 1-1s1 .447 1 1v.998c0 .553-.448 1-1 1z" fill="#e6e9ed"/><path d="m52.01 45.498c-.553 0-1-.447-1-1v-.998c0-.553.447-1 1-1s1 .447 1 1v.998c0 .553-.447 1-1 1z" fill="#e6e9ed"/><path d="m31.5 44.994c-.553 0-1-.447-1-1v-1.998c0-.553.447-1 1-1s1 .447 1 1v1.998c0 .553-.447 1-1 1z" fill="#434a54"/><path d="m37.995 43.494h-13c-.276 0-.5.223-.5.5v6c0 .275.224.5.5.5h13c.276 0 .5-.225.5-.5v-6c0-.277-.224-.5-.5-.5z" fill="#545c66"/><path d="m28.53 47.994c-.553 0-1.005-.447-1.005-1s.442-1 .994-1h.011c.552 0 1 .447 1 1s-.448 1-1 1z" fill="#656d78"/><path d="m31.53 47.994c-.553 0-1.005-.447-1.005-1s.442-1 .994-1h.011c.552 0 1 .447 1 1s-.448 1-1 1z" fill="#656d78"/><path d="m34.53 47.994c-.553 0-1.005-.447-1.005-1s.442-1 .994-1h.011c.552 0 1 .447 1 1s-.448 1-1 1z" fill="#656d78"/></svg>