<svg id="icons" enable-background="new 0 0 64 64" height="512" viewBox="0 0 64 64" width="512" xmlns="http://www.w3.org/2000/svg"><path d="m32 60.005c8.28 0 15-6.72 15-15 0-8.279-6.72-15-15-15-8.29 0-15 6.721-15 15 0 8.28 6.71 15 15 15zm14.99-24.95c1.91 2.851 3.01 6.271 3.01 9.95 0 9.94-8.06 18-18 18s-18-8.06-18-18c0-3.68 1.1-7.1 3.01-9.95 3.21-4.85 8.73-8.05 14.99-8.05s11.78 3.2 14.99 8.05z" fill="#545c66"/><path d="m50 19.025v25.979c0-3.68-1.1-7.1-3.01-9.95h.01v-16.029z" fill="#434a54"/><path d="m17 35.055h.01c-1.91 2.85-3.01 6.27-3.01 9.95v-25.98h3z" fill="#434a54"/><path d="m18.005.997c.55-.001 1 .448 1 .998v7.013c0 .55-.45.999-1 .998l-5-.007c-.55-.001-1-.452-1-1.002v-6.991c0-.55.45-1.001 1-1.002z" fill="#545c66"/><path d="m14.005 19.025c-.55 0-1-.45-1-1v-.018c0-.55.45-1 1-1h3c.55 0 1 .45 1 1v.018c0 .55-.45 1-1 1z" fill="#545c66"/><path d="m19.005 8.006c.55 0 1 .45 1 1v7.002c0 .55-.45 1-1 1h-7c-.55 0-1-.45-1-1v-7.002c0-.55.45-1 1-1h2.5 2z" fill="#656d78"/><path d="m15.006.997v6.998l.001.011h.998l.001-.011v-6.998-.002h-1z" fill="#434a54"/><g fill="#545c66"><path d="m13.005 17.008h5v1h-5z"/><path d="m50.995.997c.55-.001 1 .448 1 .998v7.013c0 .55-.45.999-1 .998l-5-.007c-.55-.001-1-.452-1-1.002v-6.991c0-.55.45-1.001 1-1.002z"/><path d="m46.995 19.025c-.55 0-1-.45-1-1v-.018c0-.55.45-1 1-1h3c.55 0 1 .45 1 1v.018c0 .55-.45 1-1 1z"/></g><path d="m51.995 8.006c.55 0 1 .45 1 1v7.002c0 .55-.45 1-1 1h-7c-.55 0-1-.45-1-1v-7.002c0-.55.45-1 1-1h2.5 2z" fill="#656d78"/><path d="m47.996.997v6.998l.001.011h.998l.001-.011v-6.998-.002h-1z" fill="#434a54"/><path d="m45.995 17.008h5v1h-5z" fill="#545c66"/></svg>