<svg id="icons" enable-background="new 0 0 64 64" height="512" viewBox="0 0 64 64" width="512" xmlns="http://www.w3.org/2000/svg"><path d="m50.995 6.999v-4h3v12.001h-10v-12.001h3v4h2z" fill="#ccd1d9"/><path d="m17.005 6.999v-4h3v12.001h-10v-12.001h3v4h2z" fill="#ccd1d9"/><path d="m46.995 32.34c2.521 3.22 4.01 7.26 4.01 11.66 0 10.49-8.51 19-19 19-10.5 0-19-8.51-19-19 0-4.4 1.49-8.44 3.99-11.66 3.48-4.47 8.91-7.34 15.01-7.34 6.091 0 11.521 2.87 14.99 7.33zm.01 11.66c0-8.29-6.72-15-15-15-8.279 0-15 6.71-15 15 0 8.279 6.721 15 15 15 8.28 0 15-6.721 15-15z" fill="#5d9cec"/><path d="m53.995 15-3.001 4h.011-4.01.001l-3.001-4z" fill="#aab2bd"/><path d="m50.995 4v4h-2-2v-4z" fill="#fff"/><path d="m51.005 19v25c0-4.4-1.489-8.44-4.01-11.66v-.01-13.33z" fill="#4a89dc"/><path d="m49.995 1h2 1c.55 0 1 .45 1 1v1c0 .55-.45 1-1 1h-1c-.55 0-1.45 0-2 0h-2c-.55 0-1.45 0-2 0h-1c-.55 0-1-.45-1-1v-1c0-.55.45-1 1-1h1 2z" fill="#aab2bd"/><path d="m16.005 1h2 1c.55 0 1 .45 1 1v1c0 .55-.45 1-1 1h-1c-.55 0-1.45 0-2 0h-2c-.55 0-1.45 0-2 0h-1c-.55 0-1-.45-1-1v-1c0-.55.45-1 1-1h1 2z" fill="#aab2bd"/><path d="m17.005 4v4h-2-2v-4z" fill="#fff"/><path d="m20.005 15-3.001 4h-.009-3.99.001l-3.001-4z" fill="#aab2bd"/><path d="m16.995 19v13.34c-2.5 3.22-3.99 7.26-3.99 11.66v-25z" fill="#4a89dc"/><path d="m15.002 12c-.553 0-1-.447-1-1v-3c0-.553.447-1 1-1s1 .447 1 1v3c0 .553-.447 1-1 1z" fill="#e6e9ed"/><path d="m16.005 1h-.003c.001.553.447.999 1 .999s.999-.446 1-.999c-.551 0-1.448 0-1.997 0z" fill="#656d78"/><path d="m12.005 1h-.003c.001.553.447.999 1 .999s.999-.446 1-.999c-.551 0-1.448 0-1.997 0z" fill="#656d78"/><path d="m48.998 12c-.553 0-1-.447-1-1v-3c0-.553.447-1 1-1s1 .447 1 1v3c0 .553-.447 1-1 1z" fill="#e6e9ed"/><path d="m12.002 8c0 .553.447 1 1 1h4c.553 0 1-.447 1-1v-4h-6zm2-3h2v2h-2z" fill="#fff"/><path d="m45.998 4v4c0 .553.447 1 1 1h4c.553 0 1-.447 1-1v-4zm4 3h-2v-2h2z" fill="#fff"/><g fill="#656d78"><path d="m47.995 1c-.548 0-1.444 0-1.995 0 .001.553.447.999 1 .999s.999-.446 1-.999z"/><path d="m51.995 1c-.549 0-1.446 0-1.997 0 .001.553.447.999 1 .999s.999-.446 1-.999z"/></g></svg>