<svg id="icons" enable-background="new 0 0 64 64" height="512" viewBox="0 0 64 64" width="512" xmlns="http://www.w3.org/2000/svg"><path d="m18.001 22v10.34c-2.5 3.21-4 7.271-4 11.66v-22z" fill="#545c66"/><path d="m48.001 32.34c2.51 3.22 4 7.26 4 11.66 0 10.49-8.51 19-19 19s-19-8.51-19-19c0-4.39 1.5-8.45 4-11.66 3.48-4.47 8.91-7.34 15-7.34s11.52 2.87 15 7.34zm0 11.66c0-8.28-6.72-15-15-15s-15 6.72-15 15 6.72 15 15 15 15-6.72 15-15z" fill="#656d78"/><path d="m52.001 44c0-4.4-1.49-8.44-4-11.66v-10.34h4z" fill="#545c66"/><path d="m20.001 1c.55 0 1 .45 1 1v10.003c0 .55-.45-.001-1-.001h-8c-.55 0-1 .551-1 .001v-10.003c0-.55.45-1 1-1z" fill="#ccd1d9"/><path d="m23.001 11.001v8.999c0 1.1-.9 2-2 2h-3-4-3c-1.1 0-2-.9-2-2v-8.999h2 10z" fill="#656d78"/><path d="m14.004 7h-.998c-.553 0-1-.447-1-1s.447-1 1-1h.998c.553 0 1 .447 1 1s-.447 1-1 1z" fill="#aab2bd"/><path d="m22.006 12.001h-12.009c-.553 0-1-.447-1-1s.447-1 1-1h12.009c.553 0 1 .447 1 1s-.447 1-1 1z" fill="#656d78"/><path d="m19.002 7h-.998c-.553 0-1-.447-1-1s.447-1 1-1h.998c.553 0 1 .447 1 1s-.447 1-1 1z" fill="#aab2bd"/><path d="m47.003 12.004c-.55 0-1-.45-1-1v-9.002c0-.55.45-1 1-1h6c.55 0 1 .45 1 1v9.002c0 .55-.45 1-1 1z" fill="#ccd1d9"/><path d="m54.003 12.003h-8.005c-.553 0-1-.447-1-1s.447-1 1-1h8.005c.553 0 1 .447 1 1s-.447 1-1 1z" fill="#656d78"/><path d="m49.004 7.002h-.998c-.553 0-1-.447-1-1s.447-1 1-1h.998c.553 0 1 .447 1 1s-.447 1-1 1z" fill="#aab2bd"/><path d="m52 7.002h-.998c-.553 0-1-.447-1-1s.447-1 1-1h.998c.553 0 1 .447 1 1s-.447 1-1 1z" fill="#aab2bd"/><path d="m55.003 11.003v8.999c0 1.1-.9 2-2 2h-1-4-1c-1.1 0-2-.9-2-2v-8.999h1 8z" fill="#656d78"/></svg>