<svg id="icons" enable-background="new 0 0 64 64" height="512" viewBox="0 0 64 64" width="512" xmlns="http://www.w3.org/2000/svg"><path d="m56.746 6.502h-4.996c-.553 0-1-.447-1-1s.447-1 1-1h4.996c.553 0 1 .447 1 1s-.447 1-1 1z" fill="#ccd1d9"/><path d="m56.746 9.501h-4.996c-.553 0-1-.447-1-1s.447-1 1-1h4.996c.553 0 1 .447 1 1s-.447 1-1 1z" fill="#ccd1d9"/><path d="m52.751 8.002v2c0 .55-.45 1-1 1h-2.992c-.55 0-1-.45-1-1v-6c0-.55.45-1 1-1h2.992c.55 0 1 .45 1 1v2z" fill="#545c66"/><path d="m47.76 17.992v-15.991c0-.553.447-1 1-1s1 .447 1 1v15.991c0 .553-.447 1-1 1s-1-.447-1-1z" fill="#656d78"/><path d="m8.259 9.998c-.55 0-1-.45-1-1v-7c0-.55.45-1 1-1h6c.55 0 1 .45 1 1v7c0 .55-.45 1-1 1z" fill="#ccd1d9"/><path d="m15.259 9.997h-8.005c-.553 0-1-.447-1-1s.447-1 1-1h8.005c.553 0 1 .447 1 1s-.447 1-1 1z" fill="#656d78"/><path d="m10.26 5.997h-.998c-.553 0-1-.447-1-1s.447-1 1-1h.998c.553 0 1 .447 1 1s-.447 1-1 1z" fill="#aab2bd"/><path d="m13.256 5.997h-.998c-.553 0-1-.447-1-1s.447-1 1-1h.998c.553 0 1 .447 1 1s-.447 1-1 1z" fill="#aab2bd"/><path d="m16.259 8.997v7.998c0 1.1-.9 2-2 2h-1-4-1c-1.1 0-2-.9-2-2v-7.998h1 8z" fill="#656d78"/><path d="m45.751 19.021v25.98c0-3.68-1.11-7.11-3.01-9.96h.01v-16.02-.029h3z" fill="#545c66"/><path d="m48.76 11.002v7.99h-3.009-3-2c-1.1 0-2-.9-2-2v-13.99c0-1.1.9-2 2-2h8.009v2z" fill="#656d78"/><path d="m42.751 45.002c0-8.29-6.71-15-15-15-8.28 0-15 6.71-15 15 0 8.28 6.72 15 15 15 8.29 0 15-6.72 15-15zm3 0c0 9.94-8.06 18-18 18s-18-8.06-18-18c0-3.68 1.11-7.11 3.01-9.96 3.221-4.85 8.73-8.04 14.99-8.04s11.77 3.19 14.99 8.04c1.9 2.85 3.01 6.28 3.01 9.96z" fill="#656d78"/><path d="m12.751 35.042h.01c-1.899 2.85-3.01 6.28-3.01 9.96v-25.99-.02h3v.02z" fill="#545c66"/></svg>