<svg id="icons" enable-background="new 0 0 64 64" height="512" viewBox="0 0 64 64" width="512" xmlns="http://www.w3.org/2000/svg"><path d="m16.984 20v12.34c-2.5 3.21-4 7.271-4 11.66v-24z" fill="#da4453"/><path d="m50.984 20v24c0-4.4-1.488-8.44-4-11.66v-12.34z" fill="#da4453"/><path d="m46.984 32.34c2.512 3.22 4 7.26 4 11.66 0 10.49-8.51 19-19 19-10.488 0-19-8.51-19-19 0-4.39 1.5-8.45 4-11.66 3.48-4.47 8.91-7.34 15-7.34s11.522 2.87 15 7.34zm0 11.66c0-8.28-6.719-15-15-15-8.279 0-15 6.72-15 15s6.721 15 15 15c8.282 0 15-6.72 15-15z" fill="#ed5565"/><path d="m22.016 17.001c0 .55-.451 1-1 1h-12c-.551 0-1-.45-1-1v-15.001c0-.55.449-1 1-1h12c.549 0 1 .45 1 1z" fill="#656d78"/><path d="m12.016 1h6v1.999h-6z" fill="#ccd1d9"/><path d="m17.016 2.999c.549 0 1 .45 1 1v5.001c0 .55-.451 1-1 1h-4c-.551 0-1-.45-1-1v-5.001c0-.55.449-1 1-1z" fill="#e6e9ed"/><path d="m19.016 18.001c.549 0 1 .45 1 1 0 .549-.451.999-1 .999h-1.031c-.549 0-1.449 0-2 0h-2c-.549 0-1.449 0-2 0h-.969c-.551 0-1-.45-1-.999 0-.55.449-1 1-1z" fill="#545c66"/><path d="m10.016 18.001h10v1h-10z" fill="#545c66"/><path d="m12.016 2.999h6v1h-6z" fill="#e6e9ed"/><path d="m55.984 17.001c0 .55-.449 1-1 1h-12c-.549 0-1-.45-1-1v-15.001c0-.55.451-1 1-1h12c.551 0 1 .45 1 1z" fill="#656d78"/><path d="m45.984 1h6v1.999h-6z" fill="#ccd1d9"/><path d="m50.984 2.999c.551 0 1 .45 1 1v5.001c0 .55-.449 1-1 1h-4c-.549 0-1-.45-1-1v-5.001c0-.55.451-1 1-1z" fill="#e6e9ed"/><path d="m52.984 18.001c.551 0 1 .45 1 1 0 .549-.449.999-1 .999h-1.029c-.551 0-1.451 0-2 0h-2c-.551 0-1.451 0-2 0h-.971c-.549 0-1-.45-1-.999 0-.55.451-1 1-1z" fill="#545c66"/><path d="m43.984 18.001h10v1h-10z" fill="#545c66"/><path d="m45.984 2.999h6v1h-6z" fill="#e6e9ed"/></svg>