<svg id="icons" enable-background="new 0 0 64 64" height="512" viewBox="0 0 64 64" width="512" xmlns="http://www.w3.org/2000/svg"><path d="m53.498 29.998c-.553 0-1-.447-1-1v-3c0-.553.447-1 1-1s1 .447 1 1v3c0 .553-.447 1-1 1z" fill="#ccd1d9"/><path d="m53.499 62c-.553 0-1-.447-1-1v-4c0-.553.447-1 1-1s1 .447 1 1v4c0 .553-.447 1-1 1z" fill="#656d78"/><g fill="#d3374e"><path d="m55 54v3h-1.5-1.5v-3z"/><path d="m54.999 58h-3.001c-.553 0-1-.447-1-1v-3.002c0-.553.447-1 1-1s1 .447 1 1v2.002h1.001v-2.002c0-.553.447-1 1-1s1 .447 1 1v3.002c0 .553-.447 1-1 1z"/><path d="m23 6c-.553 0-1-.447-1-1v-2c0-.553.447-1 1-1s1 .447 1 1v2c0 .553-.447 1-1 1z"/></g><path d="m53.5 29h-1.5v10 3h3v-3-10z" fill="#e6e9ed"/><path d="m56 42v12h-1-3-1v-12h1 3z" fill="#da4453"/><path d="m38 20.66c1.449.74 2 1.34 2 1.34h-2-30-2s.55-.6 2-1.34c2.279-1.16 6.82-2.66 15-2.66s12.72 1.5 15 2.66z" fill="#656d78"/><path d="m23 18c-8.18 0-12.721 1.5-15 2.66v-2.66c0-8.279 6.72-15 15-15 8.29 0 15 6.721 15 15v2.66c-2.28-1.16-6.82-2.66-15-2.66z" fill="#ed5565"/><path d="m23 3c-.506 0-1.006.027-1.5.076 7.584.754 13.498 7.151 13.498 14.924v1.482c1.271.387 2.259.801 3.002 1.178v-2.66c0-8.279-6.71-15-15-15z" fill="#da4453"/><path d="m38 22v4c0 5.76-3.24 10.76-8 13.27-2.09 1.101-4.471 1.73-7 1.73-2.53 0-4.91-.629-7-1.73-4.76-2.51-8-7.51-8-13.27v-4z" fill="#eac6bb"/><path d="m34.998 22v4c0 5.76-3.24 10.76-8 13.27-1.67.881-3.529 1.453-5.499 1.65.494.049.993.08 1.501.08 2.529 0 4.91-.629 7-1.73 4.76-2.51 8-7.51 8-13.27v-4z" fill="#d3b1a9"/><path d="m30 39.27v5.73l-4 2-3-1-3 1-4-1.99v-5.74c2.09 1.102 4.47 1.73 7 1.73 2.529 0 4.91-.629 7-1.73z" fill="#ffce54"/><path d="m45 53.01v7.99h-44v-7.99c0-4.43 3.58-8.01 8-8.01l7 .01 4 1.99 3-1 3 1 4-2 7 .01c4.42 0 8 3.57 8 8z" fill="#ed5565"/><path d="m37 45.01-3.002-.004v.004c4.42 0 8 3.57 8 8v7.99h3.002v-7.99c0-4.43-3.58-8-8-8z" fill="#da4453"/><path d="" style="fill:none;stroke:#000;stroke-width:2;stroke-linecap:round;stroke-linejoin:round;stroke-miterlimit:10"/><path d="" style="fill:none;stroke:#000;stroke-width:2;stroke-linecap:round;stroke-linejoin:round;stroke-miterlimit:10"/><path d="m23.034 51c-.553 0-1.005-.447-1.005-1s.442-1 .994-1h.011c.552 0 1 .447 1 1s-.448 1-1 1z" fill="#da4453"/><path d="m23.034 55c-.553 0-1.005-.447-1.005-1s.442-1 .994-1h.011c.552 0 1 .447 1 1s-.448 1-1 1z" fill="#da4453"/><path d="m23.034 59c-.553 0-1.005-.447-1.005-1s.442-1 .994-1h.011c.552 0 1 .447 1 1s-.448 1-1 1z" fill="#da4453"/><path d="m21 11.998c-.209 0-.419-.064-.599-.199-.442-.332-.532-.959-.2-1.4l3-4c.331-.441.958-.531 1.399-.199.442.33.532.957.2 1.398l-3 4c-.196.263-.495.4-.8.4z" fill="#ffce54"/><path d="m22.001 15.998c-.209 0-.419-.064-.599-.199-.442-.332-.532-.959-.2-1.4l3-4c.331-.443.958-.531 1.399-.199.442.33.532.957.2 1.398l-3 4c-.196.263-.495.4-.8.4z" fill="#ffce54"/><path d="m25.001 11.998h-4c-.553 0-1-.447-1-1s.447-1 1-1h4c.553 0 1 .447 1 1s-.447 1-1 1z" fill="#ffce54"/><path d="m55.999 54.998h-5c-.553 0-1-.447-1-1v-12c0-.553.447-1 1-1s1 .447 1 1v11h3v-11c0-.553.447-1 1-1s1 .447 1 1v12c0 .553-.447 1-1 1z" fill="#da4453"/><path d="m54.999 43.004c-.553 0-1-.447-1-1v-12.006h-1.001v12.006c0 .553-.447 1-1 1s-1-.447-1-1v-13.006c0-.553.447-1 1-1h3.001c.553 0 1 .447 1 1v13.006c0 .553-.447 1-1 1z" fill="#e6e9ed"/><path d="m56.998 42.998h-7c-.553 0-1-.447-1-1s.447-1 1-1h7c.553 0 1 .447 1 1s-.447 1-1 1z" fill="#ed5565"/><path d="m61 29.998c-.553 0-1-.447-1-1v-3.998c0-.553.447-1 1-1s1 .447 1 1v3.998c0 .553-.447 1-1 1z" fill="#ac92ec"/><path d="m62 28.002h-2c-.553 0-1-.447-1-1s.447-1 1-1h2c.553 0 1 .447 1 1s-.447 1-1 1z" fill="#ac92ec"/><path d="m46.028 36.006c-.553 0-1.005-.447-1.005-1s.442-1 .994-1h.011c.552 0 1 .447 1 1s-.448 1-1 1z" fill="#5d9cec"/><path d="m60.042 39.008c-.553 0-1.005-.447-1.005-1s.442-1 .994-1h.011c.552 0 1 .447 1 1s-.448 1-1 1z" fill="#ffce54"/><path d="m53.503 40.008c-.553 0-1.005-.447-1.005-1s.442-1 .994-1h.011c.552 0 1 .447 1 1s-.448 1-1 1z" fill="#ccd1d9"/><path d="m48.03 24.994c-.553 0-1.005-.447-1.005-1s.442-1 .994-1h.011c.552 0 1 .447 1 1s-.448 1-1 1z" fill="#ffce54"/></svg>