<svg id="icons" enable-background="new 0 0 64 64" height="512" viewBox="0 0 64 64" width="512" xmlns="http://www.w3.org/2000/svg"><path d="m32.994 5.5v4h-3v-4l1.5-2z" fill="#ccd1d9"/><path d="m33.994 9.5v22.02h-5v-22.02h1 3z" fill="#e6e9ed"/><path d="m36.993 35.52h-10.997c-.553 0-1-.447-1-1v-2.998c0-.553.447-1 1-1h10.997c.553 0 1 .447 1 1v2.998c0 .552-.447 1-1 1zm-9.997-2h8.997v-.998h-8.997z" fill="#da4453"/><path d="m36.994 31.52v3h-11v-3h3 5z" fill="#da4453"/><path d="m38.994 34.52v4c-1.66 0-3 1.34-3 3v14.99.01c-.01 1.66-1.35 2.99-3 2.99h-3c-1.66 0-2.99-1.33-3-2.99v-.01-14.99c0-1.66-1.34-3-3-3v-4h2 11z" fill="#ed5565"/><path d="m29.994 59.51h3v3.99h-3z" fill="#656d78"/><path d="m31.524 29.5c-.553 0-1.005-.447-1.005-1s.442-1 .994-1h.011c.552 0 1 .447 1 1s-.448 1-1 1z" fill="#ccd1d9"/><g fill="#ed5565"><path d="m29.997 60.518c-2.206 0-4-1.793-4-4 0-.553.447-1 1-1s1 .447 1 1c0 1.104.897 2 2 2 .553 0 1 .447 1 1s-.447 1-1 1z"/><path d="m32.993 60.518c-.553 0-1-.447-1-1s.447-1 1-1c1.103 0 2-.896 2-2 0-.553.447-1 1-1s1 .447 1 1c0 2.207-1.794 4-4 4z"/><path d="m32.995 60.518h-3c-.553 0-1-.447-1-1s.447-1 1-1h3c.553 0 1 .447 1 1s-.447 1-1 1z"/><path d="m26.997 57.52c-.553 0-1-.447-1-1v-14.997c0-.553.447-1 1-1s1 .447 1 1v14.997c0 .552-.447 1-1 1z"/><path d="m35.993 57.52c-.553 0-1-.447-1-1v-14.997c0-.553.447-1 1-1s1 .447 1 1v14.997c0 .552-.447 1-1 1z"/><path d="m35.993 42.523c-.553 0-1-.447-1-1 0-2.205 1.794-4 4-4 .553 0 1 .447 1 1s-.447 1-1 1c-1.103 0-2 .898-2 2 0 .553-.447 1-1 1z"/><path d="m26.997 42.523c-.553 0-1-.447-1-1 0-1.102-.897-2-2-2-.553 0-1-.447-1-1s.447-1 1-1c2.206 0 4 1.795 4 4 0 .553-.447 1-1 1z"/><path d="m38.993 35.523h-14.996c-.553 0-1-.447-1-1s.447-1 1-1h14.996c.553 0 1 .447 1 1s-.447 1-1 1z"/><path d="m23.997 39.523c-.553 0-1-.447-1-1v-4.003c0-.553.447-1 1-1s1 .447 1 1v4.004c0 .552-.447.999-1 .999z"/><path d="m38.993 39.523c-.553 0-1-.447-1-1v-4.003c0-.553.447-1 1-1s1 .447 1 1v4.004c0 .552-.447.999-1 .999z"/></g><path d="m43.003 6.498c-.553 0-1-.447-1-1v-3.998c0-.553.447-1 1-1s1 .447 1 1v3.998c0 .553-.447 1-1 1z" fill="#ac92ec"/><path d="m44.003 4.504h-2c-.553 0-1-.447-1-1s.447-1 1-1h2c.553 0 1 .447 1 1s-.447 1-1 1z" fill="#ac92ec"/><path d="m20.997 24.506c-.553 0-1-.447-1-1v-3.998c0-.553.447-1 1-1s1 .447 1 1v3.998c0 .553-.447 1-1 1z" fill="#5d9cec"/><path d="m21.997 22.51h-2c-.553 0-1-.447-1-1s.447-1 1-1h2c.553 0 1 .447 1 1s-.447 1-1 1z" fill="#5d9cec"/><path d="m42.025 21.5c-.553 0-1.005-.447-1.005-1s.442-1 .994-1h.011c.552 0 1 .447 1 1s-.448 1-1 1z" fill="#ffce54"/><path d="m20.023 5.479c-.553 0-1.005-.447-1.005-1s.442-1 .994-1h.011c.552 0 1 .447 1 1s-.448 1-1 1z" fill="#ffce54"/></svg>