<svg id="icons" enable-background="new 0 0 64 64" height="512" viewBox="0 0 64 64" width="512" xmlns="http://www.w3.org/2000/svg"><path d="m42 64c-.553 0-1-.447-1-1v-13.992c0-.553.447-1 1-1s1 .447 1 1v13.992c0 .553-.447 1-1 1z" fill="#656d78"/><path d="m22.002 64c-.553 0-1-.447-1-1v-13.992c0-.553.447-1 1-1s1 .447 1 1v13.992c0 .553-.447 1-1 1z" fill="#656d78"/><path d="m42 14.99h4c2.209 0 4 1.79 4 4s-1.791 4-4 4h-8c-2.211 0-4-1.79-4-4s1.789-4 4-4z" fill="#ccd1d9"/><path d="m46 22.99h-8c-2.211 0-4-1.79-4-4v3.99 6.01 6.01 6 4.01c0 2.2 1.789 4 4 4h4 4c2.209 0 4-1.8 4-4v-4.01-6-6.01-6.01-3.99c0 2.21-1.791 4-4 4z" fill="#e6e9ed"/><path d="m26 22.99h-8c-2.211 0-4-1.79-4-4v3.99 6.01 6.01 6 4.01c0 2.2 1.789 4 4 4h4 4c2.209 0 4-1.8 4-4v-4.01-6-6.01-6.01-3.99c0 2.21-1.791 4-4 4z" fill="#e6e9ed"/><path d="m26 24.992h-8c-2.211 0-4-1.79-4-4v2.002c0 2.21 1.789 4 4 4h8c2.209 0 4-1.79 4-4v-2.002c0 2.21-1.791 4-4 4z" fill="#ffce54"/><path d="m26 45.001h-8c-2.211 0-4-1.79-4-4v2.002c0 2.21 1.789 4 4 4h8c2.209 0 4-1.79 4-4v-2.002c0 2.21-1.791 4-4 4z" fill="#ffce54"/><path d="m26 38.994h-8c-2.211 0-4-1.79-4-4v2.002c0 2.21 1.789 4 4 4h8c2.209 0 4-1.79 4-4v-2.002c0 2.21-1.791 4-4 4z" fill="#ed5565"/><path d="m26 30.986h-8c-2.211 0-4-1.79-4-4v2.002c0 2.21 1.789 4 4 4h8c2.209 0 4-1.79 4-4v-2.002c0 2.21-1.791 4-4 4z" fill="#ed5565"/><path d="m46 24.992h-8c-2.209 0-4-1.79-4-4v2.002c0 2.21 1.791 4 4 4h8c2.211 0 4-1.79 4-4v-2.002c0 2.21-1.789 4-4 4z" fill="#ffce54"/><path d="m46 45.001h-8c-2.209 0-4-1.79-4-4v2.002c0 2.21 1.791 4 4 4h8c2.211 0 4-1.79 4-4v-2.002c0 2.21-1.789 4-4 4z" fill="#ffce54"/><path d="m46 38.994h-8c-2.209 0-4-1.79-4-4v2.002c0 2.21 1.791 4 4 4h8c2.211 0 4-1.79 4-4v-2.002c0 2.21-1.789 4-4 4z" fill="#ed5565"/><path d="m46 30.986h-8c-2.209 0-4-1.79-4-4v2.002c0 2.21 1.791 4 4 4h8c2.211 0 4-1.79 4-4v-2.002c0 2.21-1.789 4-4 4z" fill="#ed5565"/><path d="m22 14.99h4c2.209 0 4 1.79 4 4s-1.791 4-4 4h-8c-2.211 0-4-1.79-4-4s1.789-4 4-4z" fill="#ccd1d9"/><g fill="#656d78"><path d="m22.002 19.994c-.553 0-1-.447-1-1v-17.994c0-.553.447-1 1-1s1 .447 1 1v17.994c0 .553-.447 1-1 1z"/><path d="m42 19.994c-.553 0-1-.447-1-1v-17.994c0-.553.447-1 1-1s1 .447 1 1v17.994c0 .553-.447 1-1 1z"/></g></svg>