<svg id="icons" enable-background="new 0 0 64 64" height="512" viewBox="0 0 64 64" width="512" xmlns="http://www.w3.org/2000/svg"><g fill="#e6e9ed"><path d="m26.996 26.75h-3c-.276 0-.5.224-.5.5v36c0 .276.224.5.5.5h3c.276 0 .5-.224.5-.5v-36c0-.276-.224-.5-.5-.5z"/><path d="m14.988 26.75h-3c-.276 0-.5.224-.5.5v36c0 .276.224.5.5.5h3c.276 0 .5-.224.5-.5v-36c0-.276-.223-.5-.5-.5z"/><path d="m20.987 26.75h-3c-.276 0-.5.224-.5.5v36c0 .276.224.5.5.5h3c.276 0 .5-.224.5-.5v-36c0-.276-.223-.5-.5-.5z"/></g><path d="m29.987 6.25v21h-1.99-3-4.01-3-4-3-2v-21z" fill="#656d78"/><path d="m8.987 1.25h21v5h-21z" fill="#545c66"/><path d="m29.986 7.247h-20.997c-.553 0-1-.447-1-1v-4.997c0-.553.447-1 1-1h20.997c.553 0 1 .447 1 1v4.997c0 .553-.447 1-1 1zm-19.997-2h18.997v-2.997h-18.997z" fill="#545c66"/><path d="m29.986 28.25h-20.997c-.553 0-1-.447-1-1v-21.003c0-.553.447-1 1-1h20.997c.553 0 1 .447 1 1v21.003c0 .553-.447 1-1 1zm-19.997-2h18.997v-19.003h-18.997z" fill="#656d78"/><path d="m24.99 16.251h-11.002c-.553 0-1-.447-1-1s.447-1 1-1h11.002c.553 0 1 .447 1 1s-.447 1-1 1z" fill="#545c66"/><path d="m21.989 19.251h-5c-.553 0-1-.447-1-1s.447-1 1-1h5c.553 0 1 .447 1 1s-.447 1-1 1z" fill="#545c66"/><path d="m52.021 26.75h-3c-.276 0-.5.224-.5.5v36c0 .276.224.5.5.5h3c.276 0 .5-.224.5-.5v-36c0-.276-.224-.5-.5-.5z" fill="#e6e9ed"/><path d="m40.013 26.75h-3c-.276 0-.5.224-.5.5v36c0 .276.224.5.5.5h3c.276 0 .5-.224.5-.5v-36c0-.276-.224-.5-.5-.5z" fill="#e6e9ed"/><path d="m46.012 26.75h-3c-.276 0-.5.224-.5.5v36c0 .276.224.5.5.5h3c.276 0 .5-.224.5-.5v-36c0-.276-.224-.5-.5-.5z" fill="#e6e9ed"/><path d="m55.012 6.25v21h-1.991-3-4.009-3-4-3-2v-21z" fill="#656d78"/><path d="m34.012 1.25h21v5h-21z" fill="#545c66"/><path d="m55.011 7.247h-20.997c-.553 0-1-.447-1-1v-4.997c0-.553.447-1 1-1h20.997c.553 0 1 .447 1 1v4.997c0 .553-.448 1-1 1zm-19.997-2h18.997v-2.997h-18.997z" fill="#545c66"/><path d="m55.011 28.25h-20.997c-.553 0-1-.447-1-1v-21.003c0-.553.447-1 1-1h20.997c.553 0 1 .447 1 1v21.003c0 .553-.448 1-1 1zm-19.997-2h18.997v-19.003h-18.997z" fill="#656d78"/><path d="m50.015 16.251h-11.002c-.553 0-1-.447-1-1s.447-1 1-1h11.002c.553 0 1 .447 1 1s-.448 1-1 1z" fill="#545c66"/><path d="m47.014 19.251h-5c-.553 0-1-.447-1-1s.447-1 1-1h5c.553 0 1 .447 1 1s-.448 1-1 1z" fill="#545c66"/></svg>