<svg id="icons" enable-background="new 0 0 64 64" height="512" viewBox="0 0 64 64" width="512" xmlns="http://www.w3.org/2000/svg"><path d="m25.995.995c2.21 0 4 1.79 4 4s-1.79 4-4 4h-10c-2.21 0-4-1.79-4-4s1.79-4 4-4h10z" fill="#ccd1d9"/><path d="m48.005.995c2.21 0 4 1.79 4 4s-1.79 4-4 4h-10c-2.21 0-4-1.79-4-4s1.79-4 4-4h10z" fill="#ccd1d9"/><path d="m52.005 4.995v10.02c0 2.2-1.79 4-4 4h-8-2c-2.21 0-4-1.8-4-4v-10.02c0 2.21 1.79 4 4 4h10c2.21 0 4-1.79 4-4z" fill="#e6e9ed"/><path d="m48.005 52.995c2.21 0 4-1.79 4-4v10.01c0 2.21-1.79 4-4 4h-10c-2.21 0-4-1.79-4-4v-10.01c0 2.21 1.79 4 4 4h8z" fill="#e6e9ed"/><path d="m48.005 19.015h-8-2c-2.21 0-4-1.8-4-4v33.98c0 2.21 1.79 4 4 4h8 2c2.21 0 4-1.79 4-4v-33.98c0 2.2-1.79 4-4 4z" fill="#5d9cec"/><path d="m25.995 19.015h-2-8c-2.21 0-4-1.8-4-4v33.98c0 2.21 1.79 4 4 4h2 8c2.21 0 4-1.79 4-4v-33.98c0 2.2-1.79 4-4 4z" fill="#5d9cec"/><path d="m17.995 52.995h8c2.21 0 4-1.79 4-4v10.01c0 2.21-1.79 4-4 4h-10c-2.21 0-4-1.79-4-4v-10.01c0 2.21 1.79 4 4 4z" fill="#e6e9ed"/><path d="m29.995 4.995v10.02c0 2.2-1.79 4-4 4h-2-8c-2.21 0-4-1.8-4-4v-10.02c0 2.21 1.79 4 4 4h10c2.21 0 4-1.79 4-4z" fill="#e6e9ed"/><path d="m22.809 19.015-5.662 33.98h.848 1.179l5.661-33.98h-.84z" fill="#4a89dc"/><path d="m24.991 15.004h-8c-.553 0-1-.447-1-1s.447-1 1-1h8c.553 0 1 .447 1 1s-.447 1-1 1z" fill="#ccd1d9"/><path d="m24.991 59.002h-8c-.553 0-1-.447-1-1s.447-1 1-1h8c.553 0 1 .447 1 1s-.447 1-1 1z" fill="#ccd1d9"/><path d="m39.16 19.015 5.66 33.98h1.185.843l-5.66-33.98h-1.183z" fill="#4a89dc"/><g fill="#ccd1d9"><path d="m47.004 15.004h-8c-.553 0-1-.447-1-1s.447-1 1-1h8c.553 0 1 .447 1 1s-.447 1-1 1z"/><path d="m47.004 59.002h-8c-.553 0-1-.447-1-1s.447-1 1-1h8c.553 0 1 .447 1 1s-.447 1-1 1z"/></g></svg>