<svg id="icons" enable-background="new 0 0 64 64" height="512" viewBox="0 0 64 64" width="512" xmlns="http://www.w3.org/2000/svg"><path d="m.995 5v43.001h20.01v6h20.99v-6-6-7.001-6-6-6-6.01-5.99zm9.032 33.999c-.553 0-1.005-.447-1.005-1s.442-1 .994-1h.011c.552 0 1 .447 1 1s-.448 1-1 1zm0-7.999c-.553 0-1.005-.447-1.005-1s.442-1 .994-1h.011c.552 0 1 .447 1 1s-.448 1-1 1zm0-8c-.553 0-1.005-.447-1.005-1s.442-1 .994-1h.011c.552 0 1 .447 1 1s-.448 1-1 1zm0-8c-.553 0-1.005-.447-1.005-1s.442-1 .994-1h.011c.552 0 1 .447 1 1s-.448 1-1 1zm4 20c-.553 0-1.005-.447-1.005-1s.442-1 .994-1h.011c.552 0 1 .447 1 1s-.448 1-1 1zm0-8c-.553 0-1.005-.447-1.005-1s.442-1 .994-1h.011c.552 0 1 .447 1 1s-.448 1-1 1zm0-8c-.553 0-1.005-.447-1.005-1s.442-1 .994-1h.011c.552 0 1 .447 1 1s-.448 1-1 1zm4 19.999c-.553 0-1.005-.447-1.005-1s.442-1 .994-1h.011c.552 0 1 .447 1 1s-.448 1-1 1zm0-7.999c-.553 0-1.005-.447-1.005-1s.442-1 .994-1h.011c.552 0 1 .447 1 1s-.448 1-1 1zm0-8c-.553 0-1.005-.447-1.005-1s.442-1 .994-1h.011c.552 0 1 .447 1 1s-.448 1-1 1zm0-8c-.553 0-1.005-.447-1.005-1s.442-1 .994-1h.011c.552 0 1 .447 1 1s-.448 1-1 1zm4 20c-.553 0-1.005-.447-1.005-1s.442-1 .994-1h.011c.552 0 1 .447 1 1s-.448 1-1 1zm0-8c-.553 0-1.005-.447-1.005-1s.442-1 .994-1h.011c.552 0 1 .447 1 1s-.448 1-1 1zm0-8c-.553 0-1.005-.447-1.005-1s.442-1 .994-1h.011c.552 0 1 .447 1 1s-.448 1-1 1zm4 19.999c-.553 0-1.005-.447-1.005-1s.442-1 .994-1h.011c.552 0 1 .447 1 1s-.448 1-1 1zm0-7.999c-.553 0-1.005-.447-1.005-1s.442-1 .994-1h.011c.552 0 1 .447 1 1s-.448 1-1 1zm0-8c-.553 0-1.005-.447-1.005-1s.442-1 .994-1h.011c.552 0 1 .447 1 1s-.448 1-1 1zm0-8c-.553 0-1.005-.447-1.005-1s.442-1 .994-1h.011c.552 0 1 .447 1 1s-.448 1-1 1zm4 20c-.553 0-1.005-.447-1.005-1s.442-1 .994-1h.011c.552 0 1 .447 1 1s-.448 1-1 1zm0-8c-.553 0-1.005-.447-1.005-1s.442-1 .994-1h.011c.552 0 1 .447 1 1s-.448 1-1 1zm0-8c-.553 0-1.005-.447-1.005-1s.442-1 .994-1h.011c.552 0 1 .447 1 1s-.448 1-1 1zm4 19.999c-.553 0-1.005-.447-1.005-1s.442-1 .994-1h.011c.552 0 1 .447 1 1s-.448 1-1 1zm0-7.999c-.553 0-1.005-.447-1.005-1s.442-1 .994-1h.011c.552 0 1 .447 1 1s-.448 1-1 1zm0-8c-.553 0-1.005-.447-1.005-1s.442-1 .994-1h.011c.552 0 1 .447 1 1s-.448 1-1 1zm0-8c-.553 0-1.005-.447-1.005-1s.442-1 .994-1h.011c.552 0 1 .447 1 1s-.448 1-1 1z" fill="#967adc"/><path d="m21.005 54.001h20.99v3h-20.99z" fill="#434a54"/><path d="m21.005 55v2 1c0 .55-.45 1-1 1h-18.01c-.55 0-1-.45-1-1v-10c0-.55.45-1 1-1h18.01c.55 0 1 .45 1 1v4 2z" fill="#656d78"/><path d="m21.005 56h20.99v3h-20.99z" fill="#545c66"/><path d="m41.995 29h16v6h-16z" fill="#656d78"/><path d="m41.995 35h16v6h-16z" fill="#656d78"/><path d="m41.995 10.99h16v6.01h-16z" fill="#656d78"/><path d="m41.995 23h16v6h-16z" fill="#656d78"/><path d="m41.995 17h16v6h-16z" fill="#656d78"/><path d="m41.995 41h16v6h-16z" fill="#656d78"/><path d="m41.995 5h16v5.99h-16z" fill="#656d78"/><path d="m41.995 53h16v6h-16v-3z" fill="#656d78"/><path d="m41.995 47h16v6h-16z" fill="#656d78"/><path d="m63.005 7v50c0 1.11-.899 2-2 2h-.01-3v-6-6-6-6-6-6-6-6.01-5.99h3 .01c1.1 0 2 .89 2 2z" fill="#ac92ec"/><path d="m60.997 60h-59.998c-.553 0-1-.447-1-1v-54c0-.553.447-1 1-1h59.998c.553 0 1 .447 1 1s-.447 1-1 1h-58.998v52h58.998c.553 0 1 .447 1 1s-.447 1-1 1z" fill="#ac92ec"/><path d="m63.001 8c-.553 0-1-.447-1-1 0-.551-.448-1-1-1-.553 0-1-.447-1-1s.447-1 1-1c1.654 0 3 1.346 3 3 0 .553-.447 1-1 1z" fill="#ac92ec"/><path d="m61.001 60c-.553 0-1-.447-1-1s.447-1 1-1c.552 0 1-.448 1-1 0-.553.447-1 1-1s1 .447 1 1c0 1.654-1.346 3-3 3z" fill="#ac92ec"/><path d="m63.001 58c-.553 0-1-.447-1-1v-50c0-.553.447-1 1-1s1 .447 1 1v50c0 .553-.447 1-1 1z" fill="#ac92ec"/><g fill="#545c66"><path d="m41.998 52.001h16.001v2h-16.001z"/><path d="m41.998 46h16.001v2h-16.001z"/><path d="m41.998 39.999h16.001v2h-16.001z"/><path d="m41.998 33.998h16.001v2h-16.001z"/><path d="m41.998 27.997h16.001v2h-16.001z"/><path d="m41.998 21.996h16.001v2h-16.001z"/><path d="m41.998 15.995h16.001v2h-16.001z"/><path d="m41.998 9.994h16.001v2h-16.001z"/><path d="m51.999 57h-4c-.553 0-1-.447-1-1s.447-1 1-1h4c.553 0 1 .447 1 1s-.447 1-1 1z"/><path d="m51.999 51h-4c-.553 0-1-.447-1-1s.447-1 1-1h4c.553 0 1 .447 1 1s-.447 1-1 1z"/><path d="m51.999 45h-4c-.553 0-1-.447-1-1s.447-1 1-1h4c.553 0 1 .447 1 1s-.447 1-1 1z"/><path d="m51.999 39h-4c-.553 0-1-.447-1-1s.447-1 1-1h4c.553 0 1 .447 1 1s-.447 1-1 1z"/><path d="m51.999 33h-4c-.553 0-1-.447-1-1s.447-1 1-1h4c.553 0 1 .447 1 1s-.447 1-1 1z"/><path d="m51.999 27h-4c-.553 0-1-.447-1-1s.447-1 1-1h4c.553 0 1 .447 1 1s-.447 1-1 1z"/><path d="m49.999 10c-.553 0-1-.447-1-1v-2c0-.553.447-1 1-1s1 .447 1 1v2c0 .553-.447 1-1 1z"/><path d="m50.999 9h-2c-.553 0-1-.447-1-1s.447-1 1-1h2c.553 0 1 .447 1 1s-.447 1-1 1z"/><path d="m49.999 16c-.553 0-1-.447-1-1v-2c0-.553.447-1 1-1s1 .447 1 1v2c0 .553-.447 1-1 1z"/><path d="m50.999 15h-2c-.553 0-1-.447-1-1s.447-1 1-1h2c.553 0 1 .447 1 1s-.447 1-1 1z"/><path d="m49.999 22c-.553 0-1-.447-1-1v-2c0-.553.447-1 1-1s1 .447 1 1v2c0 .553-.447 1-1 1z"/><path d="m50.999 21h-2c-.553 0-1-.447-1-1s.447-1 1-1h2c.553 0 1 .447 1 1s-.447 1-1 1z"/></g></svg>