<svg id="icons" enable-background="new 0 0 64 64" height="512" viewBox="0 0 64 64" width="512" xmlns="http://www.w3.org/2000/svg"><path d="m48 1h-32c-2.2 0-4 1.8-4 4v2 48c0 2.2 1.8 4 4 4h32c2.199 0 4-1.8 4-4v-48-2c0-2.2-1.801-4-4-4z" fill="#656d78"/><path d="m52 55v4c0 2.2-1.801 4-4 4h-32c-2.2 0-4-1.8-4-4v-4c0 2.2 1.8 4 4 4h32c2.199 0 4-1.8 4-4z" fill="#545c66"/><path d="m46 32c0 7.73-6.271 14-14 14-7.73 0-14-6.27-14-14v-4c0 7.73 6.27 14 14 14 7.729 0 14-6.27 14-14z" fill="#4a89dc"/><circle cx="32" cy="28" fill="#5d9cec" r="14"/><g fill="#e6e9ed"><path d="m32 35.996c-4.411 0-8-3.589-8-8 0-3.071 1.794-5.908 4.57-7.229.499-.236 1.096-.023 1.333.474.237.499.024 1.096-.474 1.333-2.084.99-3.43 3.118-3.43 5.422 0 3.309 2.691 6 6 6s6-2.691 6-6c0-2.301-1.345-4.428-3.425-5.42-.499-.237-.711-.834-.473-1.332.236-.499.833-.713 1.332-.473 2.775 1.321 4.567 4.158 4.567 7.225 0 4.411-3.589 8-8 8z"/><path d="m32 23.999c-.553 0-1-.447-1-1v-3.997c0-.553.447-1 1-1s1 .447 1 1v3.997c0 .553-.447 1-1 1z"/></g></svg>