<svg id="icons" enable-background="new 0 0 64 64" height="512" viewBox="0 0 64 64" width="512" xmlns="http://www.w3.org/2000/svg"><path d="m59 4h-54c-.55 0-1 .45-1 1v54c0 .55.45 1 1 1h54c.55 0 1-.45 1-1v-54c0-.55-.45-1-1-1zm-51.974 4.019c-.553 0-1.005-.448-1.005-1s.442-1 .994-1h.011c.552 0 1 .448 1 1s-.448 1-1 1zm50.004 49.981c-.553 0-1.005-.447-1.005-1s.442-1 .994-1h.011c.552 0 1 .447 1 1s-.448 1-1 1zm0-49.981c-.553 0-1.005-.448-1.005-1s.442-1 .994-1h.011c.552 0 1 .448 1 1s-.448 1-1 1z" fill="#a0d468"/><path d="m51 12h-38c-.55 0-1 .45-1 1v38c0 .55.45 1 1 1h10 18 10c.55 0 1-.45 1-1v-38c0-.55-.45-1-1-1z" fill="#fff"/><path d="m4 59c0 .55.45 1 1 1h5l-6-6z" fill="#656d78"/><path d="m32 18c4.42 0 8 3.58 8 8s-3.58 7.999-8 7.999-8-3.579-8-7.999 3.58-8 8-8zm4 8c0-2.211-1.79-4-4-4s-4 1.789-4 4c0 2.209 1.79 4 4 4s4-1.791 4-4z" fill="#a0d468"/><g fill="#e6e9ed"><path d="m51 9c2.2 0 4 1.8 4 4v38c0 2.2-1.8 4-4 4h-8l-2-3h10c.55 0 1-.45 1-1v-38c0-.55-.45-1-1-1h-38c-.55 0-1 .45-1 1v38c0 .55.45 1 1 1h10l-2 3h-8c-2.2 0-4-1.8-4-4v-38c0-2.2 1.8-4 4-4z"/><path d="m44 39.001h-24c-.553 0-1-.447-1-1s.447-1 1-1h24c.553 0 1 .447 1 1s-.447 1-1 1z"/><path d="m44 41.999h-24c-.553 0-1-.447-1-1s.447-1 1-1h24c.553 0 1 .447 1 1s-.447 1-1 1z"/><path d="m37 44.999h-10c-.553 0-1-.447-1-1s.447-1 1-1h10c.553 0 1 .447 1 1s-.447 1-1 1z"/></g></svg>