<svg id="icons" enable-background="new 0 0 64 64" height="512" viewBox="0 0 64 64" width="512" xmlns="http://www.w3.org/2000/svg"><path d="m13 59.005 1 3.99h-6l1-3.99z" fill="#ccd1d9"/><path d="m8.001 63.996c-.08 0-.162-.01-.243-.03-.536-.134-.862-.677-.728-1.212l1-4c.133-.537.677-.863 1.212-.728.536.134.862.677.728 1.212l-1 4c-.114.455-.521.758-.969.758z" fill="#ccd1d9"/><path d="m13.999 63.996c-.448 0-.855-.303-.969-.758l-1-4c-.135-.535.191-1.078.728-1.212.534-.135 1.078.19 1.212.728l1 4c.135.535-.191 1.078-.728 1.212-.081.02-.163.03-.243.03z" fill="#ccd1d9"/><path d="m13 15.005h-4-7c-.55 0-1-.45-1-1v-12c0-.55.45-1 1-1h18c.55 0 1 .45 1 1v12c0 .55-.45 1-1 1z" fill="#5d9cec"/><path d="m13 15.005 1 3.99h-6l1-3.99z" fill="#ccd1d9"/><path d="m55 15.005h-4-7c-.55 0-1-.45-1-1v-12c0-.55.45-1 1-1h18c.55 0 1 .45 1 1v12c0 .55-.45 1-1 1z" fill="#5d9cec"/><path d="m55 15.005 1 3.99h-6l1-3.99z" fill="#ccd1d9"/><path d="m55 59.005h-4-7c-.55 0-1-.46-1-1v-12c0-.56.45-1 1-1h18c.55 0 1 .44 1 1v12c0 .54-.45 1-1 1z" fill="#5d9cec"/><path d="m55 59.005 1 3.99h-6l1-3.99z" fill="#ccd1d9"/><path d="m13 59.005h-4-7c-.55 0-1-.46-1-1v-12c0-.56.45-1 1-1h18c.55 0 1 .44 1 1v12c0 .54-.45 1-1 1z" fill="#5d9cec"/><path d="m50.001 19.998c-.08 0-.162-.01-.243-.029-.536-.135-.862-.678-.728-1.213l1-4c.133-.536.675-.863 1.212-.729.536.135.862.678.728 1.213l-1 4c-.114.455-.521.758-.969.758z" fill="#ccd1d9"/><path d="m55.999 19.998c-.448 0-.855-.303-.969-.758l-1-4c-.135-.535.191-1.078.728-1.213.532-.135 1.078.192 1.212.729l1 4c.135.535-.191 1.078-.728 1.213-.081.019-.163.029-.243.029z" fill="#ccd1d9"/><path d="m57 19.998h-8c-.553 0-1-.447-1-1s.447-1 1-1h8c.553 0 1 .447 1 1s-.447 1-1 1z" fill="#e6e9ed"/><path d="m54 7.004h-6c-.553 0-1-.447-1-1s.447-1 1-1h6c.553 0 1 .447 1 1s-.447 1-1 1z" fill="#4a89dc"/><path d="m58 7.004h-1c-.553 0-1-.447-1-1s.447-1 1-1h1c.553 0 1 .447 1 1s-.447 1-1 1z" fill="#4a89dc"/><path d="m52 11.004h-4c-.553 0-1-.447-1-1s.447-1 1-1h4c.553 0 1 .447 1 1s-.447 1-1 1z" fill="#4a89dc"/><path d="m58 11.004h-3c-.553 0-1-.447-1-1s.447-1 1-1h3c.553 0 1 .447 1 1s-.447 1-1 1z" fill="#4a89dc"/><path d="m50.001 63.996c-.08 0-.162-.01-.243-.03-.536-.134-.862-.677-.728-1.212l1-4c.133-.537.675-.863 1.212-.728.536.134.862.677.728 1.212l-1 4c-.114.455-.521.758-.969.758z" fill="#ccd1d9"/><path d="m55.999 63.996c-.448 0-.855-.303-.969-.758l-1-4c-.135-.535.191-1.078.728-1.212.532-.135 1.078.19 1.212.728l1 4c.135.535-.191 1.078-.728 1.212-.081.02-.163.03-.243.03z" fill="#ccd1d9"/><path d="m57 63.996h-8c-.553 0-1-.447-1-1s.447-1 1-1h8c.553 0 1 .447 1 1s-.447 1-1 1z" fill="#e6e9ed"/><path d="m49 51.002h-1c-.553 0-1-.447-1-1s.447-1 1-1h1c.553 0 1 .447 1 1s-.447 1-1 1z" fill="#4a89dc"/><path d="m58 51.002h-6c-.553 0-1-.447-1-1s.447-1 1-1h6c.553 0 1 .447 1 1s-.447 1-1 1z" fill="#4a89dc"/><path d="m51 55.002h-3c-.553 0-1-.447-1-1s.447-1 1-1h3c.553 0 1 .447 1 1s-.447 1-1 1z" fill="#4a89dc"/><path d="m58 55.002h-4c-.553 0-1-.447-1-1s.447-1 1-1h4c.553 0 1 .447 1 1s-.447 1-1 1z" fill="#4a89dc"/><path d="m8.001 19.998c-.08 0-.162-.01-.243-.029-.536-.135-.862-.678-.728-1.213l1-4c.133-.536.677-.863 1.212-.729.536.135.862.678.728 1.213l-1 4c-.114.455-.521.758-.969.758z" fill="#ccd1d9"/><path d="m13.999 19.998c-.448 0-.855-.303-.969-.758l-1-4c-.135-.535.191-1.078.728-1.213.534-.135 1.078.192 1.212.729l1 4c.135.535-.191 1.078-.728 1.213-.081.019-.163.029-.243.029z" fill="#ccd1d9"/><path d="m15 19.998h-8c-.553 0-1-.447-1-1s.447-1 1-1h8c.553 0 1 .447 1 1s-.447 1-1 1z" fill="#e6e9ed"/><path d="m10 7.004h-4c-.553 0-1-.447-1-1s.447-1 1-1h4c.553 0 1 .447 1 1s-.447 1-1 1z" fill="#4a89dc"/><path d="m16 7.004h-3c-.553 0-1-.447-1-1s.447-1 1-1h3c.553 0 1 .447 1 1s-.447 1-1 1z" fill="#4a89dc"/><path d="m12 11.004h-6c-.553 0-1-.447-1-1s.447-1 1-1h6c.553 0 1 .447 1 1s-.447 1-1 1z" fill="#4a89dc"/><path d="m16 11.004h-1c-.553 0-1-.447-1-1s.447-1 1-1h1c.553 0 1 .447 1 1s-.447 1-1 1z" fill="#4a89dc"/><g fill="#e6e9ed"><path d="m62 .004h-18c-1.103 0-2 .896-2 2v12c0 1.104.897 2 2 2h18c1.103 0 2-.896 2-2v-12c0-1.104-.897-2-2-2zm-.003 14h-17.997v-12h18z"/><path d="m62 44.002h-18c-1.103 0-2 .897-2 2v12c0 1.103.897 2 2 2h18c1.103 0 2-.897 2-2v-12c0-1.103-.897-2-2-2zm-.004 14h-17.996v-12h18z"/><path d="m20 .004h-18c-1.103 0-2 .896-2 2v12c0 1.104.897 2 2 2h18c1.103 0 2-.896 2-2v-12c0-1.104-.897-2-2-2zm-.003 14h-17.997v-12h18z"/><path d="m20 44.002h-18c-1.103 0-2 .897-2 2v12c0 1.103.897 2 2 2h18c1.103 0 2-.897 2-2v-12c0-1.103-.897-2-2-2zm-.004 14h-17.996v-12h18z"/><path d="m15 63.996h-8c-.553 0-1-.447-1-1s.447-1 1-1h8c.553 0 1 .447 1 1s-.447 1-1 1z"/></g><path d="m8 51.002h-2c-.553 0-1-.447-1-1s.447-1 1-1h2c.553 0 1 .447 1 1s-.447 1-1 1z" fill="#4a89dc"/><path d="m16 51.002h-5c-.553 0-1-.447-1-1s.447-1 1-1h5c.553 0 1 .447 1 1s-.447 1-1 1z" fill="#4a89dc"/><path d="m11 55.002h-5c-.553 0-1-.447-1-1s.447-1 1-1h5c.553 0 1 .447 1 1s-.447 1-1 1z" fill="#4a89dc"/><path d="m16 55.002h-2c-.553 0-1-.447-1-1s.447-1 1-1h2c.553 0 1 .447 1 1s-.447 1-1 1z" fill="#4a89dc"/><path d="m39 52.998h-14c-.553 0-1-.447-1-1s.447-1 1-1h14c.553 0 1 .447 1 1s-.447 1-1 1z" fill="#656d78"/><path d="m39 8.998h-14c-.553 0-1-.447-1-1s.447-1 1-1h14c.553 0 1 .447 1 1s-.447 1-1 1z" fill="#656d78"/><path d="m53 41.998c-.553 0-1-.447-1-1v-17.994c0-.553.447-1 1-1s1 .447 1 1v17.994c0 .553-.447 1-1 1z" fill="#656d78"/><path d="m11 41.998c-.553 0-1-.447-1-1v-17.994c0-.553.447-1 1-1s1 .447 1 1v17.994c0 .553-.447 1-1 1z" fill="#656d78"/></svg>