<?xml version="1.0" encoding="iso-8859-1"?>
<!-- Generator: Adobe Illustrator 19.0.0, SVG Export Plug-In . SVG Version: 6.00 Build 0)  -->
<svg version="1.1" id="Capa_1" xmlns="http://www.w3.org/2000/svg" xmlns:xlink="http://www.w3.org/1999/xlink" x="0px" y="0px"
	 viewBox="0 0 491.52 491.52" style="enable-background:new 0 0 491.52 491.52;" xml:space="preserve">
<circle style="fill:#45B39C;" cx="245.76" cy="245.76" r="245.76"/>
<rect x="121.508" y="169.984" style="fill:#64798A;" width="248.504" height="163.22"/>
<g>
	<path style="fill:#EBF0F3;" d="M378.058,104.96H113.462c-4.697,0-8.502,4.041-8.502,9.026v64.464c0,4.985,3.805,9.027,8.502,9.027
		h264.595c4.695,0,8.502-4.041,8.502-9.027v-64.464C386.56,109.001,382.752,104.96,378.058,104.96z"/>
	<path style="fill:#EBF0F3;" d="M378.058,304.043H113.462c-4.697,0-8.502,4.041-8.502,9.027v64.464c0,4.985,3.805,9.027,8.502,9.027
		h264.595c4.695,0,8.502-4.041,8.502-9.027V313.07C386.56,308.084,382.752,304.043,378.058,304.043z"/>
	<path style="fill:#EBF0F3;" d="M378.058,204.501H113.462c-4.697,0-8.502,4.041-8.502,9.027v64.464c0,4.985,3.805,9.026,8.502,9.026
		h264.595c4.695,0,8.502-4.041,8.502-9.026v-64.464C386.56,208.543,382.752,204.501,378.058,204.501z"/>
</g>
<circle style="fill:#3A556A;" cx="138.148" cy="146.217" r="16.64"/>
<circle style="fill:#64798A;" cx="138.445" cy="145.93" r="11.474"/>
<circle style="fill:#E56353;" cx="178.335" cy="146.217" r="8.392"/>
<circle style="fill:#44C4A1;" cx="212.019" cy="146.217" r="8.392"/>
<circle style="fill:#3A556A;" cx="138.148" cy="245.76" r="16.64"/>
<circle style="fill:#64798A;" cx="138.445" cy="245.473" r="11.474"/>
<circle style="fill:#E56353;" cx="178.335" cy="245.76" r="8.392"/>
<circle style="fill:#44C4A1;" cx="212.019" cy="245.76" r="8.392"/>
<circle style="fill:#3A556A;" cx="138.148" cy="345.293" r="16.64"/>
<circle style="fill:#64798A;" cx="138.445" cy="345.037" r="11.474"/>
<circle style="fill:#E56353;" cx="178.335" cy="345.293" r="8.392"/>
<circle style="fill:#44C4A1;" cx="212.019" cy="345.293" r="8.392"/>
<g>
	<rect x="247.552" y="118.221" style="fill:#D5D6DB;" width="13.998" height="13.998"/>
	<rect x="275.543" y="118.221" style="fill:#D5D6DB;" width="13.998" height="13.998"/>
	<rect x="303.565" y="118.221" style="fill:#D5D6DB;" width="13.998" height="13.998"/>
	<rect x="331.54" y="118.221" style="fill:#D5D6DB;" width="13.998" height="13.998"/>
	<rect x="359.526" y="118.221" style="fill:#D5D6DB;" width="13.998" height="13.998"/>
	<rect x="261.53" y="132.219" style="fill:#D5D6DB;" width="13.998" height="13.998"/>
	<rect x="289.536" y="132.219" style="fill:#D5D6DB;" width="13.998" height="13.998"/>
	<rect x="317.542" y="132.219" style="fill:#D5D6DB;" width="13.998" height="13.998"/>
	<rect x="345.549" y="132.219" style="fill:#D5D6DB;" width="13.998" height="13.998"/>
	<rect x="247.552" y="146.217" style="fill:#D5D6DB;" width="13.998" height="13.998"/>
	<rect x="275.543" y="146.217" style="fill:#D5D6DB;" width="13.998" height="13.998"/>
	<rect x="303.565" y="146.217" style="fill:#D5D6DB;" width="13.998" height="13.998"/>
	<rect x="331.54" y="146.217" style="fill:#D5D6DB;" width="13.998" height="13.998"/>
	<rect x="359.526" y="146.217" style="fill:#D5D6DB;" width="13.998" height="13.998"/>
	<rect x="261.53" y="160.205" style="fill:#D5D6DB;" width="13.998" height="13.998"/>
	<rect x="289.536" y="160.205" style="fill:#D5D6DB;" width="13.998" height="13.998"/>
	<rect x="317.542" y="160.205" style="fill:#D5D6DB;" width="13.998" height="13.998"/>
	<rect x="345.549" y="160.205" style="fill:#D5D6DB;" width="13.998" height="13.998"/>
	<rect x="247.552" y="217.764" style="fill:#D5D6DB;" width="13.998" height="13.998"/>
	<rect x="275.543" y="217.764" style="fill:#D5D6DB;" width="13.998" height="13.998"/>
	<rect x="303.565" y="217.764" style="fill:#D5D6DB;" width="13.998" height="13.998"/>
	<rect x="331.54" y="217.764" style="fill:#D5D6DB;" width="13.998" height="13.998"/>
	<rect x="359.526" y="217.764" style="fill:#D5D6DB;" width="13.998" height="13.998"/>
	<rect x="261.53" y="231.782" style="fill:#D5D6DB;" width="13.998" height="13.998"/>
	<rect x="289.536" y="231.782" style="fill:#D5D6DB;" width="13.998" height="13.998"/>
	<rect x="317.542" y="231.782" style="fill:#D5D6DB;" width="13.998" height="13.998"/>
	<rect x="345.549" y="231.782" style="fill:#D5D6DB;" width="13.998" height="13.998"/>
	<rect x="247.552" y="245.76" style="fill:#D5D6DB;" width="13.998" height="13.998"/>
	<rect x="275.543" y="245.76" style="fill:#D5D6DB;" width="13.998" height="13.998"/>
	<rect x="303.565" y="245.76" style="fill:#D5D6DB;" width="13.998" height="13.998"/>
	<rect x="331.54" y="245.76" style="fill:#D5D6DB;" width="13.998" height="13.998"/>
	<rect x="359.526" y="245.76" style="fill:#D5D6DB;" width="13.998" height="13.998"/>
	<rect x="261.53" y="259.758" style="fill:#D5D6DB;" width="13.998" height="13.998"/>
	<rect x="289.536" y="259.758" style="fill:#D5D6DB;" width="13.998" height="13.998"/>
	<rect x="317.542" y="259.758" style="fill:#D5D6DB;" width="13.998" height="13.998"/>
	<rect x="345.549" y="259.758" style="fill:#D5D6DB;" width="13.998" height="13.998"/>
	<rect x="247.552" y="317.302" style="fill:#D5D6DB;" width="13.998" height="13.998"/>
	<rect x="275.543" y="317.302" style="fill:#D5D6DB;" width="13.998" height="13.998"/>
	<rect x="303.565" y="317.302" style="fill:#D5D6DB;" width="13.998" height="13.998"/>
	<rect x="331.54" y="317.302" style="fill:#D5D6DB;" width="13.998" height="13.998"/>
	<rect x="359.526" y="317.302" style="fill:#D5D6DB;" width="13.998" height="13.998"/>
	<rect x="261.53" y="331.315" style="fill:#D5D6DB;" width="13.998" height="13.998"/>
	<rect x="289.536" y="331.315" style="fill:#D5D6DB;" width="13.998" height="13.998"/>
	<rect x="317.542" y="331.315" style="fill:#D5D6DB;" width="13.998" height="13.998"/>
	<rect x="345.549" y="331.315" style="fill:#D5D6DB;" width="13.998" height="13.998"/>
	<rect x="247.552" y="345.293" style="fill:#D5D6DB;" width="13.998" height="13.998"/>
	<rect x="275.543" y="345.293" style="fill:#D5D6DB;" width="13.998" height="13.998"/>
	<rect x="303.565" y="345.293" style="fill:#D5D6DB;" width="13.998" height="13.998"/>
	<rect x="331.54" y="345.293" style="fill:#D5D6DB;" width="13.998" height="13.998"/>
	<rect x="359.526" y="345.293" style="fill:#D5D6DB;" width="13.998" height="13.998"/>
	<rect x="261.53" y="359.322" style="fill:#D5D6DB;" width="13.998" height="13.998"/>
	<rect x="289.536" y="359.322" style="fill:#D5D6DB;" width="13.998" height="13.998"/>
	<rect x="317.542" y="359.322" style="fill:#D5D6DB;" width="13.998" height="13.998"/>
	<rect x="345.549" y="359.322" style="fill:#D5D6DB;" width="13.998" height="13.998"/>
</g>
<g>
</g>
<g>
</g>
<g>
</g>
<g>
</g>
<g>
</g>
<g>
</g>
<g>
</g>
<g>
</g>
<g>
</g>
<g>
</g>
<g>
</g>
<g>
</g>
<g>
</g>
<g>
</g>
<g>
</g>
</svg>
