<?xml version="1.0" encoding="iso-8859-1"?>
<!-- Generator: Adobe Illustrator 19.0.0, SVG Export Plug-In . SVG Version: 6.00 Build 0)  -->
<svg version="1.1" id="Capa_1" xmlns="http://www.w3.org/2000/svg" xmlns:xlink="http://www.w3.org/1999/xlink" x="0px" y="0px"
	 viewBox="0 0 491.52 491.52" style="enable-background:new 0 0 491.52 491.52;" xml:space="preserve">
<circle style="fill:#EFC84A;" cx="245.76" cy="245.76" r="245.76"/>
<path style="fill:#EBF0F3;" d="M376.778,269.414L269.414,376.778c-13.044,13.044-34.266,13.043-47.309,0L114.742,269.414
	c-13.042-13.042-13.044-34.265,0-47.309l107.363-107.363c13.044-13.044,34.266-13.043,47.309,0l107.363,107.363
	C389.82,235.148,389.821,256.371,376.778,269.414z M120.683,228.046c-9.766,9.766-9.768,25.66,0,35.428l107.363,107.363
	c9.768,9.767,25.662,9.766,35.428,0l107.363-107.363c9.766-9.766,9.768-25.66,0-35.428L263.474,120.683
	c-9.768-9.768-25.662-9.766-35.428,0L120.683,228.046z"/>
<g>
	<path style="fill:#FFFFFF;" d="M245.761,323.097v32.033c30.202,0,57.545-12.242,77.336-32.034l-22.651-22.651
		C286.451,314.441,267.116,323.097,245.761,323.097z"/>
	<path style="fill:#FFFFFF;" d="M323.097,245.76h32.034c0-30.202-12.241-57.544-32.034-77.336l-22.651,22.651
		C314.442,205.071,323.097,224.405,323.097,245.76z"/>
</g>
<g>
	<path style="fill:#E56353;" d="M191.076,300.446l-22.651,22.651c19.792,19.792,47.135,32.034,77.336,32.034v-32.033
		C224.405,323.097,205.071,314.441,191.076,300.446z"/>
	<path style="fill:#E56353;" d="M355.131,245.76h-32.034c0,21.356-8.655,40.69-22.651,54.685l22.651,22.651
		C342.889,303.305,355.131,275.962,355.131,245.76z"/>
	<path style="fill:#E56353;" d="M300.446,191.075l22.651-22.651c-19.791-19.792-47.134-32.034-77.336-32.034v32.034
		C267.116,168.424,286.451,177.08,300.446,191.075z"/>
</g>
<g>
	<path style="fill:#FFFFFF;" d="M245.761,168.424v-32.034c-30.201,0-57.544,12.242-77.336,32.034l22.651,22.651
		C205.071,177.08,224.405,168.424,245.761,168.424z"/>
	<path style="fill:#FFFFFF;" d="M168.425,245.76h-32.034c0,30.202,12.242,57.544,32.034,77.336l22.651-22.651
		C177.081,286.45,168.425,267.117,168.425,245.76z"/>
</g>
<path style="fill:#E56353;" d="M191.076,191.075l-22.651-22.651c-19.792,19.792-32.034,47.134-32.034,77.336h32.034
	C168.425,224.405,177.081,205.071,191.076,191.075z"/>
<g>
	<path style="fill:#EBF0F3;" d="M294.001,197.521c12.346,12.345,19.981,29.401,19.981,48.239h9.115
		c0-21.355-8.655-40.69-22.651-54.685L294.001,197.521z"/>
	<path style="fill:#EBF0F3;" d="M245.761,313.981v9.116c21.355,0,40.69-8.656,54.685-22.651L294.001,294
		C281.655,306.346,264.6,313.981,245.761,313.981z"/>
</g>
<g>
	<path style="fill:#D15241;" d="M197.522,294l-6.446,6.446c13.995,13.995,33.329,22.651,54.685,22.651v-9.116
		C226.922,313.981,209.868,306.345,197.522,294z"/>
	<path style="fill:#D15241;" d="M294.001,294l6.446,6.446c13.996-13.996,22.651-33.329,22.651-54.685h-9.115
		C313.982,264.599,306.346,281.655,294.001,294z"/>
</g>
<g>
	<path style="fill:#EBF0F3;" d="M177.54,245.76h-9.115c0,21.356,8.656,40.69,22.651,54.685l6.446-6.446
		C185.177,281.654,177.54,264.599,177.54,245.76z"/>
	<path style="fill:#EBF0F3;" d="M245.761,177.54v-9.115c-21.356,0-40.69,8.656-54.685,22.651l6.446,6.446
		C209.867,185.176,226.922,177.54,245.761,177.54z"/>
</g>
<g>
	<path style="fill:#D15241;" d="M197.522,197.521l-6.446-6.446c-13.996,13.995-22.651,33.33-22.651,54.685h9.115
		C177.54,226.922,185.176,209.867,197.522,197.521z"/>
	<path style="fill:#D15241;" d="M294.001,197.521l6.446-6.446c-13.996-13.995-33.33-22.651-54.685-22.651v9.115
		C264.6,177.54,281.655,185.176,294.001,197.521z"/>
</g>
<g>
	<path style="fill:#64798A;" d="M339.104,167.172l-14.754-14.753c-2.088-2.089-5.04-2.525-6.592-0.973l-36.527,36.527
		c-1.552,1.552-1.116,4.504,0.972,6.593l14.754,14.753c2.088,2.089,5.04,2.525,6.592,0.973l36.527-36.527
		C341.628,172.212,341.192,169.261,339.104,167.172z"/>
	<path style="fill:#64798A;" d="M209.318,296.956l-14.753-14.753c-2.089-2.089-5.041-2.524-6.592-0.973l-36.527,36.527
		c-1.552,1.552-1.116,4.503,0.973,6.592l14.753,14.753c2.089,2.089,5.041,2.525,6.592,0.973l36.527-36.527
		C211.843,301.997,211.407,299.045,209.318,296.956z"/>
	<path style="fill:#64798A;" d="M324.35,339.103l14.754-14.753c2.088-2.089,2.524-5.041,0.972-6.592l-36.527-36.527
		c-1.552-1.552-4.504-1.116-6.592,0.973l-14.754,14.753c-2.088,2.089-2.524,5.041-0.972,6.593l36.527,36.527
		C319.31,341.627,322.261,341.192,324.35,339.103z"/>
	<path style="fill:#64798A;" d="M194.565,209.318l14.753-14.753c2.089-2.089,2.525-5.041,0.973-6.593l-36.527-36.527
		c-1.552-1.552-4.504-1.116-6.592,0.973l-14.753,14.753c-2.089,2.089-2.525,5.04-0.973,6.592l36.527,36.527
		C189.524,211.842,192.476,211.407,194.565,209.318z"/>
</g>
<g>
</g>
<g>
</g>
<g>
</g>
<g>
</g>
<g>
</g>
<g>
</g>
<g>
</g>
<g>
</g>
<g>
</g>
<g>
</g>
<g>
</g>
<g>
</g>
<g>
</g>
<g>
</g>
<g>
</g>
</svg>
