<svg xmlns="http://www.w3.org/2000/svg" viewBox="0 0 1920 500" xmlns:v="https://vecta.io/nano"><linearGradient id="A" gradientUnits="userSpaceOnUse" x1="1312.9" y1="-33.581" x2="1312.9" y2="571.372"><stop offset="0" stop-color="#be4449"/><stop offset=".057" stop-color="#b1434a"/><stop offset=".267" stop-color="#873d4d"/><stop offset=".472" stop-color="#65394f"/><stop offset=".667" stop-color="#4e3551"/><stop offset=".847" stop-color="#3f3352"/><stop offset="1" stop-color="#3a3352"/></linearGradient><path d="M1018.1 280.1l51.8-25.2 30.6-2.8 75.3 36.4 49.4 25.2 49.4 14 122.4-53.2 112.9-95.2 44.8-16.8 96.4 56 63.6 56 65.9 25.2 91.7 33.6 50.7 5.2v149.8L702.8 464.9l134.1-70 94.2-44.8z" fill="url(#A)"/><linearGradient id="B" gradientUnits="userSpaceOnUse" x1="1521.396" y1="142.091" x2="1555.483" y2="307.143"><stop offset="0" stop-color="#f64c50"/><stop offset=".009" stop-color="#f14b50"/><stop offset=".087" stop-color="#c64551"/><stop offset=".172" stop-color="#a04051"/><stop offset=".262" stop-color="#813c51"/><stop offset=".36" stop-color="#673952"/><stop offset=".467" stop-color="#533652"/><stop offset=".589" stop-color="#453452"/><stop offset=".739" stop-color="#3d3352"/><stop offset="1" stop-color="#3a3352"/></linearGradient><path d="M1697.4 259.6l-51.8-20.6-26.6-14.9-31.4-15 12.5 28.1-14.1-1.9-40.8-1.9-39.2 5.6 26.7-16.8 29.8-9.3-42.4 5.6-29.8 14.9-54.9 26.2-38.4 14.9 58.8-52.3 48.6-42.9 55-24.3 58 41.1 51.8 37.3z" fill="url(#B)"/><linearGradient id="C" gradientUnits="userSpaceOnUse" x1="987.582" y1="164.307" x2="1103.579" y2="673.559"><stop offset="0" stop-color="#f64c50"/><stop offset=".009" stop-color="#f14b50"/><stop offset=".087" stop-color="#c64551"/><stop offset=".172" stop-color="#a04051"/><stop offset=".262" stop-color="#813c51"/><stop offset=".36" stop-color="#673952"/><stop offset=".467" stop-color="#533652"/><stop offset=".589" stop-color="#453452"/><stop offset=".739" stop-color="#3d3352"/><stop offset="1" stop-color="#3a3352"/></linearGradient><path d="M1237.8 319.3l-78.5-14.9-47-18.7-37.7-1.9 32.9-7.4-26.6-7.5-36.1 16.8-69 52.3-29.8 20.5 28.2 15 51.8 11.2 39.2 9.3h-69l-59.7-9.3-47 1.8-62.8 15 98.9-54.2 133.3-91.5 39.2-11.2 89.5 50.4z" fill="url(#C)"/><linearGradient id="D" gradientUnits="userSpaceOnUse" x1="1343.79" y1="280.899" x2="1430.111" y2="677.972"><stop offset="0" stop-color="#483452"/><stop offset=".038" stop-color="#453250"/><stop offset=".258" stop-color="#372c49"/><stop offset=".529" stop-color="#2f2944"/><stop offset="1" stop-color="#2c2843"/></linearGradient><path d="M805.5 411.4L837 395l2.9-1.4 73.2 2.3 73.7-3.7 87.9-18.7 58 20.5 84.7 3.7 50.2-9.3 39.2-7.5-25.1 14.9 32.9 1.9 26.7-16.8 34.5 22.4 80 7.5s81.6-9.3 86.3-11.2 95.7-7.5 95.7-7.5l75.3-22.4 56.5-7.5 73.7 18.7-25.1-29.9-40.8-28-23.5-33.5 26.6 10.2 91.8 33.6 50.7 5.2v149.8L834.4 467.5l-28.9-56.1z" fill="url(#D)"/><linearGradient id="E" gradientUnits="userSpaceOnUse" x1="1143.544" y1="323.497" x2="1140.765" y2="493.061"><stop offset="0" stop-color="#483452"/><stop offset=".038" stop-color="#453250"/><stop offset=".258" stop-color="#372c49"/><stop offset=".529" stop-color="#2f2944"/><stop offset="1" stop-color="#2c2843"/></linearGradient><path d="M1248.7 336.1l-48.2 22.4-24.7 18.2-42.4 9.8-43.5 12.6-52.9-2.8 55.3-8.4 52.9-19.6h30.6l24.7-16.8z" fill="url(#E)"/><linearGradient id="F" gradientUnits="userSpaceOnUse" x1="452.55" y1="150.699" x2="452.55" y2="523.081"><stop offset="0" stop-color="#be4449"/><stop offset=".057" stop-color="#b1434a"/><stop offset=".267" stop-color="#873d4d"/><stop offset=".472" stop-color="#65394f"/><stop offset=".667" stop-color="#4e3551"/><stop offset=".847" stop-color="#3f3352"/><stop offset="1" stop-color="#3a3352"/></linearGradient><path d="M634 343.8l-31.9-15.5-18.8-1.8-46.4 22.5-30.4 15.5-30.4 8.6-75.3-32.8-69.5-58.6-27.6-10.3-59.3 34.5-39.2 34.4-40.5 15.6-56.5 20.6-31.2 3.2V472l751.1-14.4-82.6-43.1-57.9-27.6z" fill="url(#F)"/><linearGradient id="G" gradientUnits="userSpaceOnUse" x1="324.209" y1="258.835" x2="303.227" y2="360.433"><stop offset="0" stop-color="#f64c50"/><stop offset=".009" stop-color="#f14b50"/><stop offset=".087" stop-color="#c64551"/><stop offset=".172" stop-color="#a04051"/><stop offset=".262" stop-color="#813c51"/><stop offset=".36" stop-color="#673952"/><stop offset=".467" stop-color="#533652"/><stop offset=".589" stop-color="#453452"/><stop offset=".739" stop-color="#3d3352"/><stop offset="1" stop-color="#3a3352"/></linearGradient><path d="M215.9 331.1l31.8-12.6 16.4-9.2 19.4-9.2-7.8 17.3 8.7-1.2 25.1-1.1 24.2 3.4-16.4-10.3-18.4-5.8 26.1 3.5 18.3 9.2 33.8 16 23.7 9.2-36.2-32.1-30-26.5-33.8-14.9-35.7 25.3-31.9 23z" fill="url(#G)"/><linearGradient id="H" gradientUnits="userSpaceOnUse" x1="652.801" y1="272.51" x2="581.399" y2="585.982"><stop offset="0" stop-color="#f64c50"/><stop offset=".009" stop-color="#f14b50"/><stop offset=".087" stop-color="#c64551"/><stop offset=".172" stop-color="#a04051"/><stop offset=".262" stop-color="#813c51"/><stop offset=".36" stop-color="#673952"/><stop offset=".467" stop-color="#533652"/><stop offset=".589" stop-color="#453452"/><stop offset=".739" stop-color="#3d3352"/><stop offset="1" stop-color="#3a3352"/></linearGradient><path d="M498.8 367.9l48.3-9.2 29-11.5 23.1-1.1-20.2-4.6 16.4-4.6 22.2 10.3 42.5 32.2 18.3 12.7-17.4 9.2-31.8 6.8-24.2 5.8h42.5l36.7-5.8 29 1.2 38.6 9.2-60.8-33.3-82.1-56.4-24.1-6.9-55.1 31.1z" fill="url(#H)"/><linearGradient id="I" gradientUnits="userSpaceOnUse" x1="433.536" y1="344.278" x2="380.401" y2="588.699"><stop offset="0" stop-color="#483452"/><stop offset=".038" stop-color="#453250"/><stop offset=".258" stop-color="#372c49"/><stop offset=".529" stop-color="#2f2944"/><stop offset="1" stop-color="#2c2843"/></linearGradient><path d="M764.9 424.6l-19.4-10.1-1.8-.9-45 1.4-45.4-2.3-54.1-11.5-35.7 12.6-52.1 2.3-30.9-5.7-24.1-4.6 15.5 9.2-20.3 1.1-16.4-10.3-21.2 13.8-49.2 4.6s-50.2-5.7-53.1-6.9c-2.9-1.1-58.9-4.6-58.9-4.6L206.2 399l-34.8-4.6-45.4 11.5 15.5-18.4 25.1-17.2 14.4-20.6-16.4 6.3-56.5 20.7-31.1 3V472l670.1-12.8c4.3-8.7 12.2-24 17.8-34.6z" fill="url(#I)"/><linearGradient id="J" gradientUnits="userSpaceOnUse" x1="556.798" y1="370.5" x2="558.509" y2="474.876"><stop offset="0" stop-color="#483452"/><stop offset=".038" stop-color="#453250"/><stop offset=".258" stop-color="#372c49"/><stop offset=".529" stop-color="#2f2944"/><stop offset="1" stop-color="#2c2843"/></linearGradient><path d="M492 378.3l29.7 13.8 15.2 11.2 26.1 6 26.8 7.8 32.6-1.8-34-5.1-32.6-12.1h-18.9l-15.2-10.4z" fill="url(#J)"/><linearGradient id="K" gradientUnits="userSpaceOnUse" x1="1510.992" y1="-75.365" x2="1510.992" y2="371.107"><stop offset="0" stop-color="#be4449"/><stop offset=".057" stop-color="#b1434a"/><stop offset=".267" stop-color="#873d4d"/><stop offset=".472" stop-color="#65394f"/><stop offset=".667" stop-color="#4e3551"/><stop offset=".847" stop-color="#3f3352"/><stop offset="1" stop-color="#3a3352"/></linearGradient><path d="M1708.8 313.1l-20.2-13.8-34.6-27.5-27.5-15.5-30.3 6.9-28.9 5.2-37.5-17.2-36.1-24.1-24.6 1.7-37.5 27.5-31.8 22.4-44.8 13.7-41.8 18.9 23.8-1.3 10.8 8.2h31.8l30.3 5.2 52-3.5h47.6l14.5 3.5 11.5-5.2 56.4-3.4 24.5 6.8 26-6.8 24.3-3.8z" fill="url(#K)"/><linearGradient id="L" gradientUnits="userSpaceOnUse" x1="959.628" y1="371.638" x2="959.628" y2="781.542"><stop offset="0" stop-color="#be4449"/><stop offset=".057" stop-color="#b1434a"/><stop offset=".267" stop-color="#873d4d"/><stop offset=".472" stop-color="#65394f"/><stop offset=".667" stop-color="#4e3551"/><stop offset=".847" stop-color="#3f3352"/><stop offset="1" stop-color="#3a3352"/></linearGradient><path d="M1530.7 450.5l-207.9 7.7S994.7 427.3 981.7 435s-424.9 3.9-425.6 15.5c-1.2 19.1-279.4 3.9-279.4 3.9L-3.1 440.6V681h1925.4V432.8l-391.6 17.7z" fill="url(#L)"/><linearGradient id="M" gradientUnits="userSpaceOnUse" x1="865.898" y1="187.549" x2="858.854" y2="937.692"><stop offset="0" stop-color="#f64c50"/><stop offset=".009" stop-color="#f14b50"/><stop offset=".087" stop-color="#c64551"/><stop offset=".172" stop-color="#a04051"/><stop offset=".262" stop-color="#813c51"/><stop offset=".36" stop-color="#673952"/><stop offset=".467" stop-color="#533652"/><stop offset=".589" stop-color="#453452"/><stop offset=".739" stop-color="#3d3352"/><stop offset="1" stop-color="#3a3352"/></linearGradient><path d="M1922 373.2c-83.9 4-503 10.3-527.4 12.9-22.2 2.3-21.1 1.8-42.2-13.9-22.2-16.4-57.2 1.2-63.5 5.9-2.6 2-26.3 20.7-33.1 35.2-14.6 31.3 29.1 52.8 29.1 52.8l45.4 20.3-125.1 42.3-82.2-15.8-132.2-10.6 117.9 37 60.8 37-164.4 21.1-89.4 10.6-375.3 10.6-117.9-15.8 78.6-10.6s-78.6-21.1-89.4-21.1c-10.7 0-85.8-15.8-85.8-15.8H190.2L-10 544.5l32.2-37 71.5-21.1 50 8 82.7-22.8 3.3-9.8 134.6-6.5 298.5-83.1-6.6-2-294.1 23.1-98.2-6.5c-80.3-1.7-152.4-32.4-152.4-32.4l-307.6-18.7V664H1922V373.2z" opacity=".2" fill="url(#M)"/><path d="M478.6 463.9L431 443.3l-13-33.5-30.4-25.8-58.4 7.7-58.5 31-45.5-41.3-104-54.1-71.5-85.1L.9 219v281h517.4z" fill="#f64c50"/><linearGradient id="N" gradientUnits="userSpaceOnUse" x1="260.822" y1="317.665" x2="154.264" y2="929.513"><stop offset="0" stop-color="#f64c50"/><stop offset=".009" stop-color="#f14b50"/><stop offset=".087" stop-color="#c64551"/><stop offset=".172" stop-color="#a04051"/><stop offset=".262" stop-color="#813c51"/><stop offset=".36" stop-color="#673952"/><stop offset=".467" stop-color="#533652"/><stop offset=".589" stop-color="#453452"/><stop offset=".739" stop-color="#3d3352"/><stop offset="1" stop-color="#3a3352"/></linearGradient><path d="M474.3 478.5l-26-5.1-31.8-13.8-49.1-12-65 17.2-62-13.8-52-5.1-52-18.9 53.4 5.1 37.6 3.4-33.3-22.3-66.4-24.1-76.5-41.2-39-82.5-11.3-15V500h499.8z" fill="url(#N)"/></svg>