<?xml version="1.0" encoding="utf-8"?>
<!-- Generator: Adobe Illustrator 25.3.0, SVG Export Plug-In . SVG Version: 6.00 Build 0)  -->
<svg version="1.1" id="Layer_1" xmlns="http://www.w3.org/2000/svg" xmlns:xlink="http://www.w3.org/1999/xlink" x="0px" y="0px"
	 viewBox="0 0 339.7 85" style="enable-background:new 0 0 339.7 85;" xml:space="preserve">
<style type="text/css">
	.logowhite0{fill:#FFFFFF;}
	.logowhite1{fill:#EE5586;}
</style>
<path class="logowhite0" d="M339.3,74.6v5.7h-225v-5.7H339.3z"/>
<g>
	<circle id="svg-ico" class="logowhite1" cx="119.5" cy="77.4" r="5"/>
	
		<animateMotion  accumulate="none" additive="replace" begin="0s" calcMode="paced" dur="6s" fill="remove" path="M215,0 0 0 215,0" repeatCount="indefinite" restart="always">
		</animateMotion>
</g>
<g>
	<path class="logowhite0" d="M174.4,65.5V28.2c6-3,12.3-4.5,18.9-4.5c5.7,0,10.2,1.5,13.5,4.5c3.2,3,4.9,7.2,4.9,12.6v24.7h-9.9V39.9
		c0-1.1-0.1-2-0.3-2.8c-0.2-0.7-0.6-1.5-1.2-2.3c-0.6-0.8-1.6-1.4-3-1.8c-1.4-0.4-3.1-0.6-5.3-0.6c-2.4,0-5,0.2-7.7,0.7v32.4H174.4z
		"/>
	<path class="logowhite0" d="M217.1,32.2v-8.5h6.9V13.4c0,0,9.9-3.6,9.9-1c0,2.2,0,11.2,0,11.2h9.8v8.5h-9.8v20.3c0,1.8,0.4,3,1.1,3.6
		c0.7,0.6,2,0.9,3.9,0.9c1.8,0,3.3-0.3,4.7-0.9v8.2c-1.9,0.8-4,1.2-6.3,1.2c-0.1,0-0.1,0-0.2,0c-4.1,0-7.3-1.2-9.6-3.6
		s-3.5-5.7-3.5-10V32.2H217.1z"/>
	<path class="logowhite0" d="M148,12.7c-1-2.8-13.4,1.7-13.4,1.7l-20.3,51.1h10.6l5-13.3h23.3l5,13.3h10.6L148,12.7z M133.4,43.3l8.3-21.6
		l8.2,21.6H133.4z"/>
	<path class="logowhite0" d="M253.2,65.5V14c0,0,9.9-3.6,9.9-1c0,2.2,0,52.4,0,52.4H253.2z"/>
	<path class="logowhite0" d="M272.7,44.7c0-6.6,1.5-11.9,4.4-15.8c2.9-3.9,7.6-5.9,14-5.9c6,0,10.6,1.9,13.7,5.8c3.1,3.8,4.7,8.6,4.7,14.2
		c0,2.3-0.1,4-0.2,5.1h-26.7c0.3,3.6,1.3,6,3.2,7.2c1.9,1.2,4.3,1.8,7.3,1.8c4.8,0,9.5-1.1,14-3.2v8c-4.6,2.5-9.7,3.7-15.5,3.7
		c-1.8,0-3.5-0.1-5.2-0.4c-1.6-0.3-3.3-0.9-5-1.9c-1.7-0.9-3.2-2.1-4.5-3.6c-1.2-1.5-2.3-3.5-3.1-6C273.1,51,272.7,48,272.7,44.7z
		 M282.6,41.1h16.6c-0.3-2.8-1.1-5.2-2.5-7.2c-1.4-1.9-3.4-2.9-5.8-2.9c-2.5,0-4.4,0.8-5.8,2.4C283.7,35,282.9,37.6,282.6,41.1z"/>
	<path class="logowhite0" d="M319.1,65.5V28c0.7-0.3,1.6-0.7,2.8-1.1c1.2-0.4,3.6-1.1,7.1-1.9c3.6-0.8,7.1-1.2,10.6-1.3v8.5
		c-4.1,0.1-7.7,0.5-10.6,1.4v31.9H319.1z"/>
</g>
<path class="logowhite0" d="M56.6,58.2c3.3,0,5.8-1.5,6.9-5.5l7.3-26c0.5-1.7-8.1,0-8.6,1.7l-6.4,21.9H44.1l5.5-18.5
	c0.5-1.7-8.2,0.1-8.7,1.7l-5.6,16.7H24.3L28.2,37c0.5-1.7-8.1,0.1-8.6,1.8l-3.4,11.6H0.9c-0.5-2.6-0.7-5.7-0.7-7.9v0
	c0-23.4,19-42.4,42.4-42.4s42.4,19,42.4,42.4v0c0,23.4-19,42.4-42.4,42.4C24.6,84.8,9.3,74,3.2,58.2H56.6z"/>
</svg>
