<svg id="icons" enable-background="new 0 0 64 64" height="512" viewBox="0 0 64 64" width="512" xmlns="http://www.w3.org/2000/svg"><g fill="#545c66"><path d="m63 10.998h-19.999c-.553 0-1-.447-1-1s.447-1 1-1h19.999c.553 0 1 .447 1 1s-.447 1-1 1z"/><path d="m63 51h-19.999c-.553 0-1-.447-1-1s.447-1 1-1h19.999c.553 0 1 .447 1 1s-.447 1-1 1z"/><path d="m43.001 56h-42.001c-.553 0-1-.447-1-1v-41c0-.553.447-1 1-1s1 .447 1 1v40h40.001v-40c0-.553.447-1 1-1s1 .447 1 1v41c0 .553-.447 1-1 1z"/></g><path d="m1 9v5 37h42v-1-4-12.02-7.96-12.02-4-1z" fill="#656d78"/><path d="m56.881 22-10.41 6.01c-.69-1.189-1.971-1.99-3.45-1.99h-.021v-12.02h.021c5.919 0 11.099 3.22 13.86 8z" fill="#ccd1d9"/><path d="m43.021 26.02c1.479 0 2.76.801 3.45 1.99.34.58.529 1.27.529 1.99s-.189 1.41-.529 1.99c-.69 1.189-1.971 1.99-3.45 1.99h-.021v-7.96z" fill="#fff"/><path d="m46.471 31.99 10.41 6.01c-2.761 4.78-7.94 8-13.86 8h-.021v-12.02h.021c1.479 0 2.759-.8 3.45-1.99z" fill="#ccd1d9"/><path d="m63 10v40h-20v-4h.021c5.92 0 11.1-3.22 13.86-8 1.359-2.35 2.14-5.08 2.14-8s-.78-5.65-2.14-8c-2.761-4.78-7.94-8-13.86-8h-.021v-4z" fill="#545c66"/><path d="m56.881 22c1.359 2.35 2.14 5.08 2.14 8s-.78 5.65-2.14 8l-10.41-6.01c.34-.58.529-1.27.529-1.99s-.189-1.41-.529-1.99z" fill="#e6e9ed"/><path d="m1 51h42v4h-42z" fill="#545c66"/><circle cx="22" cy="30" fill="#656d78" r="5"/><path d="m22 21c4.961 0 9 4.03 9 9s-4.039 9-9 9c-4.97 0-9-4.03-9-9s4.03-9 9-9zm5 9c0-2.76-2.239-5-5-5-2.76 0-5 2.24-5 5s2.24 5 5 5c2.761 0 5-2.24 5-5z" fill="#545c66"/><path d="m43.001 52h-42.001c-.553 0-1-.447-1-1v-42c0-.553.447-1 1-1h42.001c.553 0 1 .447 1 1v42c0 .553-.447 1-1 1zm-41.001-2h40.001v-40h-40.001z" fill="#656d78"/><path d="m63 51.998c-.553 0-1-.447-1-1v-41.998c0-.553.447-1 1-1s1 .447 1 1v41.998c0 .553-.447 1-1 1z" fill="#656d78"/></svg>