<svg id="icons" enable-background="new 0 0 64 64" height="512" viewBox="0 0 64 64" width="512" xmlns="http://www.w3.org/2000/svg"><path d="m49.002 63.999h-34.004c-2.757 0-5-2.243-5-5v-47.996c0-.553.447-1 1-1s1 .447 1 1v47.996c0 1.654 1.346 3 3 3h34.004c1.654 0 3-1.346 3-3v-47.996c0-.553.447-1 1-1s1 .447 1 1v47.996c0 2.757-2.243 5-5 5z" fill="#545c66"/><path d="m53 55v4c0 2.2-1.79 4-4 4h-34c-2.2 0-4-1.8-4-4v-4c0 2.2 1.8 4 4 4h23.17 10.83c2.21 0 4-1.8 4-4z" fill="#545c66"/><path d="m49 1h-17-17c-2.2 0-4 1.8-4 4v6 20.99l8 8.01v7c0-1.02.39-2.05 1.18-2.83.67-.67 3.74-2.7 7.04-4.81l-.01-.011c-7.62-2.099-13.21-9.069-13.21-17.349 0-9.94 8.06-18 18-18s18 8.06 18 18c0 9.8-7.83 17.77-17.57 18-2.64 4.17-5.75 8.98-6.6 9.83-.74.74-1.7 1.13-2.67 1.16v.01h7l8.01 8h10.83c2.21 0 4-1.8 4-4v-33-11-6c0-2.2-1.79-4-4-4z" fill="#545c66"/><path d="m23.16 51h7l8.01 8h-23.17c-2.2 0-4-1.8-4-4v-23.01l8 8.01v7c0 1.02.39 2.05 1.18 2.83.82.82 1.9 1.21 2.98 1.16z" fill="#ccd1d9"/><path d="m36.44 33.56c-.12.2-1.91 3.12-4.011 6.44-2.64 4.17-5.75 8.98-6.6 9.83-.74.74-1.7 1.13-2.67 1.16-1.08.05-2.16-.34-2.98-1.16-.789-.78-1.179-1.81-1.179-2.83s.39-2.05 1.18-2.83c.67-.67 3.74-2.7 7.04-4.81 4.29-2.77 8.97-5.65 9.22-5.8z" fill="#e6e9ed"/><path d="m36.44 33.56c-.25.15-4.931 3.03-9.221 5.801l-.01-.011c-7.619-2.1-13.209-9.07-13.209-17.35 0-9.94 8.06-18 18-18s18 8.06 18 18c0 9.8-7.83 17.77-17.57 18 2.1-3.32 3.89-6.24 4.01-6.44zm.56-11.56c0-2.76-2.24-5-5-5s-5 2.24-5 5 2.24 5 5 5 5-2.24 5-5z" fill="#ccd1d9"/><circle cx="32" cy="22" fill="#aab2bd" r="5"/><g fill="#ccd1d9"><path d="m32.029 21.002c-.553 0-1.005-.447-1.005-1s.442-1 .994-1h.011c.552 0 1 .447 1 1s-.448 1-1 1z"/><path d="m32.029 25.002c-.553 0-1.005-.447-1.005-1s.442-1 .994-1h.011c.552 0 1 .447 1 1s-.448 1-1 1z"/><path d="m34.029 23.002c-.553 0-1.005-.447-1.005-1s.442-1 .994-1h.011c.552 0 1 .447 1 1s-.448 1-1 1z"/><path d="m23.028 48.001c-.553 0-1.005-.447-1.005-1s.442-1 .994-1h.011c.552 0 1 .447 1 1s-.448 1-1 1z"/></g><path d="m15.028 56c-.553 0-1.005-.447-1.005-1s.442-1 .994-1h.011c.552 0 1 .447 1 1s-.448 1-1 1z" fill="#e6e9ed"/><path d="m30.029 23.002c-.553 0-1.005-.447-1.005-1s.442-1 .994-1h.011c.552 0 1 .447 1 1s-.448 1-1 1z" fill="#ccd1d9"/><path d="m49.002 59.999h-34.004c-2.757 0-5-2.243-5-5v-49.998c0-2.757 2.243-5 5-5h34.004c2.757 0 5 2.243 5 5v49.998c0 2.757-2.243 5-5 5zm-34.004-57.998c-1.654 0-3 1.346-3 3v49.998c0 1.654 1.346 3 3 3h34.004c1.654 0 3-1.346 3-3v-49.998c0-1.654-1.346-3-3-3z" fill="#656d78"/></svg>