<svg id="icons" enable-background="new 0 0 64 64" height="512" viewBox="0 0 64 64" width="512" xmlns="http://www.w3.org/2000/svg"><path d="m31.5 43h-20c-.146 0-.317 0-.5 0v4.002l.999 1h19.501c.55 0 1-.451 1-1v-3.002c0-.551-.45-1-1-1z" fill="#a0d468"/><path d="m10 47.002v-4.002c-.183 0-.354 0-.5 0h-1c-.55 0-1 .449-1 1v3.002c0 .549.45 1 1 1h.501z" fill="#a0d468"/><path d="m3.502 21.057h-2.002c-.553 0-1-.447-1-1 0-.552.447-1 1-1h2.002c.553 0 1 .448 1 1 0 .553-.447 1-1 1z" fill="#ccd1d9"/><path d="m9.002 15.001c.275 0 .5.45.5 1v28c0 .549-.225 1-.5 1s-3.953 0-4.503 0h-1c-.55 0-1-.451-1-1v-22.94c0-.55 0-1.45 0-2v-3.06c0-.55.45-1 1-1h1z" fill="#ccd1d9"/><path d="m58.5 15.001h-6-6-6-6-6-6-6-6-3v30.001h3 22 29.999l1.001-1.006v-28.995z" fill="#ed5565"/><path d="m13.5 12.001-3 3h-3v-2l1-1z" fill="#545c66"/><path d="m37.5 12.001-3 3h-6l3-3z" fill="#545c66"/><path d="m31.5 12.001-3 3h-6l3-3z" fill="#656d78"/><path d="m25.5 12.001-3 3h-6l3-3z" fill="#545c66"/><path d="m43.5 12.001-3 3h-6l3-3z" fill="#656d78"/><path d="m19.5 12.001-3 3h-6l3-3z" fill="#656d78"/><path d="m61.5 12.001-3 3h-6l2.99-3z" fill="#545c66"/><path d="m49.5 12.001-3 3h-6l3-3z" fill="#545c66"/><path d="m55.49 12.001-2.99 3h-6l3-3z" fill="#656d78"/><path d="m63.5 13.001v2h-5l3-3h1z" fill="#656d78"/><path d="m22.49 18.992c1.87 0 3.76.479 5.5 1.479.85.49 1.62 1.08 2.28 1.761 0 0-2.83.02-2.841 2.84-.01 2.67-2.55 2.81-2.81 2.819-.54-.55-1.3-.89-2.13-.89 0 0 1.99-1.99 0-3.99s0-4 0-4v-.019z" fill="#545c66"/><path d="m20.38 32.122c.54.54 1.29.87 2.11.87 0 0-1.99 1.991 0 4 1.91 1.92.16 3.85.01 4.01-1.87 0-3.77-.48-5.5-1.48-.85-.49-1.61-1.08-2.27-1.74.21-.01 2.81-.119 2.819-2.83.01-2.82 2.82-2.82 2.82-2.82z" fill="#545c66"/><path d="m19.49 30.011c0 .83.34 1.57.89 2.11l-.01.01s-2.811 0-2.82 2.82c-.01 2.711-2.609 2.82-2.819 2.83-2.091-2.08-3.23-4.89-3.24-7.77h.01s2 1.98 4 0c1.999-1.99 3.989 0 3.989 0z" fill="#434a54"/><path d="m30.271 37.771c-.011-.26-.171-2.811-2.841-2.83-2.819-.01-2.83-2.82-2.83-2.82.551-.53.881-1.28.891-2.101.16.15 2.06 1.891 3.979-.01 2.011-1.99 4.021 0 4.021 0 0 1.86-.47 3.75-1.47 5.481-.491.851-1.081 1.62-1.75 2.28z" fill="#545c66"/><path d="m22.49 36.992c-1.99-2.01 0-4 0-4 .83 0 1.569-.33 2.109-.87 0 0 .011 2.81 2.83 2.82 2.67.02 2.83 2.57 2.841 2.83-2.08 2.09-4.9 3.221-7.771 3.23.151-.16 1.901-2.09-.009-4.01z" fill="#434a54"/><path d="m24.62 27.891c.54.54.87 1.28.87 2.11v.02c-.01.82-.34 1.57-.891 2.101-.54.54-1.279.87-2.109.87-.82 0-1.57-.33-2.11-.87-.55-.54-.89-1.28-.89-2.11v-.01c0-.83.34-1.58.88-2.12s1.3-.88 2.12-.88c.83-.001 1.59.339 2.13.889z" fill="#656d78"/><path d="m19.49 30.001v.01s-1.99-1.99-3.99 0c-2 1.98-4 0-4 0h-.01c0-1.88.479-3.779 1.479-5.52.49-.851 1.07-1.61 1.74-2.271l.01.011s.011 2.819 2.83 2.829c2.82.011 2.82 2.82 2.82 2.82-.539.541-.879 1.291-.879 2.121z" fill="#545c66"/><path d="m33.49 30.011s-2.01-1.99-4.021 0c-1.92 1.9-3.819.16-3.979.01 0-.01 0-.01 0-.02 0-.83-.33-1.57-.87-2.11.26-.01 2.8-.149 2.81-2.819.011-2.82 2.841-2.84 2.841-2.84 2.089 2.069 3.219 4.899 3.219 7.779z" fill="#434a54"/><path d="m22.49 23.011c1.99 2 0 3.99 0 3.99-.82 0-1.58.34-2.12.88 0 0 0-2.81-2.82-2.82-2.819-.01-2.83-2.829-2.83-2.829l-.01-.011c2.07-2.09 4.9-3.229 7.78-3.229v.02c0-.001-1.99 1.999 0 3.999z" fill="#434a54"/><path d="m59.503 29.997c0 1.87-.479 3.759-1.479 5.5-.49.85-1.08 1.621-1.761 2.281 0 0-.02-2.83-2.84-2.842-2.67-.01-2.81-2.549-2.819-2.809.55-.54.89-1.3.89-2.13 0 0 1.99 1.99 3.99 0s4 0 4 0z" fill="#545c66"/><path d="m46.373 27.886c-.54.54-.87 1.29-.87 2.11 0 0-1.99-1.99-4 0-1.92 1.91-3.85.16-4.01.01 0-1.87.48-3.77 1.48-5.5.489-.85 1.079-1.61 1.739-2.27.011.21.12 2.81 2.83 2.819 2.82.01 2.82 2.82 2.82 2.82z" fill="#545c66"/><path d="m48.483 26.997c-.83 0-1.57.34-2.11.89l-.01-.01s0-2.811-2.82-2.82c-2.71-.01-2.819-2.609-2.83-2.819 2.08-2.091 4.891-3.23 7.771-3.24v.01s-1.98 2 0 4c1.99 1.998-.001 3.989-.001 3.989z" fill="#434a54"/><path d="m40.724 37.777c.26-.012 2.81-.172 2.829-2.842.011-2.819 2.82-2.83 2.82-2.83.53.551 1.28.881 2.101.891-.15.16-1.891 2.06.01 3.98 1.99 2.01 0 4.02 0 4.02-1.86 0-3.75-.469-5.48-1.469-.851-.49-1.621-1.08-2.28-1.75z" fill="#545c66"/><path d="m41.503 29.997c2.01-1.99 4 0 4 0 0 .83.33 1.569.87 2.109 0 0-2.81.011-2.82 2.83-.02 2.67-2.569 2.83-2.829 2.842-2.091-2.08-3.221-4.901-3.23-7.771.159.15 2.089 1.9 4.009-.01z" fill="#434a54"/><path d="m50.604 32.126c-.54.54-1.28.87-2.11.87-.01 0-.01 0-.02 0-.82-.01-1.57-.34-2.101-.891-.54-.54-.87-1.279-.87-2.109 0-.82.33-1.57.87-2.11.54-.55 1.28-.89 2.11-.89h.01c.83 0 1.58.34 2.12.88s.88 1.3.88 2.12c0 .831-.34 1.59-.889 2.13z" fill="#656d78"/><path d="m48.493 26.997h-.01s1.99-1.99 0-3.99c-1.98-2 0-4 0-4v-.01c1.88 0 3.779.479 5.52 1.479.851.49 1.61 1.07 2.271 1.74l-.011.01s-2.819.011-2.829 2.83c-.011 2.82-2.82 2.82-2.82 2.82-.541-.54-1.291-.879-2.121-.879z" fill="#545c66"/><path d="m48.483 40.996s1.99-2.01 0-4.02c-1.9-1.92-.16-3.82-.01-3.98h.02c.83 0 1.57-.33 2.11-.87.01.26.149 2.799 2.819 2.809 2.82.012 2.84 2.842 2.84 2.842-2.069 2.09-4.899 3.219-7.779 3.219z" fill="#434a54"/><path d="m55.483 29.997c-2 1.99-3.99 0-3.99 0 0-.82-.34-1.58-.88-2.12 0 0 2.81 0 2.82-2.82.01-2.819 2.829-2.83 2.829-2.83l.011-.01c2.09 2.07 3.229 4.9 3.229 7.78h-.02c.001 0-1.999-1.991-3.999 0z" fill="#434a54"/><path d="m3.502 51.998c-.553 0-1-.447-1-1v-35.019c0-.553.447-1 1-1s1 .447 1 1v35.019c0 .553-.447 1-1 1z" fill="#e6e9ed"/><circle cx="8.5" cy="13.001" fill="#545c66" r="1"/><circle cx="62.5" cy="13.001" fill="#656d78" r="1"/><circle cx="62.5" cy="43.996" fill="#ed5565" r="1"/><g fill="#a0d468"><circle cx="9.001" cy="47.002" r="1"/><circle cx="11.999" cy="47.002" r="1"/></g></svg>