<svg id="icons" enable-background="new 0 0 64 64" height="512" viewBox="0 0 64 64" width="512" xmlns="http://www.w3.org/2000/svg"><path d="m55.5 45.96c.55 0 1 .45 1 1v5.047c0 .55-.45 1-1 1h-3c-.55 0-1-.45-1-1v-5.047c0-.55.45-1 1-1z" fill="#e6e9ed"/><path d="m53.99 38.004h1.01l2 2v8h-1-4-1v-8l2-2z" fill="#656d78"/><path d="m14.01 50.004c0 .51.19 1.02.58 1.41s.89.59 1.41.59h.01 6.12l7 7h-18.13c-2.2 0-4-1.8-4-4v-18l7.01 7z" fill="#aab2bd"/><path d="m43 55.004v4c0 2.2-1.8 4-4 4h-28c-2.2 0-4-1.8-4-4v-4c0 2.2 1.8 4 4 4h18.13 9.87c2.2 0 4-1.8 4-4z" fill="#545c66"/><path d="m39 30.004c0 7.73-6.271 14-14 14-.63 0-1.25-.04-1.851-.12h-.01v-.01c1.58-2.13 2.86-3.87 2.86-3.87s-2.24 1.64-4.73 3.49c-5.919-1.63-10.269-7.05-10.269-13.49 0-7.73 6.27-14 14-14 7.729 0 14 6.269 14 14zm-11 0c0-1.66-1.34-3-3-3-1.65 0-3 1.34-3 3 0 1.65 1.35 3 3 3 1.66 0 3-1.35 3-3z" fill="#ccd1d9"/><path d="m23.14 43.884c-2.31 3.12-5.26 7.07-5.72 7.53-.39.39-.9.59-1.41.59h-.01c-.521 0-1.021-.2-1.41-.59-.39-.391-.58-.9-.58-1.41 0-.52.19-1.03.58-1.42.42-.42 3.74-2.9 6.68-5.09 2.49-1.851 4.73-3.49 4.73-3.49s-1.28 1.74-2.86 3.87z" fill="#e6e9ed"/><path d="m23.149 43.884c.601.08 1.221.12 1.851.12 7.729 0 14-6.27 14-14s-6.271-14-14-14c-7.73 0-14 6.27-14 14 0 6.44 4.35 11.86 10.27 13.49-2.939 2.189-6.26 4.67-6.68 5.09-.39.39-.58.9-.58 1.42v-6l-7.01-7v-18-3c0-2.2 1.8-4 4-4h14 14c2.2 0 4 1.8 4 4v3 36c0 2.2-1.8 4-4 4h-9.87l-7-7h-6.12c.51 0 1.021-.2 1.41-.59.46-.46 3.41-4.41 5.72-7.53z" fill="#545c66"/><path d="m25 27.004c1.66 0 3 1.34 3 3 0 1.65-1.34 3-3 3-1.65 0-3-1.35-3-3 0-1.66 1.35-3 3-3z" fill="#aab2bd"/><path d="m11.03 56.003c-.553 0-1.005-.447-1.005-1s.442-1 .994-1h.011c.552 0 1 .447 1 1s-.448 1-1 1z" fill="#ccd1d9"/><g fill="#545c66"><path d="m38.998 64.002h-27.998c-2.757 0-5-2.243-5-5v-40c0-.553.447-1 1-1s1 .447 1 1v40c0 1.654 1.346 3 3 3h27.998c1.654 0 3-1.346 3-3v-40c0-.553.447-1 1-1s1 .447 1 1v40c0 2.757-2.243 5-5 5z"/><path d="m24.999 13.004c-.553 0-1-.447-1-1v-4.96c0-.553.447-1 1-1s1 .447 1 1v4.96c0 .553-.447 1-1 1z"/><path d="m24.995 8.044c-.553 0-1-.447-1-1 0-3.885 3.16-7.045 7.045-7.045.553 0 1 .447 1 1s-.447 1-1 1c-2.782 0-5.045 2.263-5.045 5.045 0 .553-.447 1-1 1z"/><path d="m53.991 39.002c-.553 0-1-.447-1-1v-31c0-.553.447-1 1-1s1 .447 1 1v31c0 .553-.447 1-1 1z"/><path d="m53.995 8.002c-.553 0-1-.447-1-1 0-2.759-2.245-5.004-5.004-5.004-.553 0-1-.447-1-1s.447-1 1-1c3.862 0 7.004 3.142 7.004 7.004 0 .553-.447 1-1 1z"/><path d="m47.992 1.999h-16.992c-.553 0-1-.447-1-1s.447-1 1-1h16.992c.553 0 1 .447 1 1s-.447 1-1 1z"/></g><path d="m57 49.003h-6c-.553 0-1-.447-1-1v-7.999c0-.265.105-.52.293-.707l2-2.002c.188-.188.441-.293.707-.293h1.999c.266 0 .52.105.707.293l2.001 2.002c.188.187.293.442.293.707v7.999c0 .553-.447 1-1 1zm-5-2h4v-6.585l-1.415-1.416h-1.171l-1.414 1.416z" fill="#656d78"/><path d="m38.998 60.003h-27.998c-2.757 0-5-2.243-5-5v-38.999c0-2.757 2.243-5 5-5h27.998c2.757 0 5 2.243 5 5v38.999c0 2.757-2.243 5-5 5zm-27.998-46.999c-1.654 0-3 1.346-3 3v38.999c0 1.654 1.346 3 3 3h27.998c1.654 0 3-1.346 3-3v-38.999c0-1.654-1.346-3-3-3z" fill="#656d78"/></svg>