<svg id="icons" enable-background="new 0 0 64 64" height="512" viewBox="0 0 64 64" width="512" xmlns="http://www.w3.org/2000/svg"><path d="m24 48.998c-.55 0-1 .45-1 1v12.002c0 .55.45 1 1 1h16c.55 0 1-.45 1-1v-12.002c0-.55-.45-1-1-1z" fill="#e6e9ed"/><path d="m32 1c-7.18 0-13 5.82-13 13h.01v34c0 1.66 1.34 3 3 3h.99 18 1c1.66 0 3-1.34 3-3v-34c0-7.18-5.82-13-13-13z" fill="#ed5565"/><path d="m29 54c.55 0 1 .45 1 1v1c0 .55-.45 1-1 1h-3.001c-.55 0-1-.45-1-1v-1c0-.55.45-1 1-1z" fill="#656d78"/><path d="m38.001 54c.55 0 1 .45 1 1v1c0 .55-.45 1-1 1h-3.001c-.55 0-1-.45-1-1v-1c0-.55.45-1 1-1z" fill="#656d78"/><path d="m32 18c3.32 0 6 2.69 6 6s-2.68 6-6 6c-3.31 0-6-2.69-6-6s2.69-6 6-6zm3 6c0-1.66-1.34-3-3-3-1.65 0-3 1.34-3 3s1.35 3 3 3c1.66 0 3-1.34 3-3z" fill="#ffce54"/><g fill="#da4453"><path d="m40.001 34.992h-16.002c-.553 0-1-.447-1-1s.447-1 1-1h16.002c.553 0 1 .447 1 1s-.447 1-1 1z"/><path d="m37.003 37.992h-10.006c-.553 0-1-.447-1-1s.447-1 1-1h10.006c.553 0 1 .447 1 1s-.447 1-1 1z"/></g></svg>