<svg id="icons" enable-background="new 0 0 64 64" height="512" viewBox="0 0 64 64" width="512" xmlns="http://www.w3.org/2000/svg"><path d="m48.5 8.502c-.553 0-1-.447-1-1v-6.001c0-.553.447-1 1-1s1 .447 1 1v6.001c0 .553-.447 1-1 1z" fill="#ffce54"/><path d="m15.5 9.503c-.553 0-1-.447-1-1v-7.002c0-.553.447-1 1-1s1 .447 1 1v7.002c0 .553-.447 1-1 1z" fill="#ffce54"/><path d="m13 8.501c0-.553.447-1 1-1h2.998c.553 0 1 .447 1 1s-.447 1-1 1h-2.998c-.553 0-1-.447-1-1z" fill="#656d78"/><path d="m46.001 8.501c0-.553.447-1 1-1h2.998c.553 0 1 .447 1 1s-.447 1-1 1h-2.998c-.553 0-1-.447-1-1z" fill="#656d78"/><path d="m51 16.501-1 3.008h-3l-1-3.008z" fill="#545c66"/><path d="m32 60.499c8.29 0 15-6.72 15-15 0-8.29-6.71-15-15-15-8.28 0-15 6.71-15 15 0 8.28 6.72 15 15 15zm15-24.95c1.899 2.851 3 6.271 3 9.95 0 9.94-8.061 18-18 18-9.94 0-18-8.06-18-18 0-3.68 1.1-7.1 3-9.95 3.22-4.85 8.739-8.05 15-8.05 6.26 0 11.779 3.2 15 8.05z" fill="#545c66"/><path d="m50 19.519v25.98c0-3.68-1.101-7.1-3-9.95v-16.03-.01h3z" fill="#434a54"/><path d="m51 8.501v8h-5v-8h2.5z" fill="#656d78"/><path d="m18 16.501-1 3.008h-3l-1-3.008z" fill="#545c66"/><path d="m17 19.509v16.04c-1.9 2.851-3 6.271-3 9.95v-25.99z" fill="#434a54"/><path d="m18 8.501v8h-5v-8h2.5z" fill="#656d78"/></svg>