<svg id="icons" enable-background="new 0 0 64 64" height="512" viewBox="0 0 64 64" width="512" xmlns="http://www.w3.org/2000/svg"><path d="m14.502 63.5c-.553 0-1-.447-1-1v-22.998c0-.553.447-1 1-1s1 .447 1 1v22.998c0 .553-.447 1-1 1z" fill="#ccd1d9"/><path d="m21.496 63.5c-.553 0-1-.447-1-1v-22.998c0-.553.447-1 1-1s1 .447 1 1v22.998c0 .553-.447 1-1 1z" fill="#ccd1d9"/><path d="m24.5 7.5c1.11 0 2-.9 2-2 0-1.109-.89-2-2-2h-13c-1.1 0-2 .891-2 2 0 1.1.9 2 2 2zm-18-2c0-2.76 2.24-5 5-5h13c2.76 0 5 2.24 5 5s-2.24 5-5 5h-13c-2.76 0-5-2.24-5-5z" fill="#4a89dc"/><path d="m24.5 3.5c1.11 0 2 .891 2 2 0 1.1-.89 2-2 2h-13c-1.1 0-2-.9-2-2 0-1.109.9-2 2-2z" fill="#e6e9ed"/><path d="m6.5 34.5v-4c0 2.76 2.24 5 5 5h13c2.76 0 5-2.24 5-5v4c0 2.76-2.24 5-5 5h-3-7-3c-2.76 0-5-2.24-5-5z" fill="#4a89dc"/><path d="m29.5 5.5v25c0 2.76-2.24 5-5 5h-13c-2.76 0-5-2.24-5-5v-25c0 2.76 2.24 5 5 5h13c2.76 0 5-2.24 5-5z" fill="#5d9cec"/><path d="m16.498 30.502c-.553 0-1-.447-1-1v-13.002c0-.553.447-1 1-1s1 .447 1 1v13.002c0 .553-.447 1-1 1z" fill="#4a89dc"/><path d="m19.5 27.502c-.553 0-1-.447-1-1v-7.002c0-.553.447-1 1-1s1 .447 1 1v7.002c0 .553-.447 1-1 1z" fill="#4a89dc"/><path d="m42.502 63.5c-.553 0-1-.447-1-1v-22.998c0-.553.447-1 1-1s1 .447 1 1v22.998c0 .553-.447 1-1 1z" fill="#ccd1d9"/><path d="m49.496 63.5c-.553 0-1-.447-1-1v-22.998c0-.553.447-1 1-1s1 .447 1 1v22.998c0 .553-.447 1-1 1z" fill="#ccd1d9"/><path d="m57.5 5.5v25c0 2.76-2.24 5-5 5h-13c-2.76 0-5-2.24-5-5v-25c0 2.76 2.24 5 5 5h13c2.76 0 5-2.24 5-5z" fill="#5d9cec"/><path d="m52.5 3.5c1.11 0 2 .891 2 2 0 1.1-.89 2-2 2h-13c-1.1 0-2-.9-2-2 0-1.109.9-2 2-2z" fill="#e6e9ed"/><g fill="#4a89dc"><path d="m52.5 10.5h-13c-2.76 0-5-2.24-5-5s2.24-5 5-5h13c2.76 0 5 2.24 5 5s-2.24 5-5 5zm0-7h-13c-1.1 0-2 .891-2 2 0 1.1.9 2 2 2h13c1.11 0 2-.9 2-2 0-1.109-.89-2-2-2z"/><path d="m34.5 30.5c0 2.76 2.24 5 5 5h13c2.76 0 5-2.24 5-5v4c0 2.76-2.24 5-5 5h-3-7-3c-2.76 0-5-2.24-5-5z"/><path d="m44.498 30.502c-.553 0-1-.447-1-1v-13.002c0-.553.447-1 1-1s1 .447 1 1v13.002c0 .553-.447 1-1 1z"/><path d="m47.5 27.502c-.553 0-1-.447-1-1v-7.002c0-.553.447-1 1-1s1 .447 1 1v7.002c0 .553-.447 1-1 1z"/></g></svg>