<svg id="icons" enable-background="new 0 0 64 64" height="512" viewBox="0 0 64 64" width="512" xmlns="http://www.w3.org/2000/svg"><path d="m51.498 64c-.553 0-1-.447-1-1v-29.996c0-.553.447-1 1-1s1 .447 1 1v29.996c0 .553-.447 1-1 1z" fill="#ccd1d9"/><path d="m41.502 64c-.553 0-1-.447-1-1v-29.996c0-.553.447-1 1-1s1 .447 1 1v29.996c0 .553-.447 1-1 1z" fill="#ccd1d9"/><path d="m41.5 30h3 7 5 .5c.83 0 1.5.67 1.5 1.5s-.67 1.5-1.5 1.5h-5.5-10-5.5c-.83 0-1.5-.67-1.5-1.5s.67-1.5 1.5-1.5h.5z" fill="#ed5565"/><path d="m44.5 24v6h-3v-8z" fill="#ce2c3f"/><path d="m51.5 17v8l-6-4v-4z" fill="#ce2c3f"/><path d="m51.5 25v-8h-6v4zm0 5h-7v-6l-3-2v8h-5v-19-.01c.01-5.53 4.48-9.99 10-9.99s9.99 4.46 10 9.99v.01 19z" fill="#da4453"/><path d="m22.5 22v8h-3v-6z" fill="#aab2bd"/><path d="m18.5 17v4l-6 4v-8z" fill="#aab2bd"/><path d="m28 30c.83 0 1.5.67 1.5 1.5s-.67 1.5-1.5 1.5h-5.5-10-5.5c-.83 0-1.5-.67-1.5-1.5s.67-1.5 1.5-1.5h.5 5 7 3 5z" fill="#e6e9ed"/><path d="m12.5 25 6-4v-4h-6zm10-3-3 2v6h-7-5v-19-.01c.01-5.53 4.48-9.99 10-9.99s9.99 4.46 10 9.99v.01 19h-5z" fill="#ccd1d9"/><path d="m27.5 12c-.553 0-1-.447-1-1 0-4.963-4.037-9-9-9s-9 4.037-9 9c0 .553-.447 1-1 1s-1-.447-1-1c0-6.065 4.934-11 11-11 6.064 0 11 4.935 11 11 0 .553-.447 1-1 1z" fill="#ccd1d9"/><path d="m7.502 31.005c-.553 0-1-.447-1-1v-19.007c0-.553.447-1 1-1s1 .447 1 1v19.007c0 .553-.447 1-1 1z" fill="#ccd1d9"/><path d="m27.498 31.005c-.553 0-1-.447-1-1v-19.007c0-.553.447-1 1-1s1 .447 1 1v19.007c0 .553-.447 1-1 1z" fill="#ccd1d9"/><path d="m12.502 31.005c-.553 0-1-.447-1-1v-14.005c0-.553.447-1 1-1s1 .447 1 1v14.005c0 .553-.447 1-1 1z" fill="#aab2bd"/><path d="m18.5 18h-5.998c-.553 0-1-.447-1-1s.447-1 1-1h5.998c.553 0 1 .447 1 1s-.447 1-1 1z" fill="#aab2bd"/><path d="m18.5 22c-.553 0-1-.447-1-1v-4c0-.553.447-1 1-1s1 .447 1 1v4c0 .553-.447 1-1 1z" fill="#aab2bd"/><path d="m12.504 26c-.324 0-.641-.156-.834-.445-.307-.459-.182-1.08.277-1.387l5.998-4c.457-.307 1.08-.183 1.387.277.307.459.182 1.08-.277 1.387l-5.998 4c-.17.113-.364.168-.553.168z" fill="#aab2bd"/><path d="m22.498 31.005c-.553 0-1-.447-1-1v-14.005c0-.553.447-1 1-1s1 .447 1 1v14.005c0 .553-.447 1-1 1z" fill="#aab2bd"/><path d="m19.5 31.005c-.553 0-1-.447-1-1v-6.005c0-.553.447-1 1-1s1 .447 1 1v6.005c0 .553-.447 1-1 1z" fill="#aab2bd"/><path d="m19.5 25c-.322 0-.641-.156-.832-.445-.307-.46-.184-1.08.277-1.387l2.998-1.999c.461-.307 1.082-.183 1.387.277.307.46.184 1.08-.277 1.387l-2.998 1.999c-.172.113-.364.168-.555.168z" fill="#aab2bd"/><path d="m12.502 64c-.553 0-1-.447-1-1v-29.996c0-.553.447-1 1-1s1 .447 1 1v29.996c0 .553-.447 1-1 1z" fill="#ccd1d9"/><path d="m22.498 64c-.553 0-1-.447-1-1v-29.996c0-.553.447-1 1-1s1 .447 1 1v29.996c0 .553-.447 1-1 1z" fill="#ccd1d9"/><path d="m56.5 12c-.553 0-1-.447-1-1 0-4.963-4.037-9-9-9s-9 4.037-9 9c0 .553-.447 1-1 1s-1-.447-1-1c0-6.065 4.936-11 11-11 6.066 0 11 4.935 11 11 0 .553-.447 1-1 1z" fill="#da4453"/><path d="m56.498 31.005c-.553 0-1-.447-1-1v-19.007c0-.553.447-1 1-1s1 .447 1 1v19.007c0 .553-.447 1-1 1z" fill="#da4453"/><path d="m36.502 31.005c-.553 0-1-.447-1-1v-19.007c0-.553.447-1 1-1s1 .447 1 1v19.007c0 .553-.447 1-1 1z" fill="#da4453"/><path d="m56.998 34.005c-.553 0-1-.447-1-1s.447-1 1-1c.275 0 .5-.225.5-.5s-.225-.5-.5-.5c-.553 0-1-.447-1-1s.447-1 1-1c1.379 0 2.5 1.121 2.5 2.5s-1.121 2.5-2.5 2.5z" fill="#ed5565"/><path d="m36.002 34.005c-1.379 0-2.5-1.121-2.5-2.5s1.121-2.5 2.5-2.5c.553 0 1 .447 1 1s-.447 1-1 1c-.275 0-.5.225-.5.5s.225.5.5.5c.553 0 1 .447 1 1s-.447 1-1 1z" fill="#ed5565"/><path d="m56.998 34.004h-20.996c-.553 0-1-.447-1-1s.447-1 1-1h20.996c.553 0 1 .447 1 1s-.447 1-1 1z" fill="#ed5565"/><g fill="#ce2c3f"><path d="m51.498 31.005c-.553 0-1-.447-1-1v-14.005c0-.553.447-1 1-1s1 .447 1 1v14.005c0 .553-.447 1-1 1z"/><path d="m51.498 18h-5.998c-.553 0-1-.447-1-1s.447-1 1-1h5.998c.553 0 1 .447 1 1s-.447 1-1 1z"/><path d="m45.5 22c-.553 0-1-.447-1-1v-4c0-.553.447-1 1-1s1 .447 1 1v4c0 .553-.447 1-1 1z"/><path d="m51.496 26c-.189 0-.383-.055-.553-.168l-5.998-4c-.459-.307-.584-.928-.277-1.387.307-.46.928-.584 1.387-.277l5.998 4c.459.307.584.928.277 1.387-.193.289-.51.445-.834.445z"/><path d="m41.502 31.005c-.553 0-1-.447-1-1v-14.005c0-.553.447-1 1-1s1 .447 1 1v14.005c0 .553-.447 1-1 1z"/><path d="m44.5 31.005c-.553 0-1-.447-1-1v-6.005c0-.553.447-1 1-1s1 .447 1 1v6.005c0 .553-.447 1-1 1z"/><path d="m44.5 25c-.191 0-.383-.055-.555-.168l-2.998-1.999c-.461-.307-.584-.927-.277-1.387.305-.46.926-.584 1.387-.277l2.998 1.999c.461.307.584.927.277 1.387-.191.289-.51.445-.832.445z"/></g><path d="m7.002 34.005c-1.379 0-2.5-1.121-2.5-2.5s1.121-2.5 2.5-2.5c.553 0 1 .447 1 1s-.447 1-1 1c-.275 0-.5.225-.5.5s.225.5.5.5c.553 0 1 .447 1 1s-.447 1-1 1z" fill="#e6e9ed"/><path d="m27.998 34.005c-.553 0-1-.447-1-1s.447-1 1-1c.275 0 .5-.225.5-.5s-.225-.5-.5-.5c-.553 0-1-.447-1-1s.447-1 1-1c1.379 0 2.5 1.121 2.5 2.5s-1.121 2.5-2.5 2.5z" fill="#e6e9ed"/><path d="m27.998 31.005h-20.996c-.553 0-1-.447-1-1s.447-1 1-1h20.996c.553 0 1 .447 1 1s-.447 1-1 1z" fill="#e6e9ed"/><path d="m27.998 34.004h-20.996c-.553 0-1-.447-1-1s.447-1 1-1h20.996c.553 0 1 .447 1 1s-.447 1-1 1z" fill="#e6e9ed"/><path d="m56.998 31.005h-20.996c-.553 0-1-.447-1-1s.447-1 1-1h20.996c.553 0 1 .447 1 1s-.447 1-1 1z" fill="#ed5565"/></svg>