<?xml version="1.0" encoding="iso-8859-1"?>
<!-- Generator: Adobe Illustrator 19.0.0, SVG Export Plug-In . SVG Version: 6.00 Build 0)  -->
<svg version="1.1" id="Capa_1" xmlns="http://www.w3.org/2000/svg" xmlns:xlink="http://www.w3.org/1999/xlink" x="0px" y="0px"
	 viewBox="0 0 491.52 491.52" style="enable-background:new 0 0 491.52 491.52;" xml:space="preserve">
<circle style="fill:#EFC84A;" cx="245.76" cy="245.76" r="245.76"/>
<rect x="146.652" y="104.96" style="fill:#E1E6E9;" width="198.221" height="281.6"/>
<rect x="146.652" y="104.96" style="fill:#FFFFFF;" width="198.221" height="271.36"/>
<path style="fill:#E56353;" d="M182.485,191.879v-6.432c-8.052-0.824-15.28-4.022-21.675-9.608l6.431-7.665
	c4.933,4.288,10.01,6.848,15.244,7.665v-17.093c-6.64-1.585-11.501-3.664-14.584-6.253c-3.083-2.581-4.624-6.417-4.624-11.501
	c0-5.076,1.771-9.235,5.327-12.462c3.556-3.234,8.181-4.998,13.881-5.292v-4.402h5.636v4.495c6.46,0.466,12.569,2.675,18.327,6.604
	l-5.729,8.109c-3.879-2.76-8.074-4.467-12.598-5.112v16.563h0.265c6.754,1.584,11.716,3.736,14.885,6.431
	c3.176,2.703,4.761,6.625,4.761,11.766s-1.821,9.321-5.464,12.555c-3.642,3.226-8.454,4.99-14.448,5.284v6.345H182.485z
	 M176.268,135.007c-1.499,1.319-2.244,2.968-2.244,4.933c0,1.972,0.588,3.521,1.764,4.668c1.169,1.147,3.406,2.251,6.697,3.305
	v-15.244C179.839,132.905,177.767,133.687,176.268,135.007z M194.817,173.639c1.642-1.348,2.467-3.055,2.467-5.112
	c0-2.051-0.646-3.685-1.936-4.89c-1.298-1.197-3.707-2.33-7.227-3.391v15.86C190.938,175.811,193.168,174.994,194.817,173.639z"/>
<g>
	<rect x="223.217" y="132.716" style="fill:#EBF0F3;" width="104.438" height="5.12"/>
	<rect x="223.217" y="156.452" style="fill:#EBF0F3;" width="104.438" height="5.12"/>
	<rect x="223.217" y="180.173" style="fill:#EBF0F3;" width="104.438" height="5.12"/>
	<rect x="160.809" y="203.93" style="fill:#EBF0F3;" width="166.845" height="5.12"/>
	<rect x="160.809" y="227.686" style="fill:#EBF0F3;" width="166.845" height="5.12"/>
	<rect x="160.809" y="251.392" style="fill:#EBF0F3;" width="106.317" height="5.12"/>
	<rect x="160.809" y="275.139" style="fill:#EBF0F3;" width="166.845" height="5.12"/>
	<rect x="160.809" y="298.854" style="fill:#EBF0F3;" width="166.845" height="5.12"/>
	<rect x="160.809" y="322.611" style="fill:#EBF0F3;" width="166.845" height="5.12"/>
	<rect x="160.809" y="346.368" style="fill:#EBF0F3;" width="69.524" height="5.12"/>
</g>
<g>
</g>
<g>
</g>
<g>
</g>
<g>
</g>
<g>
</g>
<g>
</g>
<g>
</g>
<g>
</g>
<g>
</g>
<g>
</g>
<g>
</g>
<g>
</g>
<g>
</g>
<g>
</g>
<g>
</g>
</svg>
