<svg id="icons" enable-background="new 0 0 64 64" height="512" viewBox="0 0 64 64" width="512" xmlns="http://www.w3.org/2000/svg"><path d="m11.998 32.998h-10.998c-.553 0-1-.447-1-1 0-.552.447-1 1-1h10.998c.553 0 1 .448 1 1 0 .553-.447 1-1 1z" fill="#545c66"/><path d="m29.999 33.002h-13.998c-.553 0-1-.448-1-1 0-.553.447-1 1-1h13.998c.553 0 1 .447 1 1 0 .552-.447 1-1 1z" fill="#545c66"/><path d="m48 33.002h-13.998c-.553 0-1-.448-1-1 0-.553.447-1 1-1h13.998c.553 0 1 .447 1 1 0 .552-.447 1-1 1z" fill="#545c66"/><path d="m63 33.002h-10.997c-.553 0-1-.448-1-1 0-.553.447-1 1-1h10.997c.553 0 1 .447 1 1 0 .552-.447 1-1 1z" fill="#545c66"/><path d="m32.001 39.998c-.553 0-1-.447-1-1v-4.994c0-.553.447-1 1-1s1 .447 1 1v4.994c0 .553-.447 1-1 1z" fill="#545c66"/><path d="m50.002 31c-.553 0-1-.448-1-1v-5.006c0-.553.447-1 1-1s1 .447 1 1v5.006c0 .552-.447 1-1 1z" fill="#545c66"/><path d="m14 31c-.553 0-1-.448-1-1v-5.006c0-.553.447-1 1-1s1 .447 1 1v5.006c0 .552-.447 1-1 1z" fill="#545c66"/><g fill="#ccd1d9"><path d="m16 21 1 3.99h-3-3l1-3.99z"/><path d="m52 21 1 3.99h-3-3l1-3.99z"/><path d="m34 53 1 4h-6l1-4z"/><path d="m11.004 25.994c-.08 0-.162-.01-.243-.03-.536-.134-.862-.677-.728-1.213l1-4c.133-.536.675-.864 1.212-.728.536.134.862.677.728 1.213l-1 4c-.114.454-.521.758-.969.758z"/><path d="m17.002 25.994c-.448 0-.855-.304-.969-.758l-1-4c-.135-.536.191-1.079.728-1.213.535-.136 1.078.191 1.212.728l1 4c.135.536-.191 1.079-.728 1.213-.081.02-.163.03-.243.03z"/><path d="m46.998 25.994c-.08 0-.162-.01-.243-.03-.536-.134-.862-.677-.728-1.213l1-4c.133-.536.674-.864 1.212-.728.536.134.862.677.728 1.213l-1 4c-.113.454-.521.758-.969.758z"/><path d="m52.996 25.994c-.448 0-.855-.304-.969-.758l-1-4c-.135-.536.191-1.079.728-1.213.534-.136 1.078.191 1.212.728l1 4c.135.536-.191 1.079-.728 1.213-.081.02-.163.03-.243.03z"/><path d="m29.001 58c-.08 0-.162-.01-.243-.03-.536-.134-.862-.677-.728-1.212l1-4c.134-.537.676-.865 1.212-.728.536.134.862.677.728 1.212l-1 4c-.114.455-.521.758-.969.758z"/><path d="m34.999 58c-.448 0-.855-.303-.969-.758l-1-4c-.135-.535.191-1.078.728-1.212.533-.137 1.078.19 1.212.728l1 4c.135.535-.191 1.078-.728 1.212-.081.02-.163.03-.243.03z"/></g><path d="m52 21h-4-7c-.55 0-1-.45-1-1v-12c0-.55.45-1 1-1h18c.55 0 1 .45 1 1v12c0 .55-.45 1-1 1z" fill="#5d9cec"/><path d="m42 40v12c0 .55-.45 1-1 1h-7-4-7c-.55 0-1-.45-1-1v-12c0-.55.45-1 1-1h9 9c.55 0 1 .45 1 1z" fill="#5d9cec"/><path d="m16 21h-4-7c-.55 0-1-.45-1-1v-12c0-.55.45-1 1-1h18c.55 0 1 .45 1 1v12c0 .55-.45 1-1 1z" fill="#5d9cec"/><path d="m18.003 25.994h-8c-.553 0-1-.448-1-1 0-.553.447-1 1-1h8c.553 0 1 .447 1 1 0 .552-.447 1-1 1z" fill="#e6e9ed"/><path d="m10.003 13h-1c-.553 0-1-.448-1-1 0-.553.447-1 1-1h1c.553 0 1 .447 1 1 0 .552-.447 1-1 1z" fill="#4a89dc"/><path d="m19.003 13h-6c-.553 0-1-.448-1-1 0-.553.447-1 1-1h6c.553 0 1 .447 1 1 0 .552-.447 1-1 1z" fill="#4a89dc"/><path d="m12.003 17h-3c-.553 0-1-.448-1-1 0-.553.447-1 1-1h3c.553 0 1 .447 1 1 0 .552-.447 1-1 1z" fill="#4a89dc"/><path d="m19.003 17h-4c-.553 0-1-.448-1-1 0-.553.447-1 1-1h4c.553 0 1 .447 1 1 0 .552-.447 1-1 1z" fill="#4a89dc"/><path d="m53.997 25.994h-8c-.553 0-1-.448-1-1 0-.553.447-1 1-1h8c.553 0 1 .447 1 1 0 .552-.447 1-1 1z" fill="#e6e9ed"/><path d="m45.997 17h-1c-.553 0-1-.448-1-1 0-.553.447-1 1-1h1c.553 0 1 .447 1 1 0 .552-.447 1-1 1z" fill="#4a89dc"/><path d="m54.997 17h-6c-.553 0-1-.448-1-1 0-.553.447-1 1-1h6c.553 0 1 .447 1 1 0 .552-.447 1-1 1z" fill="#4a89dc"/><path d="m47.997 13h-3c-.553 0-1-.448-1-1 0-.553.447-1 1-1h3c.553 0 1 .447 1 1 0 .552-.447 1-1 1z" fill="#4a89dc"/><path d="m54.997 13h-4c-.553 0-1-.448-1-1 0-.553.447-1 1-1h4c.553 0 1 .447 1 1 0 .552-.447 1-1 1z" fill="#4a89dc"/><path d="m25.003 20v-12c0-1.104-.897-2-2-2h-18c-1.103 0-2 .896-2 2v12c0 1.103.897 2 2 2h18c1.102 0 2-.897 2-2zm-20 0v-12h18l-.004 12z" fill="#e6e9ed"/><path d="m58.997 6h-18c-1.103 0-2 .896-2 2v12c0 1.103.897 2 2 2h18c1.103 0 2-.897 2-2v-12c0-1.104-.897-2-2-2zm-.004 14h-17.996v-12h18z" fill="#e6e9ed"/><path d="m41 38.006h-18c-1.103 0-2 .897-2 2v12c0 1.103.897 2 2 2h18c1.103 0 2-.897 2-2v-12c0-1.103-.897-2-2-2zm-.004 14h-17.996v-12h18z" fill="#e6e9ed"/><path d="m36 58h-8c-.553 0-1-.447-1-1s.447-1 1-1h8c.553 0 1 .447 1 1s-.447 1-1 1z" fill="#e6e9ed"/><path d="m28 49.006h-1c-.553 0-1-.447-1-1s.447-1 1-1h1c.553 0 1 .447 1 1s-.447 1-1 1z" fill="#4a89dc"/><path d="m37 49.006h-6c-.553 0-1-.447-1-1s.447-1 1-1h6c.553 0 1 .447 1 1s-.447 1-1 1z" fill="#4a89dc"/><path d="m30 45.006h-3c-.553 0-1-.447-1-1s.447-1 1-1h3c.553 0 1 .447 1 1s-.447 1-1 1z" fill="#4a89dc"/><path d="m37 45.006h-4c-.553 0-1-.447-1-1s.447-1 1-1h4c.553 0 1 .447 1 1s-.447 1-1 1z" fill="#4a89dc"/><path d="m50 29.5c1.388 0 2.5 1.113 2.5 2.5 0 1.375-1.112 2.5-2.5 2.5-1.375 0-2.5-1.125-2.5-2.5 0-1.387 1.125-2.5 2.5-2.5z" fill="#656d78"/><path d="m14 29.5c1.375 0 2.5 1.113 2.5 2.5 0 1.375-1.125 2.5-2.5 2.5-1.388 0-2.5-1.125-2.5-2.5 0-1.387 1.112-2.5 2.5-2.5z" fill="#656d78"/><path d="m32 29.5c1.388 0 2.5 1.113 2.5 2.5 0 1.375-1.112 2.5-2.5 2.5s-2.5-1.125-2.5-2.5c0-1.387 1.112-2.5 2.5-2.5z" fill="#656d78"/></svg>