<svg id="icons" enable-background="new 0 0 64 64" height="512" viewBox="0 0 64 64" width="512" xmlns="http://www.w3.org/2000/svg"><path d="m49 1h-34c-2.2 0-4 1.8-4 4v4 46c0 2.2 1.8 4 4 4h34c2.2 0 4-1.8 4-4v-46-4c0-2.2-1.8-4-4-4z" fill="#656d78"/><path d="m53 55v4c0 2.2-1.8 4-4 4h-34c-2.2 0-4-1.8-4-4v-4c0 2.2 1.8 4 4 4h8.99 6 15.01 4c2.2 0 4-1.8 4-4z" fill="#545c66"/><path d="m49.03 6c-.553 0-1.005-.447-1.005-1s.442-1 .994-1h.011c.552 0 1 .447 1 1s-.448 1-1 1z" fill="#545c66"/><path d="m15.03 6c-.553 0-1.005-.447-1.005-1s.442-1 .994-1h.011c.552 0 1 .447 1 1s-.448 1-1 1z" fill="#545c66"/><path d="m49.03 56.049c-.553 0-1.005-.447-1.005-1s.442-1 .994-1h.011c.552 0 1 .447 1 1s-.448 1-1 1z" fill="#545c66"/><path d="m15.03 56.049c-.553 0-1.005-.447-1.005-1s.442-1 .994-1h.011c.552 0 1 .447 1 1s-.448 1-1 1z" fill="#545c66"/><path d="m29.494 58.999v-3s-.657-.999-1.001-.999c-.289 0-.567 0-.79 0h-2.713c-.55 0-1 .45-1 1v3.001h5.504c0-.001 0-.001 0-.002z" fill="#ffce54"/><path d="m44 55h-2.199c-.55 0-1.45 0-2 0h-2.199c-.55 0-1.45 0-2 0h-2.199c-.402 0-1.262 0-1.908 0-.236 0-1 .999-1 .999v3 .002h14.505v-3.001c0-.55-.45-1-1-1z" fill="#ffce54"/><g fill="#545c66"><path d="m24.996 26.009c-.553 0-1-.447-1-1 0-1.103-.897-2-2-2s-2 .897-2 2c0 .553-.447 1-1 1s-1-.447-1-1c0-2.206 1.794-4 4-4s4 1.794 4 4c0 .553-.447 1-1 1z"/><path d="m21.996 37.011c-2.206 0-4-1.794-4-4 0-.553.447-1 1-1s1 .447 1 1c0 1.103.897 2 2 2s2-.897 2-2c0-.553.447-1 1-1s1 .447 1 1c0 2.206-1.794 4-4 4z"/><path d="m24.996 34.011c-.553 0-1-.447-1-1 0-1.209-1.733-2.783-3.126-4.049-1.542-1.401-2.874-2.611-2.874-3.953 0-.553.447-1 1-1s1 .447 1 1c0 .456 1.39 1.719 2.22 2.473 1.771 1.61 3.78 3.436 3.78 5.529 0 .552-.447 1-1 1z"/><path d="m35.001 26.009c-.553 0-1-.447-1-1 0-1.103-.897-2-2-2s-2 .897-2 2c0 .553-.447 1-1 1s-1-.447-1-1c0-2.206 1.794-4 4-4s4 1.794 4 4c0 .553-.447 1-1 1z"/><path d="m32.001 37.011c-2.206 0-4-1.794-4-4 0-.553.447-1 1-1s1 .447 1 1c0 1.103.897 2 2 2s2-.897 2-2c0-.553.447-1 1-1s1 .447 1 1c0 2.206-1.794 4-4 4z"/><path d="m35.001 34.011c-.553 0-1-.447-1-1 0-1.209-1.733-2.783-3.126-4.049-1.542-1.401-2.874-2.611-2.874-3.953 0-.553.447-1 1-1s1 .447 1 1c0 .456 1.39 1.719 2.22 2.473 1.771 1.61 3.78 3.436 3.78 5.529 0 .552-.447 1-1 1z"/><path d="m45.001 26.009c-.553 0-1-.447-1-1 0-1.103-.897-2-2-2-.553 0-1-.447-1-1s.447-1 1-1c2.206 0 4 1.794 4 4 0 .553-.447 1-1 1z"/><path d="m42.001 37.011c-.553 0-1-.447-1-1s.447-1 1-1c1.103 0 2-.897 2-2 0-.553.447-1 1-1s1 .447 1 1c0 2.206-1.794 4-4 4z"/><path d="m45.001 34.011c-.553 0-1-.447-1-1v-8.002c0-.553.447-1 1-1s1 .447 1 1v8.002c0 .552-.447 1-1 1z"/><path d="m42.001 37.011h-3c-.553 0-1-.447-1-1s.447-1 1-1h3c.553 0 1 .447 1 1s-.447 1-1 1z"/><path d="m42.001 23.009h-3c-.553 0-1-.447-1-1s.447-1 1-1h3c.553 0 1 .447 1 1s-.447 1-1 1z"/><path d="m39.001 37.011c-.553 0-1-.447-1-1v-14.002c0-.553.447-1 1-1s1 .447 1 1v14.002c0 .552-.447 1-1 1z"/></g><circle cx="28.494" cy="56" fill="#ffce54" r="1"/><circle cx="31.494" cy="56" fill="#ffce54" r="1"/><path d="m26.742 57.001c.553 0 1-.447 1-1v-1-.001c-.012 0-.027 0-.039 0h-1.961v.001 1c0 .553.447 1 1 1z" fill="#f6bb42"/><path d="m33.247 57.001c.553 0 1-.447 1-1v-1-.001c-.012 0-.027 0-.039 0h-1.961v.001 1c0 .553.447 1 1 1z" fill="#f6bb42"/><path d="m36.247 57.001c.553 0 1-.447 1-1v-1-.001c-.012 0-.027 0-.039 0h-1.961v.001 1c0 .553.447 1 1 1z" fill="#f6bb42"/><path d="m39.247 57.001c.553 0 1-.447 1-1v-1-.001c-.012 0-.027 0-.039 0h-1.961v.001 1c0 .553.447 1 1 1z" fill="#f6bb42"/><path d="m42.247 57.001c.553 0 1-.447 1-1v-1-.001c-.012 0-.027 0-.039 0h-1.961v.001 1c0 .553.447 1 1 1z" fill="#f6bb42"/></svg>