<svg id="icons" enable-background="new 0 0 64 64" height="512" viewBox="0 0 64 64" width="512" xmlns="http://www.w3.org/2000/svg"><path d="m34 10h29v44h-29z" fill="#e6e9ed"/><path d="m1 10h29v44h-29z" fill="#e6e9ed"/><path d="m46 18h2.5 2.5c1.66 0 3 1.34 3 3v6.5c0 3.04-2.46 5.5-5.5 5.5s-5.5-2.46-5.5-5.5v-6.5c0-1.66 1.34-3 3-3z" fill="#ed5565"/><path d="m52.5 49h-8-.01c-.83-.01-1.5-.67-1.5-1.5s.67-1.49 1.5-1.5h.01 8c.83 0 1.5.67 1.5 1.5s-.67 1.5-1.5 1.5z" fill="#5d9cec"/><path d="m19.5 46c.83 0 1.5.67 1.5 1.5s-.67 1.5-1.5 1.5h-8c-.83 0-1.5-.67-1.5-1.5s.67-1.5 1.5-1.5z" fill="#5d9cec"/><path d="m18.501 30 1 3.991h-8.001l1-3.991z" fill="#545c66"/><path d="m18.01 30h-5-6c-.55 0-1-.45-1-1v-10c0-.55.45-1 1-1h17c.55 0 1 .45 1 1v10c0 .55-.45 1-1 1z" fill="#5d9cec"/><path d="m30 55.001h-29c-.553 0-1-.447-1-1v-44.002c0-.553.447-1 1-1h29c.553 0 1 .447 1 1v44.002c0 .553-.447 1-1 1zm-28-2h27v-42.002h-27z" fill="#e6e9ed"/><path d="m63 55.001h-29c-.553 0-1-.447-1-1v-44.002c0-.553.447-1 1-1h29c.553 0 1 .447 1 1v44.002c0 .553-.447 1-1 1zm-28-2h27v-42.002h-27z" fill="#e6e9ed"/><path d="m25.002 39.995h-19c-.553 0-1-.447-1-1s.447-1 1-1h19c.553 0 1 .447 1 1s-.447 1-1 1z" fill="#ccd1d9"/><path d="m21 42.995h-10.998c-.553 0-1-.447-1-1s.447-1 1-1h10.998c.553 0 1 .447 1 1s-.447 1-1 1z" fill="#ccd1d9"/><path d="m57.996 39.995h-19c-.553 0-1-.447-1-1s.447-1 1-1h19c.553 0 1 .447 1 1s-.447 1-1 1z" fill="#ccd1d9"/><path d="m53.996 42.995h-10.998c-.553 0-1-.447-1-1s.447-1 1-1h10.998c.553 0 1 .447 1 1s-.447 1-1 1z" fill="#ccd1d9"/><path d="m24.011 17.002h-16.999c-1.103 0-2 .897-2 2v9.998c0 1.103.897 2 2 2h16.999c1.103 0 2-.897 2-2v-9.998c0-1.103-.898-2-2-2zm-.004 11.998h-16.995v-9.998h16.999z" fill="#656d78"/><path d="m20.012 34.994h-9.001c-.553 0-1-.447-1-1s.447-1 1-1h9.001c.553 0 1 .447 1 1s-.448 1-1 1z" fill="#656d78"/><path d="m48.5 25.003c-.553 0-1-.447-1-1v-3c0-.553.447-1 1-1s1 .447 1 1v3c0 .553-.447 1-1 1z" fill="#e6e9ed"/><path d="m48.5 18.999c-.553 0-1-.447-1-1v-3c0-.553.447-1 1-1s1 .447 1 1v3c0 .553-.447 1-1 1z" fill="#656d78"/><g fill="#ed5565"><path d="m48.5 34.001c-3.585 0-6.502-2.917-6.502-6.502 0-.553.447-1 1-1s1 .447 1 1c0 2.482 2.02 4.502 4.502 4.502s4.502-2.02 4.502-4.502c0-.553.447-1 1-1s1 .447 1 1c0 3.585-2.917 6.502-6.502 6.502z"/><path d="m43.001 28.499c-.553 0-1-.447-1-1v-6.496c0-.553.447-1 1-1s1 .447 1 1v6.496c0 .553-.447 1-1 1z"/><path d="m53.999 28.499c-.553 0-1-.447-1-1v-6.496c0-.553.447-1 1-1s1 .447 1 1v6.496c0 .553-.447 1-1 1z"/><path d="m43.001 22.003c-.553 0-1-.447-1-1 0-2.206 1.794-4 4-4 .553 0 1 .447 1 1s-.447 1-1 1c-1.103 0-2 .897-2 2 0 .553-.447 1-1 1z"/><path d="m53.999 22.003c-.553 0-1-.447-1-1 0-1.103-.897-2-2-2-.553 0-1-.447-1-1s.447-1 1-1c2.206 0 4 1.794 4 4 0 .553-.447 1-1 1z"/><path d="m50.999 19.003h-4.998c-.553 0-1-.447-1-1s.447-1 1-1h4.998c.553 0 1 .447 1 1s-.447 1-1 1z"/></g></svg>