<svg id="icons" enable-background="new 0 0 64 64" height="512" viewBox="0 0 64 64" width="512" xmlns="http://www.w3.org/2000/svg"><path d="m48.839 46.005 1.41-1.42 11.58 11.59c1.56 1.561 1.56 4.09 0 5.65-1.562 1.569-4.09 1.569-5.66 0l-11.58-11.58 1.42-1.41 2.82-2.83z" fill="#656d78"/><path d="m41.969 41.965c.48-.47.93-.96 1.351-1.47l5.51 5.51-2.82 2.83-5.51-5.51-.01-.011c.508-.419.999-.869 1.479-1.349z" fill="#ccd1d9"/><path d="m24.999 45.995c11.6 0 21-9.4 21-20.99 0-11.6-9.4-21.01-21-21.01-11.601 0-21 9.41-21 21 0 11.6 9.398 21 21 21zm16.97-37.971c8.889 8.9 9.351 23.04 1.351 32.471-.421.51-.87 1-1.351 1.47-.479.48-.971.93-1.479 1.35-9.42 8.011-23.57 7.551-32.46-1.35-9.37-9.37-9.37-24.56 0-33.94 9.368-9.37 24.569-9.371 33.939-.001z" fill="#e6e9ed"/><path d="m24.999 3.995c-11.601 0-21 9.41-21 21 0 11.6 9.398 21 21 21 11.6 0 21-9.4 21-20.99 0-11.6-9.4-21.01-21-21.01z" fill="#5d9cec"/><path d="m45.299 50.54c-.255 0-.512-.098-.707-.293-.391-.391-.39-1.023 0-1.414l4.241-4.242c.391-.391 1.023-.392 1.415 0 .39.39.39 1.023 0 1.414l-4.242 4.242c-.194.195-.45.293-.707.293z" fill="#656d78"/><path d="m28.529 33.006.999 4h-9.01l1-4z" fill="#545c66"/><path d="m37.029 17.005v14c0 .55-.45 1-1 1h-8-6.011-8.001c-.549 0-1-.45-1-1l.001-14.001c0-.549.45-.999 1-.999h22.011c.55 0 1 .45 1 1z" fill="#87bcf4"/><g fill="#656d78"><path d="m36.024 15.006h-22.004c-1.102 0-1.999.897-1.999 2v14.002c0 1.103.897 2 2 2h22.004c1.103 0 2-.897 2-1.999v-14.003c-.001-1.103-.898-2-2.001-2zm-.003 16.001-22 .001-.001-14.002h22.005z"/><path d="m31.024 38.003h-12.003c-.553 0-1-.447-1-1s.447-1 1-1h12.004c.553 0 1 .447 1 1s-.448 1-1.001 1z"/></g></svg>