<svg id="icons" enable-background="new 0 0 64 64" height="512" viewBox="0 0 64 64" width="512" xmlns="http://www.w3.org/2000/svg"><path d="m50 12v33c0-3.68-1.1-7.1-3-9.95v-23.05z" fill="#545c66"/><path d="m50 45c0 9.94-8.061 18-18 18s-18-8.06-18-18c0-3.68 1.1-7.1 3-9.95 3.221-4.85 8.74-8.05 15-8.05s11.779 3.2 15 8.05c1.9 2.85 3 6.27 3 9.95zm-18 15c8.279 0 15-6.72 15-15 0-8.29-6.721-15-15-15-8.291 0-15 6.71-15 15 0 8.28 6.709 15 15 15z" fill="#656d78"/><path d="m17 12v23.05c-1.9 2.85-3 6.27-3 9.95v-33z" fill="#545c66"/><path d="m44 4.998c-.553 0-1-.447-1-1v-.998c0-.553.447-1 1-1s1 .447 1 1v.998c0 .553-.447 1-1 1z" fill="#ccd1d9"/><path d="m53 4.998c-.553 0-1-.447-1-1v-.998c0-.553.447-1 1-1s1 .447 1 1v.998c0 .553-.447 1-1 1z" fill="#ccd1d9"/><path d="m54 8v2c0 1.11-.9 2-2 2h-2-3-2c-1.109 0-2-.89-2-2v-2-4h2 7 2z" fill="#4a89dc"/><path d="m51 1c.549 0 1 .45 1 1v1c0 .55-.451 1-1 1h-5c-.551 0-1-.45-1-1v-1c0-.55.449-1 1-1z" fill="#e6e9ed"/><path d="m54 5.001h-11c-.553 0-1-.447-1-1s.447-1 1-1h11c.553 0 1 .447 1 1s-.447 1-1 1z" fill="#5d9cec"/><path d="m11 4.998c-.553 0-1-.447-1-1v-.998c0-.553.447-1 1-1s1 .447 1 1v.998c0 .553-.447 1-1 1z" fill="#ccd1d9"/><path d="m20 4.998c-.553 0-1-.447-1-1v-.998c0-.553.447-1 1-1s1 .447 1 1v.998c0 .553-.447 1-1 1z" fill="#ccd1d9"/><path d="m21 8v2c0 1.11-.9 2-2 2h-2-3-2c-1.109 0-2-.89-2-2v-2-4h2 7 2z" fill="#4a89dc"/><path d="m18 1c.549 0 1 .45 1 1v1c0 .55-.451 1-1 1h-5c-.551 0-1-.45-1-1v-1c0-.55.449-1 1-1z" fill="#e6e9ed"/><path d="m21 5.001h-11c-.553 0-1-.447-1-1s.447-1 1-1h11c.553 0 1 .447 1 1s-.447 1-1 1z" fill="#5d9cec"/></svg>