<svg id="icons" enable-background="new 0 0 64 64" height="512" viewBox="0 0 64 64" width="512" xmlns="http://www.w3.org/2000/svg"><path d="m49.995 19.01v25.99c0-3.681-1.1-7.101-3.01-9.95h.01v-16.04z" fill="#545c66"/><path d="m49.995 45c0 9.939-8.06 18-18 18s-18-8.061-18-18c0-3.681 1.1-7.101 3.01-9.95 3.21-4.851 8.73-8.05 14.99-8.05s11.78 3.199 14.99 8.05c1.911 2.849 3.01 6.269 3.01 9.95zm-18 15c8.29 0 15-6.721 15-15 0-8.28-6.71-15-15-15-8.28 0-15 6.72-15 15 0 8.279 6.72 15 15 15z" fill="#656d78"/><path d="m16.995 35.05h.01c-1.91 2.85-3.01 6.27-3.01 9.95v-25.99h3z" fill="#545c66"/><path d="m53.004 3.001h-9.008c-.553 0-1-.447-1-1s.447-1 1-1h9.008c.553 0 1 .447 1 1s-.447 1-1 1z" fill="#ccd1d9"/><path d="m53.995 2.001v7.009h-1.999v-4.01-4z" fill="#ccd1d9"/><path d="m51.996 5v4.01h-7.002v-4.01-4h7.002z" fill="#e6e9ed"/><path d="m44.994 5v4.01h-1.999v-7.009l1.999-1.001z" fill="#ccd1d9"/><path d="m54.995 10.011v6.999c0 1.1-.89 2-2 2h-3-3-3c-1.1 0-2-.9-2-2v-6.999h1 3 5 3z" fill="#656d78"/><path d="m46.995 6.001h-1c-.553 0-1-.447-1-1s.447-1 1-1h1c.553 0 1 .447 1 1s-.447 1-1 1z" fill="#ccd1d9"/><path d="m50.995 6.003h-1c-.553 0-1-.447-1-1s.447-1 1-1h1c.553 0 1 .447 1 1s-.447 1-1 1z" fill="#ccd1d9"/><path d="m54.005 11.011h-11.01c-.553 0-1-.447-1-1s.447-1 1-1h11.01c.553 0 1 .447 1 1s-.447 1-1 1z" fill="#656d78"/><path d="m20.004 3.001h-9.008c-.553 0-1-.447-1-1s.447-1 1-1h9.008c.553 0 1 .447 1 1s-.447 1-1 1z" fill="#ccd1d9"/><path d="m20.995 2.001v7.009h-1.999v-4.01-4z" fill="#ccd1d9"/><path d="m18.996 5v4.01h-7.002v-4.01-4h7.002z" fill="#e6e9ed"/><path d="m11.994 5v4.01h-1.999v-7.009l1.999-1.001z" fill="#ccd1d9"/><path d="m21.995 10.011v6.999c0 1.1-.89 2-2 2h-3-3-3c-1.1 0-2-.9-2-2v-6.999h1 3 5 3z" fill="#656d78"/><path d="m13.995 6.001h-1c-.553 0-1-.447-1-1s.447-1 1-1h1c.553 0 1 .447 1 1s-.447 1-1 1z" fill="#ccd1d9"/><path d="m17.995 6.003h-1c-.553 0-1-.447-1-1s.447-1 1-1h1c.553 0 1 .447 1 1s-.447 1-1 1z" fill="#ccd1d9"/><path d="m21.005 11.011h-11.01c-.553 0-1-.447-1-1s.447-1 1-1h11.01c.553 0 1 .447 1 1s-.447 1-1 1z" fill="#656d78"/></svg>