<svg id="icons" enable-background="new 0 0 64 64" height="512" viewBox="0 0 64 64" width="512" xmlns="http://www.w3.org/2000/svg"><path d="m54.501 5.004h-3.998c-.553 0-1-.447-1-1s.447-1 1-1h3.998c.553 0 1 .447 1 1s-.447 1-1 1z" fill="#aab2bd"/><path d="m54.501 9.004h-3.998c-.553 0-1-.447-1-1s.447-1 1-1h3.998c.553 0 1 .447 1 1s-.447 1-1 1z" fill="#aab2bd"/><path d="m49.508 11.013v-9.002c0-.553.447-1 1-1s1 .447 1 1v9.002c0 .553-.447 1-1 1s-1-.448-1-1z" fill="#656d78"/><path d="m47.499 10.01c.55 0 1 .45 1 1v3.011c0 .55-.45 1-1 1h-3c-.55 0-1-.45-1-1v-3.011c0-.55.45-1 1-1z" fill="#545c66"/><path d="m47.499 45c0 9.95-8.06 18-18 18-9.939 0-18-8.05-18-18 0-3.68 1.101-7.1 3-9.949 3.221-4.851 8.74-8.051 15-8.051s11.78 3.2 15 8.051c1.9 2.849 3 6.269 3 9.949zm-18 15c8.28 0 15-6.71 15-15 0-8.279-6.72-15-15-15-8.279 0-15 6.721-15 15 0 8.29 6.721 15 15 15z" fill="#545c66"/><path d="m50.508 9.012v3h-2.009-5-1c-1.1 0-2-.9-2-2v-7.001c0-1.101.9-2 2-2h8.009v3z" fill="#656d78"/><path d="m47.499 15.021v29.979c0-3.68-1.1-7.1-3-9.949v-20.03z" fill="#434a54"/><path d="m14.499 19.03v16.021c-1.899 2.85-3 6.27-3 9.949v-25.97z" fill="#434a54"/><path d="m15.499 1.002c.55-.001 1 .448 1 .998v7.013c0 .55-.45.999-1 .998l-5-.007c-.55-.001-1-.452-1-1.002v-6.991c0-.55.45-1.001 1-1.002z" fill="#545c66"/><path d="m11.499 19.03c-.55 0-1-.45-1-1v-.018c0-.55.45-1 1-1h3c.55 0 1 .45 1 1v.018c0 .55-.45 1-1 1z" fill="#545c66"/><path d="m16.499 8.011c.55 0 1 .45 1 1v7.002c0 .55-.45 1-1 1h-7c-.55 0-1-.45-1-1v-7.002c0-.55.45-1 1-1h2.5 2z" fill="#656d78"/><path d="m12.5 1.002v6.998l.001.011h.998l.001-.011v-6.998-.002h-1z" fill="#434a54"/><path d="m10.499 17.013h5v1h-5z" fill="#545c66"/></svg>