<svg id="icons" enable-background="new 0 0 64 64" height="512" viewBox="0 0 64 64" width="512" xmlns="http://www.w3.org/2000/svg"><path d="m2 16.5c-.55 0-1 .449-1 1v7.01 2 28.994c0 .551.45 1 1 1h38c.55 0 1-.449 1-1v-.99c0-.549 0-1.449 0-2v-1c0-.549 0-1.449 0-2v-1c0-.549 0-1.449 0-2v-1c0-.549 0-1.449 0-2v-1c0-.549 0-1.449 0-2v-14.004c0-.551 0-1.451 0-2v-7.01c0-.551-.45-1-1-1z" fill="#434a54"/><path d="m2 7.496c-.55 0-1 .45-1 1v38.001c0 .549.45 1 1 1h38c.55 0 1-.451 1-1v-38c0-.55-.45-1-1-1z" fill="#545c66"/><path d="m62 7.496c.55 0 1 .45 1 1v5.001c0 .55-.45 1-1 1h-.01c-.55 0-1.45 0-2 0h-1c-.55 0-1.45 0-2 0h-1c-.55 0-1.45 0-2 0h-1c-.55 0-1.45 0-2 0h-.99c-.55 0-1.45 0-2 0h-1c-.55 0-1.45 0-2 0-.55 0-1-.45-1-1v-5.001c0-.55.45-1 1-1z" fill="#656d78"/><path d="m36 50.506c.55 0 1 .449 1 1v1c0 .549-.45 1-1 1h-4c-.55 0-1-.451-1-1v-1c0-.551.45-1 1-1z" fill="#353b44"/><path d="m36 50.506c.55 0 1 .449 1 1v1c0 .549-.45 1-1 1h-1c-.55 0-1-.451-1-1v-1c0-.551.45-1 1-1z" fill="#aab2bd"/><path d="m32.3 16.195c-2.9-2.9-6.9-4.69-11.3-4.69-4.41 0-8.41 1.79-11.31 4.689-2.89 2.891-4.69 6.891-4.69 11.311 0 4.41 1.79 8.411 4.69 11.299v.01c2.899 2.9 6.899 4.691 11.31 4.691s8.41-1.801 11.3-4.701c2.91-2.889 4.7-6.889 4.7-11.299 0-4.42-1.8-8.42-4.7-11.31z" fill="#545c66"/><g fill="#656d78"><path d="m21.001 32.499c-2.757 0-5-2.244-5-5 0-2.758 2.243-5 5-5s5 2.242 5 5c0 2.755-2.243 5-5 5zm0-8c-1.654 0-3 1.346-3 3s1.346 3 3 3 3-1.346 3-3-1.346-3-3-3z"/><path d="m21.001 35.498c-4.411 0-8-3.588-8-8s3.589-8 8-8 8 3.588 8 8-3.589 8-8 8zm0-13.999c-3.309 0-6 2.691-6 6s2.691 6 6 6 6-2.691 6-6-2.691-6-6-6z"/><path d="m21.001 38.498c-6.065 0-11-4.934-11-11s4.935-11 11-11 11 4.934 11 11-4.935 11-11 11zm0-19.999c-4.963 0-9 4.037-9 9s4.037 9 9 9 9-4.037 9-9-4.037-9-9-9z"/><path d="m21.001 41.498c-7.72 0-14-6.279-14-14s6.28-14 14-14 14 6.279 14 14-6.28 14-14 14zm0-25.999c-6.617 0-12 5.383-12 12s5.383 12 12 12 12-5.383 12-12c0-6.618-5.383-12-12-12z"/><path d="m21.001 44.498c-9.374 0-17-7.625-17-17s7.626-17 17-17 17 7.625 17 17-7.626 17-17 17zm0-31.999c-8.271 0-15 6.729-15 15s6.729 15 15 15 15-6.729 15-15c0-8.272-6.729-15-15-15z"/><path d="m9.688 39.811c-.256 0-.512-.098-.707-.293-.391-.391-.391-1.023 0-1.414l8.485-8.484c.391-.391 1.023-.391 1.414 0s.391 1.024 0 1.414l-8.485 8.484c-.196.195-.452.293-.707.293z"/><path d="m23.829 25.668c-.256 0-.512-.098-.707-.293-.391-.391-.391-1.023 0-1.414l8.485-8.484c.391-.391 1.023-.391 1.414 0s.391 1.023 0 1.414l-8.485 8.484c-.195.196-.451.293-.707.293z"/><path d="m32.314 39.811c-.256 0-.512-.098-.707-.293l-8.485-8.486c-.391-.391-.391-1.023 0-1.414s1.023-.391 1.414 0l8.485 8.486c.391.391.391 1.023 0 1.414-.195.195-.451.293-.707.293z"/><path d="m18.172 25.668c-.256 0-.512-.098-.707-.293l-8.485-8.484c-.391-.391-.391-1.023 0-1.414s1.023-.391 1.414 0l8.484 8.484c.391.391.391 1.023 0 1.414-.194.196-.45.293-.706.293z"/></g><path d="m5.024 12.499c-.553 0-1.005-.448-1.005-1 0-.553.442-1 .994-1h.011c.552 0 1 .447 1 1 0 .551-.448 1-1 1z" fill="#434a54"/><path d="m37.031 12.499c-.553 0-1.005-.448-1.005-1 0-.553.442-1 .994-1h.011c.552 0 1 .447 1 1 0 .551-.448 1-1 1z" fill="#434a54"/><path d="m5.024 44.518c-.553 0-1.005-.447-1.005-1s.442-1 .994-1h.011c.552 0 1 .447 1 1s-.448 1-1 1z" fill="#434a54"/><path d="m37.031 44.518c-.553 0-1.005-.447-1.005-1s.442-1 .994-1h.011c.552 0 1 .447 1 1s-.448 1-1 1z" fill="#434a54"/><path d="m44 38.506c4.42 0 8-3.58 8-8h-.01v-16.009h3v16.009h.01c0 6.081-4.92 11-11 11h-3v-3z" fill="#e6e9ed"/><path d="m44 44.496c7.73 0 13.99-6.262 13.99-13.991v-16.008h3v16.009c0 9.389-7.601 16.991-16.99 16.991h-3v-2.99h3z" fill="#e6e9ed"/><path d="m44 41.506c6.08 0 11-4.92 11-11h-.01v-16.009h3v16.009c0 7.729-6.26 13.991-13.99 13.991v.01h-3v-3z" fill="#ccd1d9"/><path d="m44 32.505c1.1 0 2-.9 2-2v-16.008h3v16.009c0 2.76-2.24 5-5 5h-3v-3z" fill="#e6e9ed"/><path d="m44 35.506c2.76 0 5-2.24 5-5v-16.009h2.99v16.009h.01c0 4.42-3.58 8-8 8h-3v-3z" fill="#ccd1d9"/></svg>