<svg id="icons" enable-background="new 0 0 64 64" height="512" viewBox="0 0 64 64" width="512" xmlns="http://www.w3.org/2000/svg"><path d="m8 5.005c-.553 0-1-.447-1-1v-3.004c0-.553.447-1 1-1s1 .447 1 1v3.004c0 .553-.447 1-1 1z" fill="#aab2bd"/><path d="m11 5.005c-.553 0-1-.447-1-1v-3.004c0-.553.447-1 1-1s1 .447 1 1v3.004c0 .553-.447 1-1 1z" fill="#aab2bd"/><path d="m14 5.005c-.553 0-1-.447-1-1v-3.004c0-.553.447-1 1-1s1 .447 1 1v3.004c0 .553-.447 1-1 1z" fill="#aab2bd"/><path d="m17 5.005c-.553 0-1-.447-1-1v-3.004c0-.553.447-1 1-1s1 .447 1 1v3.004c0 .553-.447 1-1 1z" fill="#aab2bd"/><path d="m20 5.005c-.553 0-1-.447-1-1v-3.004c0-.553.447-1 1-1s1 .447 1 1v3.004c0 .553-.447 1-1 1z" fill="#aab2bd"/><path d="m23 5.005c-.553 0-1-.447-1-1v-3.004c0-.553.447-1 1-1s1 .447 1 1v3.004c0 .553-.447 1-1 1z" fill="#aab2bd"/><path d="m26 5.005c-.553 0-1-.447-1-1v-3.004c0-.553.447-1 1-1s1 .447 1 1v3.004c0 .553-.447 1-1 1z" fill="#aab2bd"/><path d="m38 5.005c-.553 0-1-.447-1-1v-3.004c0-.553.447-1 1-1s1 .447 1 1v3.004c0 .553-.447 1-1 1z" fill="#aab2bd"/><path d="m41 5.005c-.553 0-1-.447-1-1v-3.004c0-.553.447-1 1-1s1 .447 1 1v3.004c0 .553-.447 1-1 1z" fill="#aab2bd"/><path d="m44 5.005c-.553 0-1-.447-1-1v-3.004c0-.553.447-1 1-1s1 .447 1 1v3.004c0 .553-.447 1-1 1z" fill="#aab2bd"/><path d="m47 5.005c-.553 0-1-.447-1-1v-3.004c0-.553.447-1 1-1s1 .447 1 1v3.004c0 .553-.447 1-1 1z" fill="#aab2bd"/><path d="m50 5.005c-.553 0-1-.447-1-1v-3.004c0-.553.447-1 1-1s1 .447 1 1v3.004c0 .553-.447 1-1 1z" fill="#aab2bd"/><path d="m53 5.005c-.553 0-1-.447-1-1v-3.004c0-.553.447-1 1-1s1 .447 1 1v3.004c0 .553-.447 1-1 1z" fill="#aab2bd"/><path d="m56 5.005c-.553 0-1-.447-1-1v-3.004c0-.553.447-1 1-1s1 .447 1 1v3.004c0 .553-.447 1-1 1z" fill="#aab2bd"/><path d="m17 56.999c0 3.32 2.68 6 6 6h-3c-3.32 0-6-2.68-6-6v-45h3z" fill="#545c66"/><path d="m20 56.999c0 3.32 2.68 6 6 6h-3c-3.32 0-6-2.68-6-6v-45h3z" fill="#545c66"/><path d="m41.01 56.999c0 3.32-2.689 6-6 6h-3c3.311 0 6-2.68 6-6h-.01v-45h3v45z" fill="#545c66"/><path d="m47 56.999h.01c0 3.32-2.689 6-6 6h-3c3.311 0 6-2.68 6-6h-.01v-45h3z" fill="#545c66"/><path d="m23 56.999c0 3.32 2.68 6 6 6h-3c-3.32 0-6-2.68-6-6v-45h3z" fill="#545c66"/><path d="m50 56.999h.01c0 3.32-2.689 6-6 6h-3c3.311 0 6-2.68 6-6h-.01v-45h3z" fill="#545c66"/><path d="m53 56.999h.01c0 3.32-2.689 6-6 6h-3c3.311 0 6-2.68 6-6h-.01v-45h3z" fill="#545c66"/><path d="m56 56.999h.01c0 3.32-2.689 6-6 6h-.01-2.99c3.311 0 6-2.68 6-6h-.01v-45h3z" fill="#545c66"/><path d="m26 56.999c0 3.32 2.68 6 6 6h-3c-3.32 0-6-2.68-6-6v-45h3z" fill="#545c66"/><path d="m44 56.999h.01c0 3.32-2.689 6-6 6h-3c3.311 0 6-2.68 6-6h-.01v-45h3z" fill="#545c66"/><path d="m17 62.999c-3.32 0-6-2.68-6-6v-45h3v45c0 3.32 2.68 6 6 6z" fill="#545c66"/><path d="m11 56.999c0 3.32 2.68 6 6 6h-3c-3.32 0-6-2.68-6-6v-45h3z" fill="#545c66"/><g fill="#656d78"><path d="m14 63.999c-3.859 0-7-3.141-7-7 0-.553.447-1 1-1s1 .447 1 1c0 2.757 2.243 5 5 5 .553 0 1 .447 1 1s-.447 1-1 1z"/><path d="m17 63.999c-3.859 0-7-3.141-7-7 0-.553.447-1 1-1s1 .447 1 1c0 2.757 2.243 5 5 5 .553 0 1 .447 1 1s-.447 1-1 1z"/><path d="m20 63.999c-3.859 0-7-3.141-7-7 0-.553.447-1 1-1s1 .447 1 1c0 2.757 2.243 5 5 5 .553 0 1 .447 1 1s-.447 1-1 1z"/><path d="m23 63.999c-3.859 0-7-3.141-7-7 0-.553.447-1 1-1s1 .447 1 1c0 2.757 2.243 5 5 5 .553 0 1 .447 1 1s-.447 1-1 1z"/><path d="m26 63.999c-3.859 0-7-3.141-7-7 0-.553.447-1 1-1s1 .447 1 1c0 2.757 2.243 5 5 5 .553 0 1 .447 1 1s-.447 1-1 1z"/><path d="m29 63.999c-3.859 0-7-3.141-7-7 0-.553.447-1 1-1s1 .447 1 1c0 2.757 2.243 5 5 5 .553 0 1 .447 1 1s-.447 1-1 1z"/><path d="m32 63.999c-3.859 0-7-3.141-7-7 0-.553.447-1 1-1s1 .447 1 1c0 2.757 2.243 5 5 5 .553 0 1 .447 1 1s-.447 1-1 1z"/><path d="m50.008 63.999c-.553 0-1-.447-1-1s.447-1 1-1c2.757 0 5-2.243 5-5 0-.553.447-1 1-1s1 .447 1 1c0 3.859-3.141 7-7 7z"/><path d="m47.008 63.999c-.553 0-1-.447-1-1s.447-1 1-1c2.757 0 5-2.243 5-5 0-.553.447-1 1-1s1 .447 1 1c0 3.859-3.141 7-7 7z"/><path d="m44.008 63.999c-.553 0-1-.447-1-1s.447-1 1-1c2.757 0 5-2.243 5-5 0-.553.447-1 1-1s1 .447 1 1c0 3.859-3.141 7-7 7z"/><path d="m41.008 63.999c-.553 0-1-.447-1-1s.447-1 1-1c2.757 0 5-2.243 5-5 0-.553.447-1 1-1s1 .447 1 1c0 3.859-3.141 7-7 7z"/><path d="m38.008 63.999c-.553 0-1-.447-1-1s.447-1 1-1c2.757 0 5-2.243 5-5 0-.553.447-1 1-1s1 .447 1 1c0 3.859-3.141 7-7 7z"/><path d="m35.008 63.999c-.553 0-1-.447-1-1s.447-1 1-1c2.757 0 5-2.243 5-5 0-.553.447-1 1-1s1 .447 1 1c0 3.859-3.141 7-7 7z"/><path d="m32.008 63.999c-.553 0-1-.447-1-1s.447-1 1-1c2.757 0 5-2.243 5-5 0-.553.447-1 1-1s1 .447 1 1c0 3.859-3.141 7-7 7z"/><path d="m50.004 63.999h-36c-.553 0-1-.447-1-1s.447-1 1-1h36c.553 0 1 .447 1 1s-.447 1-1 1z"/><path d="m8 57.999c-.553 0-1-.447-1-1v-44.996c0-.553.447-1 1-1s1 .447 1 1v44.996c0 .553-.447 1-1 1z"/><path d="m11 57.999c-.553 0-1-.447-1-1v-44.996c0-.553.447-1 1-1s1 .447 1 1v44.996c0 .553-.447 1-1 1z"/><path d="m14 57.999c-.553 0-1-.447-1-1v-44.996c0-.553.447-1 1-1s1 .447 1 1v44.996c0 .553-.447 1-1 1z"/><path d="m17 57.999c-.553 0-1-.447-1-1v-44.996c0-.553.447-1 1-1s1 .447 1 1v44.996c0 .553-.447 1-1 1z"/><path d="m20 57.999c-.553 0-1-.447-1-1v-44.996c0-.553.447-1 1-1s1 .447 1 1v44.996c0 .553-.447 1-1 1z"/><path d="m23 57.999c-.553 0-1-.447-1-1v-44.996c0-.553.447-1 1-1s1 .447 1 1v44.996c0 .553-.447 1-1 1z"/><path d="m26 57.999c-.553 0-1-.447-1-1v-44.996c0-.553.447-1 1-1s1 .447 1 1v44.996c0 .553-.447 1-1 1z"/><path d="m38 57.999c-.553 0-1-.447-1-1v-44.996c0-.553.447-1 1-1s1 .447 1 1v44.996c0 .553-.447 1-1 1z"/><path d="m41 57.999c-.553 0-1-.447-1-1v-44.996c0-.553.447-1 1-1s1 .447 1 1v44.996c0 .553-.447 1-1 1z"/><path d="m44 57.999c-.553 0-1-.447-1-1v-44.996c0-.553.447-1 1-1s1 .447 1 1v44.996c0 .553-.447 1-1 1z"/><path d="m47 57.999c-.553 0-1-.447-1-1v-44.996c0-.553.447-1 1-1s1 .447 1 1v44.996c0 .553-.447 1-1 1z"/><path d="m50 57.999c-.553 0-1-.447-1-1v-44.996c0-.553.447-1 1-1s1 .447 1 1v44.996c0 .553-.447 1-1 1z"/><path d="m53 57.999c-.553 0-1-.447-1-1v-44.996c0-.553.447-1 1-1s1 .447 1 1v44.996c0 .553-.447 1-1 1z"/><path d="m56 57.999c-.553 0-1-.447-1-1v-44.996c0-.553.447-1 1-1s1 .447 1 1v44.996c0 .553-.447 1-1 1z"/></g><path d="m27 3.005h-19.996c-.553 0-1 .447-1 1v7.998c0 .553.447 1 1 1h19.996c.553 0 1-.447 1-1v-7.998c0-.553-.447-1-1-1z" fill="#ccd1d9"/><path d="m6.004 8h21.996v2h-21.996z" fill="#aab2bd"/><path d="m56.996 3.005h-19.996c-.553 0-1 .447-1 1v7.998c0 .553.447 1 1 1h19.996c.553 0 1-.447 1-1v-7.998c0-.553-.447-1-1-1z" fill="#ccd1d9"/><path d="m36 8h21.996v2h-21.996z" fill="#aab2bd"/></svg>