<svg id="icons" enable-background="new 0 0 64 64" height="512" viewBox="0 0 64 64" width="512" xmlns="http://www.w3.org/2000/svg"><path d="m44.995 39.01c1.22.9 2.01 2.351 2.01 3.99 0 2.77-2.24 5-5 5s-5-2.23-5-5c0-1.65.8-3.12 2.04-4.02.83-.62 1.85-.98 2.96-.98 1.12 0 2.16.37 2.99 1.01z" fill="#ed5565"/><path d="m45.005 33v6l-.01.01c-.83-.64-1.87-1.01-2.99-1.01-1.11 0-2.13.36-2.96.98l-.04-.061v-10.919h6z" fill="#da4453"/><path d="m45.005 23v5h-6v-8c0-1.66 1.34-3 3-3s3 1.34 3 3z" fill="#e6e9ed"/><path d="m29.975 22v30l-2.99 4.99-4.99.01-3-5v-30z" fill="#656d78"/><path d="m19.495 1h10c.83 0 1.5.68 1.5 1.5 0 .83-.67 1.5-1.5 1.5h-2.5-5-2.5c-.83 0-1.5-.67-1.5-1.5 0-.82.67-1.5 1.5-1.5z" fill="#e6e9ed"/><path d="m21.995 4h5v15h-5z" fill="#ccd1d9"/><path d="m26.995 19h3.5v.01c.83 0 1.5.67 1.5 1.5s-.67 1.5-1.5 1.5l-.02-.01h-.5-10.98-.5v.01c-.83 0-1.5-.67-1.5-1.5s.67-1.5 1.5-1.5v-.01h3.5z" fill="#e6e9ed"/><path d="m26.995 57-.51 6h-3.99l-.5-6 4.99-.01z" fill="#545c66"/><path d="m23.004 47.994c-.553 0-1-.447-1-1v-17c0-.553.447-1 1-1s1 .447 1 1v17c0 .553-.447 1-1 1z" fill="#545c66"/><path d="m26.004 42.994c-.553 0-1-.447-1-1v-7c0-.553.447-1 1-1s1 .447 1 1v7c0 .553-.447 1-1 1z" fill="#545c66"/><g fill="#656d78"><path d="m44.007 33c0 .553.447 1 1 1v-2c-.553 0-1 .447-1 1z"/><path d="m44.007 28c0 .553.447 1 1 1v-2c-.553 0-1 .447-1 1z"/><path d="m44.007 23c0 .553.447 1 1 1v-2c-.553 0-1 .447-1 1z"/></g></svg>