<svg id="icons" enable-background="new 0 0 64 64" height="512" viewBox="0 0 64 64" width="512" xmlns="http://www.w3.org/2000/svg"><path d="m41.996 47c-.55 0-1 .449-1 1v12c0 .549.45 1 1 1h1.01c.55 0 1-.451 1-1v-12c0-.551-.45-1-1-1z" fill="#ccd1d9"/><path d="m41.006 38.99h3v7.012h-3z" fill="#ccd1d9"/><path d="m38.996 45.002c-.55 0-1 .449-1 1v2c0 .549.45 1 1 1h1 2 1.01c.55 0 1-.451 1-1v-2c0-.551-.45-1-1-1h-1c-.55 0-1.45 0-2 0z" fill="#e6e9ed"/><path d="m38.996 35.992c-.55 0-1 .449-1 1v2c0 .549.45 1 1 1h1.01 2 1c.55 0 1-.451 1-1v-2c0-.551-.45-1-1-1z" fill="#e6e9ed"/><path d="m2.999 47c.55 0 1 .449 1 1v12c0 .549-.45 1-1 1h-1.01c-.55 0-1-.451-1-1v-12c0-.551.45-1 1-1z" fill="#ccd1d9"/><path d="m.989 38.99h3v7.012h-3z" fill="#ccd1d9"/><path d="m5.999 45.002c.55 0 1 .449 1 1v2c0 .549-.45 1-1 1h-1c-.55 0-1.45 0-2 0h-1.01c-.55 0-1-.451-1-1v-2c0-.551.45-1 1-1h1 2z" fill="#e6e9ed"/><path d="m5.999 35.992c.55 0 1 .449 1 1v2c0 .549-.45 1-1 1h-1.01c-.55 0-1.45 0-2 0h-1c-.55 0-1-.451-1-1v-2c0-.551.45-1 1-1z" fill="#e6e9ed"/><path d="m6.999 51.002h31v5h-31z" fill="#545c66"/><path d="m37.999 49.002v2h-31v-2-4-5-.01-4-1.99h31v1.99 4 .01 5z" fill="#656d78"/><path d="m38 57.002h-30.999c-.553 0-1-.447-1-1v-16c0-.553.447-1 1-1s1 .447 1 1v15h28.999v-15c0-.553.447-1 1-1s1 .447 1 1v16c0 .553-.447 1-1 1z" fill="#545c66"/><path d="m38 52.004h-30.999c-.553 0-1-.447-1-1v-17.002c0-.553.447-1 1-1h30.999c.553 0 1 .447 1 1v17.002c0 .553-.447 1-1 1zm-29.999-2h28.999v-15.002h-28.999z" fill="#656d78"/><path d="m29.994 42.006h-15.999c-.553 0-1-.447-1-1s.447-1 1-1h15.999c.553 0 1 .447 1 1s-.447 1-1 1z" fill="#545c66"/><path d="m25.994 45.006h-8c-.553 0-1-.447-1-1s.447-1 1-1h8c.553 0 1 .447 1 1s-.447 1-1 1z" fill="#545c66"/><path d="m61.002 16.998c-.55 0-1 .451-1 1v12c0 .551.45 1 1 1h1.01c.55 0 1-.449 1-1v-12c0-.549-.45-1-1-1z" fill="#ccd1d9"/><path d="m60.012 8.99h3v7.012h-3z" fill="#ccd1d9"/><path d="m58.002 15c-.55 0-1 .451-1 1v2c0 .551.45 1 1 1h1 2 1.01c.55 0 1-.449 1-1v-2c0-.549-.45-1-1-1h-1c-.55 0-1.45 0-2 0z" fill="#e6e9ed"/><path d="m58.002 5.99c-.55 0-1 .451-1 1v2c0 .551.45 1 1 1h1.01 2 1c.55 0 1-.449 1-1v-2c0-.549-.45-1-1-1z" fill="#e6e9ed"/><path d="m22.005 16.998c.55 0 1 .451 1 1v12c0 .551-.45 1-1 1h-1.01c-.55 0-1-.449-1-1v-12c0-.549.45-1 1-1z" fill="#ccd1d9"/><path d="m19.995 8.99h3v7.012h-3z" fill="#ccd1d9"/><path d="m25.005 15c.55 0 1 .451 1 1v2c0 .551-.45 1-1 1h-1c-.55 0-1.45 0-2 0h-1.01c-.55 0-1-.449-1-1v-2c0-.549.45-1 1-1h1 2z" fill="#e6e9ed"/><path d="m25.005 5.99c.55 0 1 .451 1 1v2c0 .551-.45 1-1 1h-1.01c-.55 0-1.45 0-2 0h-1c-.55 0-1-.449-1-1v-2c0-.549.45-1 1-1z" fill="#e6e9ed"/><path d="m26.005 21h31v5h-31z" fill="#545c66"/><path d="m57.005 19v2h-31v-2-4-5-.01-4-1.99h31v1.99 4 .01 5z" fill="#656d78"/><path d="m57.006 27.002h-30.999c-.553 0-1-.447-1-1v-16.002c0-.553.447-1 1-1s1 .447 1 1v15.002h28.999v-15.002c0-.553.447-1 1-1s1 .447 1 1v16.002c0 .553-.447 1-1 1z" fill="#545c66"/><path d="m57.006 22.002h-30.999c-.553 0-1-.447-1-1v-17.002c0-.553.447-1 1-1h30.999c.553 0 1 .447 1 1v17.002c0 .553-.447 1-1 1zm-29.999-2h28.999v-15.002h-28.999z" fill="#656d78"/><g fill="#545c66"><path d="m49 12.004h-15.999c-.553 0-1-.447-1-1s.447-1 1-1h15.999c.553 0 1 .447 1 1s-.447 1-1 1z"/><path d="m45 15.004h-8c-.553 0-1-.447-1-1s.447-1 1-1h8c.553 0 1 .447 1 1s-.447 1-1 1z"/></g></svg>