<svg id="icons" enable-background="new 0 0 64 64" height="512" viewBox="0 0 64 64" width="512" xmlns="http://www.w3.org/2000/svg"><path d="m53 1h-42c-2.2 0-4 1.8-4 4v42c0 2.2 1.8 4 4 4h8 3 5 3 4 3 5 3 8c2.2 0 4-1.8 4-4v-42c0-2.2-1.8-4-4-4z" fill="#656d78"/><path d="m14.68 16c1.82-3.16 4.38-5.63 7.32-7.32 0 0-.1 5.83 4 6.931 4.1 1.1 3.5 6.06 3.5 6.06-.76.44-1.39 1.07-1.83 1.83 0 0-1.97-4.6-6.06-3.5-4.1 1.099-6.93-4.001-6.93-4.001z" fill="#545c66"/><path d="m32 21c-.91 0-1.77.24-2.5.67 0 0 .6-4.96-3.5-6.06-4.1-1.101-4-6.931-4-6.931 3.04-1.759 6.5-2.679 10-2.679 0 0-3 5 0 8s0 7 0 7z" fill="#434a54"/><path d="m24 59.999c-2.76 0-5-2.24-5-5v-3.999h3v3.999c0 1.11.89 2 2 2z" fill="#fc6e51"/><path d="m34.5 30.33s-.6 4.97 3.5 6.07c4.1 1.09 4 6.92 4 6.92-3.04 1.75-6.49 2.68-10 2.68 0 0 3-5 0-8s0-7 0-7c.91 0 1.77-.24 2.5-.67z" fill="#434a54"/><path d="m34 51h3v5.999h-3z" fill="#fc6e51"/><path d="m36.33 28.5s1.96 4.6 6.06 3.5c4.101-1.1 6.931 4 6.931 4-1.82 3.16-4.37 5.63-7.32 7.32 0 0 .1-5.83-4-6.92-4.1-1.101-3.5-6.07-3.5-6.07.759-.44 1.389-1.07 1.829-1.83z" fill="#545c66"/><path d="m36.33 23.5s4.96.6 6.06-3.5c1.07-3.99 6.63-4 6.92-4h.011c1.749 3.04 2.679 6.49 2.679 10 0 0-5-3-8 0s-7 0-7 0c0-.91-.24-1.77-.67-2.5z" fill="#545c66"/><path d="m37 26c0 .91-.24 1.77-.67 2.5-.44.76-1.07 1.39-1.83 1.83-.73.43-1.59.67-2.5.67s-1.77-.24-2.5-.67c-.76-.44-1.39-1.07-1.83-1.83-.43-.73-.67-1.59-.67-2.5s.24-1.77.67-2.5c.44-.76 1.07-1.39 1.83-1.83.73-.43 1.59-.67 2.5-.67s1.77.24 2.5.67c.76.44 1.39 1.07 1.83 1.83.43.73.67 1.59.67 2.5z" fill="#656d78"/><path d="m32 38c3 3 0 8 0 8-3.4.01-6.85-.86-10-2.68 0 0 5.1-2.83 4-6.92-1.1-4.101 3.5-6.07 3.5-6.07.73.43 1.59.67 2.5.67 0 0-3 4 0 7z" fill="#545c66"/><path d="m24 56.998v2.001 3.001s.45 1 1 1h14c.55 0 1-.45 1-1s0-2.451 0-3.001v-2.001z" fill="#e6e9ed"/><path d="m27.67 28.5c.44.76 1.07 1.39 1.83 1.83 0 0-4.6 1.97-3.5 6.07 1.1 4.09-4 6.92-4 6.92-3.15-1.82-5.62-4.37-7.31-7.32.29 0 5.85-.01 6.92-4 1.1-4.09 6.06-3.5 6.06-3.5z" fill="#434a54"/><path d="m37 26s4 3 7 0 8 0 8 0c0 3.4-.86 6.85-2.68 10 0 0-2.83-5.1-6.931-4-4.1 1.1-6.06-3.5-6.06-3.5.431-.73.671-1.59.671-2.5z" fill="#434a54"/><path d="m27.67 28.5s-4.96-.59-6.06 3.5c-1.07 3.99-6.63 4-6.92 4h-.01c-1.75-3.04-2.68-6.49-2.68-10 0 0 5 3 8 0s7 0 7 0c0 .91.24 1.77.67 2.5z" fill="#545c66"/><path d="m45 54.999c0 2.76-2.24 5-5 5v-3c1.1 0 2-.89 2-2v-3.999h3z" fill="#fc6e51"/><path d="m27 51h3v5.999h-3z" fill="#fc6e51"/><path d="m27.67 23.5c-.43.73-.67 1.59-.67 2.5 0 0-4-3-7 0s-8 0-8 0c0-3.4.86-6.85 2.68-10 0 0 2.83 5.1 6.931 4 4.089-1.1 6.059 3.5 6.059 3.5z" fill="#434a54"/><path d="m38 15.61c1.1 4.1-3.5 6.06-3.5 6.06-.73-.43-1.59-.67-2.5-.67 0 0 3-4 0-7s0-8 0-8c3.4 0 6.84.86 10 2.68 0 0-5.1 2.83-4 6.93z" fill="#545c66"/><path d="m49.31 16c-.29 0-5.85.01-6.92 4-1.1 4.1-6.06 3.5-6.06 3.5-.44-.76-1.07-1.39-1.83-1.83 0 0 4.6-1.96 3.5-6.06-1.1-4.101 4-6.931 4-6.931 3.15 1.821 5.62 4.371 7.31 7.321z" fill="#434a54"/></svg>