<svg id="icons" enable-background="new 0 0 64 64" height="512" viewBox="0 0 64 64" width="512" xmlns="http://www.w3.org/2000/svg"><path d="m58.499 3.999h-54c-.553 0-1-.448-1-1s.447-1 1-1h54c.553 0 1 .448 1 1s-.447 1-1 1z" fill="#656d78"/><path d="m61.501 7c-.553 0-1-.447-1-1 0-1.104-.898-2.002-2.002-2.002-.553 0-1-.447-1-1s.447-1 1-1c2.207 0 4.002 1.795 4.002 4.002 0 .553-.447 1-1 1z" fill="#656d78"/><path d="m61.501 62.999c-.553 0-1-.447-1-1v-55.999c0-.553.447-1 1-1s1 .447 1 1v55.999c0 .553-.447 1-1 1z" fill="#656d78"/><g fill="#aab2bd"><path d="m4.499 7c-.553 0-1-.447-1-1v-4.001c0-.552.447-1 1-1s1 .448 1 1v4.001c0 .553-.447 1-1 1z"/><path d="m9.499 7c-.553 0-1-.447-1-1v-4.001c0-.552.447-1 1-1s1 .448 1 1v4.001c0 .553-.447 1-1 1z"/><path d="m51.499 7c-.553 0-1-.447-1-1v-4.001c0-.552.447-1 1-1s1 .448 1 1v4.001c0 .553-.447 1-1 1z"/><path d="m56.499 7c-.553 0-1-.447-1-1v-4.001c0-.552.447-1 1-1s1 .448 1 1v4.001c0 .553-.447 1-1 1z"/></g><path d="m56.499 6.001h-5-42-5-2v56h56v-56z" fill="#ccd1d9"/><path d="m49.499 14.001h-38c-.55 0-1 .45-1 1v38c0 .55.45 1 1 1h10 18 10c.55 0 1-.45 1-1v-38c0-.55-.45-1-1-1z" fill="#fff"/><path d="m30.499 20c4.41 0 8 3.58 8 8s-3.59 8-8 8c-4.42 0-8-3.58-8-8s3.58-8 8-8zm4 8c0-2.209-1.8-4-4-4-2.21 0-4 1.791-4 4 0 2.211 1.79 4 4 4 2.2 0 4-1.789 4-4z" fill="#a0d468"/><path d="m39.499 54.001 2 3h-22l2-3z" fill="#a0d468"/><path d="m49.499 11.001c2.2 0 4 1.8 4 4v38c0 2.2-1.8 4-4 4h-8l-2-3h10c.55 0 1-.45 1-1v-38c0-.55-.45-1-1-1h-38c-.55 0-1 .45-1 1v38c0 .55.45 1 1 1h10l-2 3h-8c-2.2 0-4-1.8-4-4v-38c0-2.2 1.8-4 4-4z" fill="#e6e9ed"/><path d="m58.499 63.001h-56c-.553 0-1-.447-1-1v-56.001c0-.553.447-1 1-1h56c.553 0 1 .447 1 1v56.001c0 .553-.447 1-1 1zm-55-2h54v-54.001h-54v54.001z" fill="#ccd1d9"/><path d="m42.499 41.002h-24c-.553 0-1-.447-1-1s.447-1 1-1h24c.553 0 1 .447 1 1s-.447 1-1 1z" fill="#e6e9ed"/><path d="m42.499 44h-24c-.553 0-1-.447-1-1s.447-1 1-1h24c.553 0 1 .447 1 1s-.447 1-1 1z" fill="#e6e9ed"/><path d="m35.499 47h-10c-.553 0-1-.447-1-1s.447-1 1-1h10c.553 0 1 .447 1 1s-.447 1-1 1z" fill="#e6e9ed"/></svg>