<?xml version="1.0" encoding="iso-8859-1"?>
<!-- Generator: Adobe Illustrator 19.0.0, SVG Export Plug-In . SVG Version: 6.00 Build 0)  -->
<svg version="1.1" id="Capa_1" xmlns="http://www.w3.org/2000/svg" xmlns:xlink="http://www.w3.org/1999/xlink" x="0px" y="0px"
	 viewBox="0 0 491.52 491.52" style="enable-background:new 0 0 491.52 491.52;" xml:space="preserve">
<circle style="fill:#334D5C;" cx="245.76" cy="245.76" r="245.76"/>
<path style="fill:#27A2DB;" d="M245.76,104.96c-77.635,0-140.8,63.165-140.8,140.8s63.165,140.8,140.8,140.8
	c77.635,0,140.8-63.165,140.8-140.8S323.395,104.96,245.76,104.96z"/>
<path style="fill:#2D93BA;" d="M245.76,104.96c-77.635,0-140.8,63.165-140.8,140.8s63.165,140.8,140.8,140.8
	c77.635,0,140.8-63.165,140.8-140.8S323.395,104.96,245.76,104.96z M250.88,189.905c17.867-0.231,35.777-1.657,54.034-4.307
	c4.42,16.592,7.072,35.254,7.465,55.042H250.88V189.905z M250.88,179.64v-64.017c21.466,3.21,40.112,26.385,51.1,60.056
	C284.726,178.119,267.786,179.417,250.88,179.64z M240.64,115.623v64.016c-16.903-0.224-33.84-1.524-51.094-3.963
	C200.533,142.008,219.177,118.834,240.64,115.623z M240.64,189.905v50.735h-61.494c0.393-19.789,3.045-38.452,7.466-55.045
	C204.87,188.245,222.777,189.673,240.64,189.905z M168.909,240.64H115.33c0.93-23.953,8.344-46.258,20.532-65.23
	c13.793,3.481,27.268,6.374,40.501,8.605C171.905,201.134,169.289,220.278,168.909,240.64z M168.909,250.88
	c0.379,20.36,2.996,39.502,7.454,56.621c-13.234,2.231-26.709,5.126-40.501,8.609c-12.188-18.973-19.602-41.277-20.532-65.23
	H168.909z M179.146,250.88h61.494v50.732c-17.866,0.23-35.774,1.656-54.029,4.307C182.191,289.328,179.539,270.667,179.146,250.88z
	 M240.64,311.879v64.018c-21.463-3.21-40.108-26.386-51.095-60.056C206.797,313.401,223.736,312.102,240.64,311.879z
	 M250.88,375.897v-64.018c16.904,0.224,33.844,1.524,51.099,3.965C290.99,349.513,272.345,372.687,250.88,375.897z M250.88,301.613
	V250.88h61.499c-0.393,19.789-3.045,38.452-7.466,55.045C286.654,303.272,268.746,301.845,250.88,301.613z M322.616,250.88h53.574
	c-0.93,23.954-8.345,46.26-20.534,65.233c-13.791-3.482-27.263-6.376-40.496-8.607C319.62,290.386,322.236,271.242,322.616,250.88z
	 M322.616,240.64c-0.38-20.361-2.996-39.504-7.456-56.623c13.234-2.231,26.708-5.124,40.498-8.606
	c12.188,18.973,19.601,41.276,20.531,65.229H322.616z M349.347,166.42c-12.598,3.086-24.934,5.662-37.066,7.67
	c-7.351-23.18-18.22-41.944-31.367-54.044C308.468,127.763,332.361,144.296,349.347,166.42z M210.608,120.047
	c-13.146,12.1-24.013,30.862-31.364,54.041c-12.132-2.008-24.47-4.583-37.069-7.669C159.16,144.295,183.054,127.762,210.608,120.047
	z M142.174,325.101c12.599-3.087,24.936-5.663,37.069-7.671c7.351,23.18,18.218,41.944,31.365,54.044
	C183.054,363.758,159.16,347.225,142.174,325.101z M280.914,371.473c13.147-12.1,24.015-30.862,31.366-54.041
	c12.13,2.008,24.466,4.584,37.064,7.671C332.358,347.225,308.466,363.757,280.914,371.473z"/>
<path style="fill:#FCD462;" d="M380.16,104.96H238.554c-3.534,0-6.398,2.865-6.398,6.399v85.047c0,3.534,2.865,6.398,6.398,6.398
	h19.682c1.556,0,2.819,1.262,2.819,2.819v25.169c0,2.511,3.036,3.768,4.812,1.993l29.155-29.155
	c0.528-0.529,1.245-0.826,1.993-0.826h83.146c3.534,0,6.4-2.865,6.4-6.399v-85.047C386.56,107.825,383.695,104.96,380.16,104.96z"/>
<g>
	<path style="fill:#E56353;" d="M250.689,134.914l3.718,15.105c0.814,3.315,1.57,6.385,2.095,9.455h0.17
		c0.638-3.005,1.57-6.2,2.497-9.395l4.593-15.165h4.295l4.361,14.86c1.045,3.56,1.859,6.695,2.498,9.7h0.175
		c0.464-3.005,1.216-6.14,2.148-9.64l4.006-14.92h5.056l-9.062,29.72h-4.65l-4.295-14.185c-0.989-3.315-1.802-6.265-2.502-9.765
		h-0.114c-0.695,3.565-1.57,6.634-2.554,9.825l-4.532,14.125h-4.649l-8.481-29.72H250.689z"/>
	<path style="fill:#E56353;" d="M294.162,134.914l3.718,15.105c0.814,3.315,1.57,6.385,2.091,9.455h0.175
		c0.639-3.005,1.57-6.2,2.498-9.395l4.593-15.165h4.295l4.361,14.86c1.046,3.56,1.859,6.695,2.497,9.7h0.171
		c0.468-3.005,1.22-6.14,2.152-9.64l4.006-14.92h5.056l-9.063,29.72h-4.65l-4.295-14.185c-0.989-3.315-1.802-6.265-2.498-9.765
		h-0.118c-0.695,3.565-1.57,6.634-2.554,9.825l-4.531,14.125h-4.649l-8.481-29.72H294.162z"/>
	<path style="fill:#E56353;" d="M337.64,134.914l3.718,15.105c0.814,3.315,1.57,6.385,2.09,9.455h0.175
		c0.638-3.005,1.57-6.2,2.497-9.395l4.593-15.165h4.295l4.361,14.86c1.046,3.56,1.859,6.695,2.498,9.7h0.17
		c0.468-3.005,1.22-6.14,2.152-9.64l4.006-14.92h5.056l-9.063,29.72h-4.649l-4.295-14.185c-0.989-3.315-1.802-6.265-2.498-9.765
		h-0.118c-0.695,3.565-1.57,6.634-2.554,9.825l-4.531,14.125h-4.649l-8.481-29.72H337.64z"/>
</g>
<g>
</g>
<g>
</g>
<g>
</g>
<g>
</g>
<g>
</g>
<g>
</g>
<g>
</g>
<g>
</g>
<g>
</g>
<g>
</g>
<g>
</g>
<g>
</g>
<g>
</g>
<g>
</g>
<g>
</g>
</svg>
